<?xml version="1.0" encoding="utf-8"?>
<!-- Generator: Adobe Illustrator 16.0.0, SVG Export Plug-In . SVG Version: 6.00 Build 0)  -->
<!DOCTYPE svg PUBLIC "-//W3C//DTD SVG 1.1//EN" "http://www.w3.org/Graphics/SVG/1.1/DTD/svg11.dtd">
<svg version="1.1" id="Layer_1" xmlns="http://www.w3.org/2000/svg" xmlns:xlink="http://www.w3.org/1999/xlink" x="0px" y="0px"
	 width="584.701px" height="644.101px" viewBox="0 0 584.701 644.101" enable-background="new 0 0 584.701 644.101"
	 xml:space="preserve">
<g>
	<path opacity="0.2" d="M460.455,592.331c2.338,0.275,4.705,0.59,7.078,0.934l1.238,0.162l0.703,0.123
		c4.973,0.752,9.908,1.613,14.516,2.48l-0.828-0.312l20.201,4.061l-1.693-0.949l8.385,2.914c1.434,0.453,2.732,0.906,3.906,1.357
		l6.588,2.289l0.951-0.172l2.764,5.842l1.232-0.418l-0.953,1.004l0.111,0.236l-0.217-0.125l-0.428,1.164
		c-0.652,1.424-1.803,2.736-3.01,3.881l-0.004,0.004l2.875-0.969c2.926-0.82,5.012-1.535,6.062-1.838l-0.25-0.387l0.863,0.051
		l6.752-3.738l0.424,0.137l18.354,0.9l-15.529-1.689l11.209-4.395l2.848,0.158l10.924-1.361l3.365,1.145
		c1.129,0.334,2.145,0.684,3.059,1.045l0.535,0.182l0.197,0.117c1.805,0.771,3.176,1.586,4.217,2.375l0.391-0.211l3.658,3.561
		l1.906-0.553l-2.932,1.986c-0.342,0.326-0.807,0.639-1.385,0.938l-2.297,1.557l1.482,0.016l-18.668,2.697l2.623-0.061l-4.496,0.332
		l-0.758,0.109l0.258-0.072l-5.037,0.369c-5.766,0.535-11.738,0.951-17.254,1.27l-1.246,0.09c1.633,0.027,2.625,0.043,2.625,0.043
		l-10.377,0.492l14.799,1.705c0,0-0.826-0.045-2.193-0.121l1.102,0.154c4.818,0.596,10.068,1.303,15.207,2.1l4.439,0.615
		l-0.256-0.078l0.699,0.139l3.957,0.547l-2.24-0.209l17.133,3.391l-1.236-0.074l2.742,1.451c0.645,0.287,1.195,0.578,1.652,0.873
		l3.502,1.85l-1.896-0.58l-1.242,2.783l-0.434-0.199c-0.471,0.604-1.207,1.207-2.33,1.75l-0.104,0.086l-0.352,0.121
		c-0.584,0.25-1.266,0.486-2.049,0.697l-2.238,0.764l-9.92-1.803l-2.318-0.033l-11.732-4.381l12.217-0.492l-15.016-0.34
		l-0.318,0.133l-7.682-3.514l-0.766-0.012l-0.102-0.354c-0.916-0.277-2.844-0.891-5.25-1.615c1.908,0.732,3.744,1.49,5.387,2.279
		l2.916,1.145l0.045-0.105l0.246,0.219l2.604,1.027l-1.992-0.49l6.092,5.381l-1.307-0.232l-3.615,1.691
		c-0.586,0.35-1.311,0.691-2.186,1.023l-4.615,2.156l0.367-0.781l-15.764,2.381l0.412-0.238c-3.689,0.488-7.752,0.945-12.025,1.295
		l-0.566,0.064l-1.074,0.062c-2.072,0.15-4.193,0.277-6.336,0.367l-6.896,0.402l-4.334-2.967l-2.969-0.34l6.25-5.57l19.074,1.172
		l-18.658-2.305l-0.867,0.041l3.086-1.732l-8.182,2.553l-0.459-0.283l-10.059,0.891c-1.941,0.199-3.992,0.381-6.16,0.543
		l-12.842,1.133l3.33-0.527l-25.148,0.312l1.328-0.135c-5.625,0.025-11.506-0.006-17.197-0.135l-0.836-0.004l-1.367-0.051
		c-2.688-0.074-5.322-0.172-7.85-0.293l-8.6-0.322l6.76-2.506l-1.764-0.506l27.416-3.432l15.15,2.488l-10.43-3.326l-1.047-0.047
		l23.91-2.355l-0.602-0.148l2.588-0.082c1.822-0.291,5.98-0.949,10.902-1.752l12.566-2.16l-3.404-0.334l-0.391,0.219l-1.357-0.627
		l-4.82,0.406l-1.535-0.512l-13.539,1.188l-3.014-0.406l-20.021,1.162l-1.443-0.518l-52.961,5.475l-32,1l-163.668,7l-29-8
		l75.544-15.236l-0.406-0.93l3.985-4.029c-10.584-5.08,49.877-3.805,49.877-3.805l129.176,9.578l0.365-0.434l23.123,1.207
		l1.297-0.469l15.086,0.676l2.65-0.383l8.402,1.955l2.025-0.41l0.373,0.076c0.068-0.059,0.172-0.115,0.293-0.168l0.215-0.133
		l-1.246-0.062l4.467,1.783l3.568,0.055l-0.41-0.137l8.135-1.545l3.705,2.113l3.566,0.053l-0.412-0.137l5.594,0.594l-0.02-0.014
		l-21.688-3.477l10.301-1.305l-13.514,0.461l-28.736-5.525l4.953-1.412l-5.094,0.15l-5.648,0.236l-13.455-2.32l4.107-1.02
		l-9.365-0.152l-26.137-4.924c-0.316-0.029-0.619-0.055-0.918-0.076l-0.119-0.119l-4.465-0.842l4.234,0.609l-0.006-0.008
		l-0.244-0.035l-2.281-2.369l17.576,1.541c4.914,0.369,10.676,0.855,16.975,1.488l7.564,0.664l-2.971-0.5l5.555,0.938l5.863,0.516
		l-3.289-0.244l7.029,0.992c3.273,0.439,6.625,0.895,9.969,1.412l0.119-0.121l4.965,0.918c4.791,0.801,9.592,1.684,14.312,2.662
		l5.045,0.938l-12.453-4.68l0.961,0.117l15.314-1.217l-17.652-0.135l-15.771-7.033l2.479-0.162l-0.514-3.156L460.455,592.331z"/>
	<g>
		<defs>
			<path id="SVGID_1_" d="M282.804,558.501c-6.63,0-12.003,5.373-12.003,11.998c0,6.629,5.373,12.002,12.003,11.998
				c6.628,0,12-5.369,12-11.998C294.804,563.874,289.432,558.501,282.804,558.501z"/>
		</defs>
		<clipPath id="SVGID_2_">
			<use xlink:href="#SVGID_1_"  overflow="visible"/>
		</clipPath>
		<polygon clip-path="url(#SVGID_2_)" fill="#4C3D2A" points="292.071,560.476 289.941,569.132 287.514,558.196 		"/>
		<polygon clip-path="url(#SVGID_2_)" fill="#5C4621" points="292.376,558.501 289.792,568.829 295.865,573.386 		"/>
		<polygon clip-path="url(#SVGID_2_)" fill="#6F561B" points="289.792,568.829 294.958,572.323 286.906,576.425 		"/>
		<polygon clip-path="url(#SVGID_2_)" fill="#5C4621" points="294.958,572.323 286.906,576.425 293.134,577.64 		"/>
		<polygon clip-path="url(#SVGID_2_)" fill="#4C3D2A" points="286.906,575.968 293.134,577.64 285.994,584.019 		"/>
		<polygon clip-path="url(#SVGID_2_)" fill="#80622D" points="286.906,575.476 286.402,581.993 277.379,575.306 		"/>
		<polygon clip-path="url(#SVGID_2_)" fill="#76531A" points="287.06,582.14 275.23,573.983 276.658,582.956 		"/>
		<polygon clip-path="url(#SVGID_2_)" fill="#4C3D2A" points="279.616,582.956 278.247,576.274 269.285,577.183 		"/>
		<polygon clip-path="url(#SVGID_2_)" fill="#6F561B" points="283.553,583.103 277.271,585.864 278.173,575.962 		"/>
		<polygon clip-path="url(#SVGID_2_)" fill="#80622D" points="278.97,576.868 274.201,573.325 283.712,569.624 		"/>
		<polygon clip-path="url(#SVGID_2_)" fill="#76531A" points="273.877,573.839 283.712,569.624 277.491,566.962 		"/>
		<polygon clip-path="url(#SVGID_2_)" fill="#4C3D2A" points="277.327,567.218 283.712,569.624 287.716,561.552 		"/>
		<polygon clip-path="url(#SVGID_2_)" fill="#6F561B" points="276.876,559.806 283.575,555.597 284.216,567.036 		"/>
		<polygon clip-path="url(#SVGID_2_)" fill="#4C3D2A" points="283.687,566.804 288.815,560.433 292.564,571.983 		"/>
		<polygon clip-path="url(#SVGID_2_)" fill="#80622D" points="283.395,564.618 290.777,568.575 278.272,575.702 		"/>
		<polygon clip-path="url(#SVGID_2_)" fill="#76531A" points="290.269,568.388 278.704,575.507 287.013,577.69 		"/>
		<polygon clip-path="url(#SVGID_2_)" fill="#5C4621" points="279.312,576.425 271.564,577.032 269.743,567.462 		"/>
		<polygon clip-path="url(#SVGID_2_)" fill="#6F561B" points="276.579,574.147 269.743,567.462 272.474,560.931 		"/>
		<polygon clip-path="url(#SVGID_2_)" fill="#987123" points="275.816,572.173 272.325,561.235 277.794,558.655 		"/>
		<polygon clip-path="url(#SVGID_2_)" fill="#A27D22" points="277.032,562.753 277.794,558.048 288.728,558.804 		"/>
		<polygon clip-path="url(#SVGID_2_)" fill="#6F561B" points="277.032,562.753 289.941,568.069 287.514,558.196 		"/>
		<polygon clip-path="url(#SVGID_2_)" fill="#4C3D2A" points="284.781,563.362 277.032,562.753 275.362,570.198 		"/>
	</g>
	<g>
		<defs>
			<path id="SVGID_3_" d="M145.571,589.571c1.381,8.697,9.541,14.648,18.226,13.299c8.683-1.35,14.608-9.49,13.223-18.191
				c-1.38-8.693-9.538-14.646-18.225-13.297C150.115,572.735,144.191,580.876,145.571,589.571z"/>
		</defs>
		<clipPath id="SVGID_4_">
			<use xlink:href="#SVGID_3_"  overflow="visible"/>
		</clipPath>
		<polygon clip-path="url(#SVGID_4_)" fill="#4C3D2A" points="146.229,577.013 158.019,578.038 144.191,583.454 		"/>
		<polygon clip-path="url(#SVGID_4_)" fill="#5C4621" points="143.58,577.013 157.649,578.3 162.359,569.403 		"/>
		<polygon clip-path="url(#SVGID_4_)" fill="#6F561B" points="157.649,578.3 161.153,570.812 168.207,580.538 		"/>
		<polygon clip-path="url(#SVGID_4_)" fill="#5C4621" points="161.153,570.812 168.207,580.538 168.502,572.118 		"/>
		<polygon clip-path="url(#SVGID_4_)" fill="#4C3D2A" points="167.606,580.628 168.502,572.118 178.349,580.187 		"/>
		<polygon clip-path="url(#SVGID_4_)" fill="#80622D" points="166.962,580.729 175.606,580.062 168.727,593.263 		"/>
		<polygon clip-path="url(#SVGID_4_)" fill="#76531A" points="175.664,579.169 167.438,596.349 178.898,592.647 		"/>
		<polygon clip-path="url(#SVGID_4_)" fill="#4C3D2A" points="178.284,588.769 169.81,591.925 172.868,603.497 		"/>
		<polygon clip-path="url(#SVGID_4_)" fill="#6F561B" points="177.657,583.573 182.584,591.253 169.419,592.089 		"/>
		<polygon clip-path="url(#SVGID_4_)" fill="#80622D" points="170.44,590.858 166.791,597.835 159.958,586.112 		"/>
		<polygon clip-path="url(#SVGID_4_)" fill="#76531A" points="167.53,598.153 159.958,586.112 157.766,594.815 		"/>
		<polygon clip-path="url(#SVGID_4_)" fill="#4C3D2A" points="158.138,594.976 159.958,586.112 148.547,582.503 		"/>
		<polygon clip-path="url(#SVGID_4_)" fill="#6F561B" points="148.515,597.077 141.604,589.149 156.464,585.978 		"/>
		<polygon clip-path="url(#SVGID_4_)" fill="#4C3D2A" points="156.271,586.718 146.851,581.29 161.206,574.019 		"/>
		<polygon clip-path="url(#SVGID_4_)" fill="#80622D" points="153.466,587.55 157.112,577.058 169.061,592.009 		"/>
		<polygon clip-path="url(#SVGID_4_)" fill="#76531A" points="156.976,577.763 168.712,591.481 169.843,580.142 		"/>
		<polygon clip-path="url(#SVGID_4_)" fill="#5C4621" points="169.788,590.499 172.196,600.536 160.038,604.878 		"/>
		<polygon clip-path="url(#SVGID_4_)" fill="#6F561B" points="167.371,594.546 160.038,604.878 150.907,602.626 		"/>
		<polygon clip-path="url(#SVGID_4_)" fill="#987123" points="164.942,595.948 151.338,602.757 146.819,596.112 		"/>
		<polygon clip-path="url(#SVGID_4_)" fill="#A27D22" points="152.347,596.274 146.021,596.235 144.733,581.735 		"/>
		<polygon clip-path="url(#SVGID_4_)" fill="#6F561B" points="152.347,596.274 156.624,578.255 144.191,583.454 		"/>
		<polygon clip-path="url(#SVGID_4_)" fill="#4C3D2A" points="151.531,585.985 152.347,596.274 162.448,596.946 		"/>
	</g>
	<g>
		<defs>
			<path id="SVGID_5_" d="M162.122,626.353l4.578-68.088l-10.857-2.412l12.062-64.531l-7.24-3.02l13.33-57.986l-6.595-1.885
				l11.876-56.738l-4.137-0.996l14.688-49.147l-5.64-1.512l18.838-45.988l-4.967-3.467l29.554-33.171l-2.411-6.029l24.725-21.714
				l-4.826-3.619l22.578-20.404l23.752,13.195l-7.127,19.876l-6.068,1.236l-5.275,25.069l-6.6,3.959l-3.957,27.709l-6.598,1.318
				l-4.069,42.631l-5.428-0.602l-1.059,50.334h-5.277l10.557,59.43l-7.839,1.207l7.838,46.24l-6.6,2.641l14.443,62.693l-6.527,0.641
				l15.834,59.377C267.679,602.601,213.581,654.063,162.122,626.353z"/>
		</defs>
		<clipPath id="SVGID_6_">
			<use xlink:href="#SVGID_5_"  overflow="visible"/>
		</clipPath>
		<g clip-path="url(#SVGID_6_)">
			<defs>
				<path id="SVGID_7_" d="M166.7,556.091l-4.578,70.262c0,0,50.02,29.684,105.825-24.418l-16.103-58.711
					C251.845,543.224,223.808,555.431,166.7,556.091z"/>
			</defs>
			<clipPath id="SVGID_8_">
				<use xlink:href="#SVGID_7_"  overflow="visible"/>
			</clipPath>
			<polygon clip-path="url(#SVGID_8_)" fill="#BA8148" points="165.688,557.298 159.36,634.985 195.706,644.204 			"/>
			<polygon clip-path="url(#SVGID_8_)" fill="#AC7644" points="194.048,639.854 165.163,555.774 193.082,562.323 			"/>
			<polygon clip-path="url(#SVGID_8_)" fill="#996D40" points="193.091,561.675 193.427,641.601 228.585,634.017 			"/>
			<polygon clip-path="url(#SVGID_8_)" fill="#7D5633" points="164.428,556.038 252.655,543.433 193.69,563.231 			"/>
			<polygon clip-path="url(#SVGID_8_)" fill="#92653E" points="226.186,629.14 193.082,562.669 252.655,543.433 			"/>
			<polygon clip-path="url(#SVGID_8_)" fill="#7D5633" points="252.655,543.433 275.003,604.833 223.069,635.167 			"/>
		</g>
		<g clip-path="url(#SVGID_6_)">
			<defs>
				<path id="SVGID_9_" d="M168.53,489.315l-12.017,66.199c0,0,34.048,9.506,103.474-12.357l-14.685-60.518
					C245.303,482.64,212.257,488.997,168.53,489.315z"/>
			</defs>
			<clipPath id="SVGID_10_">
				<use xlink:href="#SVGID_9_"  overflow="visible"/>
			</clipPath>
			<polygon clip-path="url(#SVGID_10_)" fill="#BA8148" points="164.614,492.179 154.82,562.761 190.854,572.634 			"/>
			<polygon clip-path="url(#SVGID_10_)" fill="#AC7644" points="189.386,568.604 164.157,490.769 191.858,497.866 			"/>
			<polygon clip-path="url(#SVGID_10_)" fill="#996D40" points="191.891,497.276 188.683,570.171 224.272,564.675 			"/>
			<polygon clip-path="url(#SVGID_10_)" fill="#7D5633" points="163.406,490.981 252.429,483.05 192.228,498.062 			"/>
			<polygon clip-path="url(#SVGID_10_)" fill="#92653E" points="222.084,560.132 191.84,498.183 252.429,483.05 			"/>
			<polygon clip-path="url(#SVGID_10_)" fill="#7D5633" points="245.634,481.37 272.106,539.938 218.69,565.497 			"/>
		</g>
		<g clip-path="url(#SVGID_6_)">
			<defs>
				<path id="SVGID_11_" d="M170.038,428.761l-12.535,59.779c0,0,33.648,16.398,99.635-9.014L243.6,431.151
					C200.388,431.151,185.212,432.175,170.038,428.761z"/>
			</defs>
			<clipPath id="SVGID_12_">
				<use xlink:href="#SVGID_11_"  overflow="visible"/>
			</clipPath>
			<polygon clip-path="url(#SVGID_12_)" fill="#BA8148" points="169.048,429.786 157.538,496.306 191.345,506.12 			"/>
			<polygon clip-path="url(#SVGID_12_)" fill="#AC7644" points="190.011,502.466 167.4,428.761 193.196,439.069 			"/>
			<polygon clip-path="url(#SVGID_12_)" fill="#996D40" points="193.235,438.542 189.335,503.851 222.905,499.86 			"/>
			<polygon clip-path="url(#SVGID_12_)" fill="#92653E" points="220.901,495.728 193.181,439.351 250.407,427.38 			"/>
			<polygon clip-path="url(#SVGID_12_)" fill="#7D5633" points="244.26,425.687 268.248,478.938 217.641,500.456 			"/>
			<polygon clip-path="url(#SVGID_12_)" fill="#7D5633" points="160.472,427.735 253.827,429.442 193.543,439.255 			"/>
		</g>
		<g clip-path="url(#SVGID_6_)">
			<defs>
				<path id="SVGID_13_" d="M173.995,369.714l-10.225,57.066c0,0,36.617,13.525,90.057,1.98l-9.898-59.379
					C229.413,372.353,197.087,377.3,173.995,369.714z"/>
			</defs>
			<clipPath id="SVGID_14_">
				<use xlink:href="#SVGID_13_"  overflow="visible"/>
			</clipPath>
			<polygon clip-path="url(#SVGID_14_)" fill="#BA8148" points="178.619,371.952 163.208,435.495 192.776,447.386 			"/>
			<polygon clip-path="url(#SVGID_14_)" fill="#AC7644" points="191.862,443.757 177.222,370.845 199.571,382.647 			"/>
			<polygon clip-path="url(#SVGID_14_)" fill="#996D40" points="199.646,382.14 191.148,445.05 221.568,443.571 			"/>
			<polygon clip-path="url(#SVGID_14_)" fill="#92653E" points="220.086,439.429 199.536,382.921 252.835,371.692 			"/>
			<polygon clip-path="url(#SVGID_14_)" fill="#7D5633" points="246.396,373.321 263.838,426.544 216.798,443.772 			"/>
			<polygon clip-path="url(#SVGID_14_)" fill="#7D5633" points="171.088,369.362 259.435,371.362 199.868,382.853 			"/>
		</g>
		<g clip-path="url(#SVGID_6_)">
			<defs>
				<path id="SVGID_15_" d="M182.571,318.583l-9.233,51.461c0,0,27.03,9.842,78.507-1.65l-2.32-48.002
					C235.023,322.87,206.983,323.532,182.571,318.583z"/>
			</defs>
			<clipPath id="SVGID_16_">
				<use xlink:href="#SVGID_15_"  overflow="visible"/>
			</clipPath>
			<polygon clip-path="url(#SVGID_16_)" fill="#BA8148" points="186.14,322.307 173.345,378.341 202.46,387.993 			"/>
			<polygon clip-path="url(#SVGID_16_)" fill="#AC7644" points="201.449,384.837 184.743,321.37 206.841,331.13 			"/>
			<polygon clip-path="url(#SVGID_16_)" fill="#996D40" points="206.899,330.685 200.798,385.989 230.277,383.907 			"/>
			<polygon clip-path="url(#SVGID_16_)" fill="#92653E" points="228.694,380.323 206.815,331.368 258.173,320.161 			"/>
			<polygon clip-path="url(#SVGID_16_)" fill="#7D5633" points="251.977,321.752 270.726,367.907 225.653,384.21 			"/>
			<polygon clip-path="url(#SVGID_16_)" fill="#7D5633" points="178.733,320.231 264.563,319.702 207.135,331.304 			"/>
		</g>
		<g clip-path="url(#SVGID_6_)">
			<defs>
				<path id="SVGID_17_" d="M202.637,273.87l-19.698,45.898c0,0,24.434,6.741,70.889,0.795l2.968-43.213
					C243.765,278.358,217.239,279.653,202.637,273.87z"/>
			</defs>
			<clipPath id="SVGID_18_">
				<use xlink:href="#SVGID_17_"  overflow="visible"/>
			</clipPath>
			<polygon clip-path="url(#SVGID_18_)" fill="#BA8148" points="198.875,276.899 183.27,325.075 208.307,335.892 			"/>
			<polygon clip-path="url(#SVGID_18_)" fill="#AC7644" points="207.649,333.038 196.428,271.742 216.529,286.313 			"/>
			<polygon clip-path="url(#SVGID_18_)" fill="#996D40" points="216.616,285.928 206.985,333.995 233.242,334.544 			"/>
			<polygon clip-path="url(#SVGID_18_)" fill="#92653E" points="232.118,331.269 216.491,286.52 262.819,280.815 			"/>
			<polygon clip-path="url(#SVGID_18_)" fill="#7D5633" points="257.21,281.715 270.28,323.75 229.128,334.435 			"/>
			<polygon clip-path="url(#SVGID_18_)" fill="#7D5633" points="190.162,268.442 271.639,279.987 216.778,286.489 			"/>
		</g>
		<g clip-path="url(#SVGID_6_)">
			<defs>
				<path id="SVGID_19_" d="M228.097,237.435l-31.469,33.509c0,0,14.314,14.322,65.501,6.092l5.22-28.385
					C251.845,247.003,241.173,243.38,228.097,237.435z"/>
			</defs>
			<clipPath id="SVGID_20_">
				<use xlink:href="#SVGID_19_"  overflow="visible"/>
			</clipPath>
			<polygon clip-path="url(#SVGID_20_)" fill="#BA8148" points="226.958,236.915 192.468,273.721 218.902,286.346 			"/>
			<polygon clip-path="url(#SVGID_20_)" fill="#AC7644" points="218.507,283.915 225.071,232.422 230.161,245.587 			"/>
			<polygon clip-path="url(#SVGID_20_)" fill="#996D40" points="230.269,245.273 217.819,284.663 242.062,287.131 			"/>
			<polygon clip-path="url(#SVGID_20_)" fill="#92653E" points="241.261,284.307 230.108,245.76 271.659,251.749 			"/>
			<polygon clip-path="url(#SVGID_20_)" fill="#7D5633" points="266.405,252.072 277.109,280.956 238.265,286.723 			"/>
			<polygon clip-path="url(#SVGID_20_)" fill="#7D5633" points="219.587,229.663 279.226,253.268 230.452,246.227 			"/>
		</g>
		<g clip-path="url(#SVGID_6_)">
			<defs>
				<path id="SVGID_21_" d="M250.197,209.067l-27.71,22.688c0,0,8.137,15.38,48.936,18.394l10.441-29.206
					C268.341,219.622,259.435,214.345,250.197,209.067z"/>
			</defs>
			<clipPath id="SVGID_22_">
				<use xlink:href="#SVGID_21_"  overflow="visible"/>
			</clipPath>
			<polygon clip-path="url(#SVGID_22_)" fill="#BA8148" points="252.396,208.057 218.752,233.352 236.506,249.667 			"/>
			<polygon clip-path="url(#SVGID_22_)" fill="#AC7644" points="236.68,247.46 251.837,203.75 253.14,216.276 			"/>
			<polygon clip-path="url(#SVGID_22_)" fill="#996D40" points="253.286,216.023 236.007,247.979 254.077,254.973 			"/>
			<polygon clip-path="url(#SVGID_22_)" fill="#92653E" points="254.021,252.349 253.067,216.414 285.608,223.052 			"/>
			<polygon clip-path="url(#SVGID_22_)" fill="#7D5633" points="281.524,222.287 282.116,256.569 251.252,253.857 			"/>
			<polygon clip-path="url(#SVGID_22_)" fill="#7D5633" points="248.222,199.812 291.102,225.89 253.275,216.468 			"/>
		</g>
		<g clip-path="url(#SVGID_6_)">
			<defs>
				<path id="SVGID_23_" d="M268.202,181.756l-22.952,24.672c0,0,23.091,19.462,41.565,12.534l6.327-26.087
					C282.597,191.811,275.526,186.782,268.202,181.756z"/>
			</defs>
			<clipPath id="SVGID_24_">
				<use xlink:href="#SVGID_23_"  overflow="visible"/>
			</clipPath>
			<polygon clip-path="url(#SVGID_24_)" fill="#BA8148" points="269.882,180.728 244.466,206.129 258.729,221.839 			"/>
			<polygon clip-path="url(#SVGID_24_)" fill="#AC7644" points="258.798,219.669 269.322,176.516 270.693,188.785 			"/>
			<polygon clip-path="url(#SVGID_24_)" fill="#996D40" points="270.798,188.534 258.29,220.192 272.53,226.749 			"/>
			<polygon clip-path="url(#SVGID_24_)" fill="#92653E" points="272.409,224.173 270.644,188.922 296.111,194.883 			"/>
			<polygon clip-path="url(#SVGID_24_)" fill="#7D5633" points="292.917,194.199 294.359,227.838 270.302,225.7 			"/>
			<polygon clip-path="url(#SVGID_24_)" fill="#7D5633" points="266.405,172.708 300.458,197.576 270.806,188.969 			"/>
		</g>
	</g>
	<g>
		<defs>
			<path id="SVGID_25_" d="M282.199,193.001c-8.435,0-15.27,6.836-15.27,15.265c0,8.432,6.835,15.271,15.27,15.267
				c8.433,0,15.267-6.835,15.267-15.267C297.466,199.837,290.632,193.001,282.199,193.001z"/>
		</defs>
		<clipPath id="SVGID_26_">
			<use xlink:href="#SVGID_25_"  overflow="visible"/>
		</clipPath>
		<polygon clip-path="url(#SVGID_26_)" fill="#4C3D2A" points="293.99,195.512 291.282,206.528 288.191,192.613 		"/>
		<polygon clip-path="url(#SVGID_26_)" fill="#5C4621" points="294.38,193.001 291.09,206.139 298.818,211.94 		"/>
		<polygon clip-path="url(#SVGID_26_)" fill="#6F561B" points="291.09,206.139 297.664,210.587 287.419,215.802 		"/>
		<polygon clip-path="url(#SVGID_26_)" fill="#5C4621" points="297.664,210.587 287.419,215.802 295.345,217.352 		"/>
		<polygon clip-path="url(#SVGID_26_)" fill="#4C3D2A" points="287.419,215.224 295.345,217.352 286.258,225.467 		"/>
		<polygon clip-path="url(#SVGID_26_)" fill="#80622D" points="287.419,214.597 286.777,222.889 275.298,214.383 		"/>
		<polygon clip-path="url(#SVGID_26_)" fill="#76531A" points="287.614,223.077 272.564,212.698 274.381,224.115 		"/>
		<polygon clip-path="url(#SVGID_26_)" fill="#4C3D2A" points="278.144,224.115 276.403,215.612 265.001,216.767 		"/>
		<polygon clip-path="url(#SVGID_26_)" fill="#6F561B" points="283.152,224.301 275.158,227.816 276.308,215.217 		"/>
		<polygon clip-path="url(#SVGID_26_)" fill="#80622D" points="277.321,216.368 271.255,211.861 283.356,207.151 		"/>
		<polygon clip-path="url(#SVGID_26_)" fill="#76531A" points="270.843,212.515 283.356,207.151 275.438,203.764 		"/>
		<polygon clip-path="url(#SVGID_26_)" fill="#4C3D2A" points="275.233,204.092 283.356,207.151 288.45,196.882 		"/>
		<polygon clip-path="url(#SVGID_26_)" fill="#6F561B" points="274.659,194.661 283.182,189.305 283.998,203.861 		"/>
		<polygon clip-path="url(#SVGID_26_)" fill="#4C3D2A" points="283.323,203.564 289.849,195.458 294.619,210.154 		"/>
		<polygon clip-path="url(#SVGID_26_)" fill="#80622D" points="282.95,200.782 292.345,205.817 276.435,214.888 		"/>
		<polygon clip-path="url(#SVGID_26_)" fill="#76531A" points="291.696,205.581 276.985,214.637 287.553,217.417 		"/>
		<polygon clip-path="url(#SVGID_26_)" fill="#5C4621" points="277.757,215.802 267.899,216.578 265.581,204.404 		"/>
		<polygon clip-path="url(#SVGID_26_)" fill="#6F561B" points="274.279,212.908 265.581,204.404 269.058,196.091 		"/>
		<polygon clip-path="url(#SVGID_26_)" fill="#987123" points="273.31,210.394 268.868,196.48 275.823,193.197 		"/>
		<polygon clip-path="url(#SVGID_26_)" fill="#A27D22" points="274.856,198.411 275.823,192.422 289.737,193.385 		"/>
		<polygon clip-path="url(#SVGID_26_)" fill="#6F561B" points="274.856,198.411 291.282,205.173 288.191,192.613 		"/>
		<polygon clip-path="url(#SVGID_26_)" fill="#4C3D2A" points="284.717,199.186 274.856,198.411 272.731,207.881 		"/>
	</g>
	<g>
		<defs>
			<path id="SVGID_27_" d="M264.604,171.008c-8.432,0-15.266,6.837-15.266,15.268c0,8.432,6.834,15.269,15.266,15.268
				c8.436,0,15.269-6.837,15.269-15.268S273.04,171.008,264.604,171.008z"/>
		</defs>
		<clipPath id="SVGID_28_">
			<use xlink:href="#SVGID_27_"  overflow="visible"/>
		</clipPath>
		<polygon clip-path="url(#SVGID_28_)" fill="#4C3D2A" points="276.398,173.521 273.69,184.535 270.598,170.621 		"/>
		<polygon clip-path="url(#SVGID_28_)" fill="#5C4621" points="276.784,171.008 273.495,184.149 281.226,189.95 		"/>
		<polygon clip-path="url(#SVGID_28_)" fill="#6F561B" points="273.495,184.149 280.066,188.595 269.827,193.811 		"/>
		<polygon clip-path="url(#SVGID_28_)" fill="#5C4621" points="280.066,188.595 269.827,193.811 277.75,195.361 		"/>
		<polygon clip-path="url(#SVGID_28_)" fill="#4C3D2A" points="269.827,193.233 277.75,195.361 268.669,203.478 		"/>
		<polygon clip-path="url(#SVGID_28_)" fill="#80622D" points="269.827,192.604 269.187,200.897 257.701,192.391 		"/>
		<polygon clip-path="url(#SVGID_28_)" fill="#76531A" points="270.021,201.085 254.974,190.707 256.788,202.122 		"/>
		<polygon clip-path="url(#SVGID_28_)" fill="#4C3D2A" points="260.552,202.122 258.812,193.62 247.407,194.779 		"/>
		<polygon clip-path="url(#SVGID_28_)" fill="#6F561B" points="265.56,202.308 257.565,205.822 258.718,193.226 		"/>
		<polygon clip-path="url(#SVGID_28_)" fill="#80622D" points="259.728,194.376 253.661,189.869 265.764,185.157 		"/>
		<polygon clip-path="url(#SVGID_28_)" fill="#76531A" points="253.249,190.524 265.764,185.157 257.849,181.774 		"/>
		<polygon clip-path="url(#SVGID_28_)" fill="#4C3D2A" points="257.64,182.099 265.764,185.157 270.859,174.892 		"/>
		<polygon clip-path="url(#SVGID_28_)" fill="#6F561B" points="257.069,172.669 265.588,167.316 266.405,181.87 		"/>
		<polygon clip-path="url(#SVGID_28_)" fill="#4C3D2A" points="265.731,181.574 272.257,173.465 277.026,188.161 		"/>
		<polygon clip-path="url(#SVGID_28_)" fill="#80622D" points="265.358,178.792 274.753,183.828 258.841,192.898 		"/>
		<polygon clip-path="url(#SVGID_28_)" fill="#76531A" points="274.102,183.59 259.396,192.646 269.958,195.426 		"/>
		<polygon clip-path="url(#SVGID_28_)" fill="#5C4621" points="260.163,193.811 250.306,194.584 247.989,182.411 		"/>
		<polygon clip-path="url(#SVGID_28_)" fill="#6F561B" points="256.687,190.914 247.989,182.411 251.464,174.1 		"/>
		<polygon clip-path="url(#SVGID_28_)" fill="#987123" points="255.719,188.403 251.276,174.489 258.23,171.204 		"/>
		<polygon clip-path="url(#SVGID_28_)" fill="#A27D22" points="257.261,176.42 258.23,170.43 272.145,171.392 		"/>
		<polygon clip-path="url(#SVGID_28_)" fill="#6F561B" points="257.261,176.42 273.69,183.181 270.598,170.621 		"/>
		<polygon clip-path="url(#SVGID_28_)" fill="#4C3D2A" points="267.122,177.194 257.261,176.42 255.138,185.888 		"/>
	</g>
	<g>
		<defs>
			<path id="SVGID_29_" d="M288.357,165.73c-8.437,0-15.269,6.837-15.269,15.267c0,8.432,6.832,15.271,15.269,15.267
				c8.431,0,15.267-6.835,15.267-15.267C303.625,172.567,296.789,165.73,288.357,165.73z"/>
		</defs>
		<clipPath id="SVGID_30_">
			<use xlink:href="#SVGID_29_"  overflow="visible"/>
		</clipPath>
		<polygon clip-path="url(#SVGID_30_)" fill="#4C3D2A" points="300.146,168.246 297.443,179.258 294.351,165.343 		"/>
		<polygon clip-path="url(#SVGID_30_)" fill="#5C4621" points="300.539,165.73 297.248,178.872 304.974,184.671 		"/>
		<polygon clip-path="url(#SVGID_30_)" fill="#6F561B" points="297.248,178.872 303.818,183.317 293.578,188.534 		"/>
		<polygon clip-path="url(#SVGID_30_)" fill="#5C4621" points="303.818,183.317 293.578,188.534 301.501,190.082 		"/>
		<polygon clip-path="url(#SVGID_30_)" fill="#4C3D2A" points="293.578,187.957 301.501,190.082 292.415,198.2 		"/>
		<polygon clip-path="url(#SVGID_30_)" fill="#80622D" points="293.578,187.325 292.935,195.621 281.452,187.112 		"/>
		<polygon clip-path="url(#SVGID_30_)" fill="#76531A" points="293.773,195.807 278.72,185.429 280.538,196.844 		"/>
		<polygon clip-path="url(#SVGID_30_)" fill="#4C3D2A" points="284.303,196.844 282.562,188.341 271.159,189.5 		"/>
		<polygon clip-path="url(#SVGID_30_)" fill="#6F561B" points="289.312,197.031 281.316,200.543 282.464,187.947 		"/>
		<polygon clip-path="url(#SVGID_30_)" fill="#80622D" points="283.478,189.1 277.413,184.59 289.516,179.879 		"/>
		<polygon clip-path="url(#SVGID_30_)" fill="#76531A" points="276.999,185.248 289.516,179.879 281.599,176.495 		"/>
		<polygon clip-path="url(#SVGID_30_)" fill="#4C3D2A" points="281.392,176.822 289.516,179.879 294.611,169.616 		"/>
		<polygon clip-path="url(#SVGID_30_)" fill="#6F561B" points="280.815,167.391 289.339,162.039 290.153,176.591 		"/>
		<polygon clip-path="url(#SVGID_30_)" fill="#4C3D2A" points="289.482,176.296 296.005,168.187 300.777,182.882 		"/>
		<polygon clip-path="url(#SVGID_30_)" fill="#80622D" points="289.111,173.513 298.503,178.549 282.595,187.62 		"/>
		<polygon clip-path="url(#SVGID_30_)" fill="#76531A" points="297.855,178.312 283.147,187.368 293.708,190.149 		"/>
		<polygon clip-path="url(#SVGID_30_)" fill="#5C4621" points="283.915,188.534 274.06,189.306 271.741,177.131 		"/>
		<polygon clip-path="url(#SVGID_30_)" fill="#6F561B" points="280.436,185.637 271.741,177.131 275.216,168.821 		"/>
		<polygon clip-path="url(#SVGID_30_)" fill="#987123" points="279.47,183.125 275.029,169.211 281.981,165.926 		"/>
		<polygon clip-path="url(#SVGID_30_)" fill="#A27D22" points="281.017,171.142 281.981,165.152 295.896,166.116 		"/>
		<polygon clip-path="url(#SVGID_30_)" fill="#6F561B" points="281.017,171.142 297.443,177.904 294.351,165.343 		"/>
		<polygon clip-path="url(#SVGID_30_)" fill="#4C3D2A" points="290.871,171.916 281.017,171.142 278.893,180.611 		"/>
	</g>
	<g>
		<defs>
			<path id="SVGID_31_" d="M292.622,135.005c0,0-15.438-103.354-82.444-129.276c0,0-58.941-14.249-87.142,2.197l11.967,19.221
				l11.094-9.49l-7.773,15.617L176.04,58.64l15.326-19.515l-7.998,27.332l31.395,17.972L232.62,58.9l-13.131,28.314
				c0,0,60.566,49.574,62.887,55.277L292.622,135.005z"/>
		</defs>
		<clipPath id="SVGID_32_">
			<use xlink:href="#SVGID_31_"  overflow="visible"/>
		</clipPath>
		<path clip-path="url(#SVGID_32_)" fill="#7CA83A" d="M284.016,94.765l11.947,41.653c0,0-13.94,10.646-14.854,9.084
			C280.19,143.934,284.016,94.765,284.016,94.765z"/>
		<polygon clip-path="url(#SVGID_32_)" fill="#759F34" points="281.269,140.454 221.493,88.061 283.956,101.43 		"/>
		<polygon clip-path="url(#SVGID_32_)" fill="#85B241" points="284.961,101.853 262.657,48.354 270.561,99.125 		"/>
		<polygon clip-path="url(#SVGID_32_)" fill="#78A236" points="271.637,99.379 217.491,87.749 263.554,54.634 		"/>
		<polygon clip-path="url(#SVGID_32_)" fill="#96C24F" points="267.046,57.778 236.952,16.442 236.257,32.09 		"/>
		<polygon clip-path="url(#SVGID_32_)" fill="#85B241" points="263.554,54.634 229.944,53.342 236.257,32.09 		"/>
		<polygon clip-path="url(#SVGID_32_)" fill="#A0C959" points="236.257,32.09 236.859,18.763 193.913,-2.608 		"/>
		<polygon clip-path="url(#SVGID_32_)" fill="#8EB949" points="236.257,32.09 198.754,0.616 230.157,52.84 		"/>
		<polygon clip-path="url(#SVGID_32_)" fill="#7DA83A" points="230.157,52.84 182.155,66.534 219.489,87.214 		"/>
		<polygon clip-path="url(#SVGID_32_)" fill="#85B241" points="230.157,52.84 199.149,1.077 216.89,56.986 		"/>
		<polygon clip-path="url(#SVGID_32_)" fill="#7DA83A" points="230.157,52.84 263.554,54.634 217.491,87.749 		"/>
		<polygon clip-path="url(#SVGID_32_)" fill="#82AD3D" points="216.89,56.986 184.373,66.883 200.52,3.428 		"/>
		<polygon clip-path="url(#SVGID_32_)" fill="#85B241" points="201.154,1.923 165.495,-1.023 197.241,16.803 		"/>
		<polygon clip-path="url(#SVGID_32_)" fill="#82AD3D" points="197.241,16.803 168.395,0.497 143.929,1.096 		"/>
		<polygon clip-path="url(#SVGID_32_)" fill="#7DA83A" points="197.241,16.803 191.366,39.125 143.929,1.096 		"/>
		<polygon clip-path="url(#SVGID_32_)" fill="#78A236" points="191.366,39.125 175.864,59.75 143.929,1.096 		"/>
		<polygon clip-path="url(#SVGID_32_)" fill="#759F34" points="143.929,1.096 121.603,6.435 135.003,27.147 		"/>
		<polygon clip-path="url(#SVGID_32_)" fill="#6F9531" points="143.929,1.096 133.56,31.265 175.864,59.75 		"/>
	</g>
	<g>
		<defs>
			<path id="SVGID_33_" d="M298.107,165.522c0,0,28.979,47.311,28.232,52.698l23.516-15.801l-16.109,22.967l42.342,60.47
				l20.564-6.193l-11.422,17.156l15.053,28.901l15.32-5.629l-5.691,16.979c0,0,36.971,39.371,37.494,56.57l24.746,7.949
				c0,0,20.984-113.29-92.783-208.54l-20.816-20.763C358.552,172.287,311.224,164.109,298.107,165.522z"/>
		</defs>
		<clipPath id="SVGID_34_">
			<use xlink:href="#SVGID_33_"  overflow="visible"/>
		</clipPath>
		<polygon clip-path="url(#SVGID_34_)" fill="#ABD766" points="351.9,200.87 376.087,285.856 333.746,225.386 		"/>
		<polygon clip-path="url(#SVGID_34_)" fill="#9DC958" points="376.087,285.856 351.9,200.87 398.701,278.116 		"/>
		<polygon clip-path="url(#SVGID_34_)" fill="#9DC958" points="326.339,218.22 351.9,200.87 298.107,165.522 		"/>
		<polygon clip-path="url(#SVGID_34_)" fill="#ABD766" points="398.701,278.116 400.283,325.72 383.576,297.879 		"/>
		<polygon clip-path="url(#SVGID_34_)" fill="#8EB949" points="400.283,325.72 398.701,278.116 418.179,319.37 		"/>
		<polygon clip-path="url(#SVGID_34_)" fill="#8EB949" points="298.107,165.522 351.9,200.87 353.806,169.259 		"/>
		<polygon clip-path="url(#SVGID_34_)" fill="#82B13E" points="354.46,162.996 351.9,200.87 411.953,224.491 		"/>
		<polyline clip-path="url(#SVGID_34_)" fill="#8EB949" points="352.427,202.225 398.701,278.116 409.814,223.669 351.9,200.87 		
			"/>
		<polygon clip-path="url(#SVGID_34_)" fill="#7CA83A" points="410.509,219.338 403.794,251.465 450.037,278.338 		"/>
		<polygon clip-path="url(#SVGID_34_)" fill="#82AD3D" points="398.701,278.116 403.794,251.465 451.679,278.983 		"/>
		<polygon clip-path="url(#SVGID_34_)" fill="#7CA83A" points="432.783,278.473 448.587,278.155 472.304,329.028 		"/>
		<polygon clip-path="url(#SVGID_34_)" fill="#88B543" points="417.212,318.59 409.912,337.069 455.097,403.429 		"/>
		<polygon clip-path="url(#SVGID_34_)" fill="#89B744" points="398.701,278.116 432.794,278.426 417.212,318.59 		"/>
		<polygon clip-path="url(#SVGID_34_)" fill="#82AD3D" points="415.603,320.09 432.794,278.426 464.472,317.928 		"/>
		<polygon clip-path="url(#SVGID_34_)" fill="#82AD3D" points="416.775,318.637 464.472,317.928 451.578,395.401 		"/>
		<polygon clip-path="url(#SVGID_34_)" fill="#79A437" points="451.578,395.401 465.439,306.319 477.679,403.651 		"/>
	</g>
	<g>
		<defs>
			<path id="SVGID_35_" d="M287.188,150.108c0,0-143.797-31.716-217.218,44.726c0,0-53.439,71.579-48.695,117.601l32.122-6.256
				l-5.801-19.635l15.748,18.299l55.368-37.571l-16.366-30.369l30.888,24.533l41.99-32.857l-22.701-36.809l29.121,31.9
				c0,0,100.435-55.863,109.234-56.069L287.188,150.108z"/>
		</defs>
		<clipPath id="SVGID_36_">
			<use xlink:href="#SVGID_35_"  overflow="visible"/>
		</clipPath>
		<path clip-path="url(#SVGID_36_)" fill="#7CA83A" d="M229.665,141.233l61.337,5.126c0,0,5.626,24.033,3.046,24.462
			C291.46,171.25,229.665,141.233,229.665,141.233z"/>
		<polygon clip-path="url(#SVGID_36_)" fill="#739B2D" points="287.569,168.045 183.933,221.417 238.313,144.688 		"/>
		<polygon clip-path="url(#SVGID_36_)" fill="#85B241" points="239.456,143.565 156.558,146.275 227.387,161.428 		"/>
		<polygon clip-path="url(#SVGID_36_)" fill="#78A236" points="228.351,160.118 181.159,226.604 165.267,148.261 		"/>
		<polygon clip-path="url(#SVGID_36_)" fill="#96C24F" points="171.435,145.179 99.769,164.47 119.743,173.332 		"/>
		<polygon clip-path="url(#SVGID_36_)" fill="#85B241" points="165.267,148.261 143.7,192.532 119.743,173.332 		"/>
		<polygon clip-path="url(#SVGID_36_)" fill="#A0C959" points="119.743,173.332 102.742,165.769 49.478,212.357 		"/>
		<polygon clip-path="url(#SVGID_36_)" fill="#8EB949" points="119.743,173.332 56.546,207.517 143.169,191.999 		"/>
		<polygon clip-path="url(#SVGID_36_)" fill="#7DA83A" points="143.169,191.999 132.611,263.096 181.644,223.669 		"/>
		<polygon clip-path="url(#SVGID_36_)" fill="#85B241" points="143.169,191.999 57.381,207.221 140.727,211.822 		"/>
		<polygon clip-path="url(#SVGID_36_)" fill="#7DA83A" points="143.169,191.999 165.267,148.261 181.159,226.604 		"/>
		<polygon clip-path="url(#SVGID_36_)" fill="#82AD3D" points="140.727,211.822 134.38,260.313 61.252,206.582 		"/>
		<polygon clip-path="url(#SVGID_36_)" fill="#85B241" points="59.671,204.972 34.731,251.15 76.744,217.741 		"/>
		<polygon clip-path="url(#SVGID_36_)" fill="#82AD3D" points="76.744,217.741 38.43,248.038 24.734,281.051 		"/>
		<polygon clip-path="url(#SVGID_36_)" fill="#7DA83A" points="76.744,217.741 102.346,236.902 24.734,281.051 		"/>
		<polygon clip-path="url(#SVGID_36_)" fill="#78A236" points="102.346,236.902 120.051,268.067 24.734,281.051 		"/>
		<polygon clip-path="url(#SVGID_36_)" fill="#759F34" points="24.734,281.051 18.485,313.602 53.397,306.178 		"/>
		<polygon clip-path="url(#SVGID_36_)" fill="#6F9531" points="24.734,281.051 57.907,310.192 120.051,268.067 		"/>
	</g>
	<g>
		<defs>
			<path id="SVGID_37_" d="M277.797,147.381c0,0,65.972-108.199,153.06-105.56c0,0,72.57,11.878,96.322,43.545l-22.432,15.832
				l-7.918-15.832l1.32,21.11l-54.1,10.555l-7.914-29.027l-3.961,34.308l-43.543,5.276l-7.916-36.946l1.318,37.829
				c0,0-91.042,26.828-96.323,32.105L277.797,147.381z"/>
		</defs>
		<clipPath id="SVGID_38_">
			<use xlink:href="#SVGID_37_"  overflow="visible"/>
		</clipPath>
		<path clip-path="url(#SVGID_38_)" fill="#7CA83A" d="M306.386,106.478l-32.988,40.904c0,0,10.558,18.472,12.313,17.152
			C287.474,163.216,306.386,106.478,306.386,106.478z"/>
		<polygon clip-path="url(#SVGID_38_)" fill="#759F34" points="287.914,158.818 379.398,128.471 303.306,113.954 		"/>
		<polygon clip-path="url(#SVGID_38_)" fill="#85B241" points="301.986,113.953 352.128,64.695 319.363,117.693 		"/>
		<polygon clip-path="url(#SVGID_38_)" fill="#78A236" points="318.041,117.472 384.015,130.007 348.171,71.292 		"/>
		<polygon clip-path="url(#SVGID_38_)" fill="#96C24F" points="342.779,73.16 395.89,41.164 389.294,58.974 		"/>
		<polygon clip-path="url(#SVGID_38_)" fill="#85B241" points="348.171,71.292 386.324,85.695 389.294,58.974 		"/>
		<polygon clip-path="url(#SVGID_38_)" fill="#A0C959" points="389.294,58.974 394.9,43.803 452.958,40.174 		"/>
		<polygon clip-path="url(#SVGID_38_)" fill="#8EB949" points="389.294,58.974 446.029,41.493 386.324,85.035 		"/>
		<polygon clip-path="url(#SVGID_38_)" fill="#7DA83A" points="386.324,85.035 433.496,122.97 382.035,128.471 		"/>
		<polygon clip-path="url(#SVGID_38_)" fill="#85B241" points="386.324,85.035 445.371,41.822 399.189,95.92 		"/>
		<polygon clip-path="url(#SVGID_38_)" fill="#7DA83A" points="386.324,85.035 348.171,71.292 384.015,130.007 		"/>
		<polygon clip-path="url(#SVGID_38_)" fill="#82AD3D" points="399.189,95.92 430.857,122.312 442.732,43.803 		"/>
		<polygon clip-path="url(#SVGID_38_)" fill="#85B241" points="442.732,41.822 483.964,55.346 440.093,60.294 		"/>
		<polygon clip-path="url(#SVGID_38_)" fill="#82AD3D" points="440.093,60.294 480.007,55.678 507.054,67.882 		"/>
		<polygon clip-path="url(#SVGID_38_)" fill="#7DA83A" points="440.093,60.294 436.136,88.004 507.054,67.882 		"/>
		<polygon clip-path="url(#SVGID_38_)" fill="#78A236" points="436.136,88.004 443.724,118.35 507.054,67.882 		"/>
		<polygon clip-path="url(#SVGID_38_)" fill="#759F34" points="507.054,67.882 529.486,84.375 504.748,101.199 		"/>
		<polygon clip-path="url(#SVGID_38_)" fill="#6F9531" points="507.054,67.882 504.419,106.477 443.724,118.35 		"/>
	</g>
	<g>
		<defs>
			<path id="SVGID_39_" d="M293.041,147.533c0,0-99.155-105.249-195.761-81.793c0,0-78.224,30.357-97.28,71.31l28.772,12.396
				l5.111-19.544l3.5,23.885l62.888-0.964l1.998-34.277l12.503,37.372l49.856-4.367l0.134-43.112l7.439,42.542
				c0,0,107.971,8.501,115.104,13.154L293.041,147.533z"/>
		</defs>
		<clipPath id="SVGID_40_">
			<use xlink:href="#SVGID_39_"  overflow="visible"/>
		</clipPath>
		<path clip-path="url(#SVGID_40_)" fill="#7CA83A" d="M251.483,108.604l46.467,37.894c0,0-7.435,23.107-9.706,22.054
			C285.962,167.492,251.483,108.604,251.483,108.604z"/>
		<polygon clip-path="url(#SVGID_40_)" fill="#759F34" points="284.442,162.686 175.147,150.361 256.679,116.224 		"/>
		<polygon clip-path="url(#SVGID_40_)" fill="#85B241" points="258.151,115.915 190.567,72.732 239.64,124.184 		"/>
		<polygon clip-path="url(#SVGID_40_)" fill="#78A236" points="241.062,123.62 170.354,153.165 196.542,79.164 		"/>
		<polygon clip-path="url(#SVGID_40_)" fill="#96C24F" points="202.997,79.98 136.165,56.77 147.724,75.102 		"/>
		<polygon clip-path="url(#SVGID_40_)" fill="#85B241" points="196.542,79.164 157.337,104.235 147.724,75.102 		"/>
		<polygon clip-path="url(#SVGID_40_)" fill="#A0C959" points="147.724,75.102 137.892,59.482 72.214,69.11 		"/>
		<polygon clip-path="url(#SVGID_40_)" fill="#8EB949" points="147.724,75.102 80.262,68.952 157.18,103.499 		"/>
		<polygon clip-path="url(#SVGID_40_)" fill="#7DA83A" points="157.18,103.499 113.451,156.961 172.202,150.979 		"/>
		<polygon clip-path="url(#SVGID_40_)" fill="#85B241" points="157.18,103.499 81.075,69.165 145.384,118.682 		"/>
		<polygon clip-path="url(#SVGID_40_)" fill="#7DA83A" points="157.18,103.499 196.542,79.164 170.354,153.165 		"/>
		<polygon clip-path="url(#SVGID_40_)" fill="#82AD3D" points="145.384,118.682 116.247,155.611 84.487,70.753 		"/>
		<polygon clip-path="url(#SVGID_40_)" fill="#85B241" points="84.021,68.544 41.174,93.356 91.325,88.543 		"/>
		<polygon clip-path="url(#SVGID_40_)" fill="#82AD3D" points="91.325,88.543 45.671,92.788 18.346,112.795 		"/>
		<polygon clip-path="url(#SVGID_40_)" fill="#7DA83A" points="91.325,88.543 102.27,118.544 18.346,112.795 		"/>
		<polygon clip-path="url(#SVGID_40_)" fill="#78A236" points="102.27,118.544 100.949,154.219 18.346,112.795 		"/>
		<polygon clip-path="url(#SVGID_40_)" fill="#759F34" points="18.346,112.795 -2.808,136.491 28.772,149.445 		"/>
		<polygon clip-path="url(#SVGID_40_)" fill="#6F9531" points="18.346,112.795 30.384,155.26 100.949,154.219 		"/>
	</g>
	<g>
		<defs>
			<path id="SVGID_41_" d="M284.275,149.235c0,0,139.605-34.812,227.824,39.327c0,0,67.125,69.766,70.738,115.536l-33.631-5.463
				l2.285-19.611l-12.584,18.52l-62.852-35.989l10.992-30.506l-26.744,25.054l-48.463-31.626l16.221-37.041l-23.619,32.317
				c0,0-111.764-53.078-120.705-53.08L284.275,149.235z"/>
		</defs>
		<clipPath id="SVGID_42_">
			<use xlink:href="#SVGID_41_"  overflow="visible"/>
		</clipPath>
		<path clip-path="url(#SVGID_42_)" fill="#7CA83A" d="M340.824,139.087l-61.094,6.515c0,0-1.293,23.973,1.391,24.337
			C283.813,170.302,340.824,139.087,340.824,139.087z"/>
		<polygon clip-path="url(#SVGID_42_)" fill="#759F34" points="287.169,167.036 401.716,217.574 332.707,142.717 		"/>
		<polygon clip-path="url(#SVGID_42_)" fill="#85B241" points="331.343,141.625 415.669,142.389 346.816,159.069 		"/>
		<polygon clip-path="url(#SVGID_42_)" fill="#78A236" points="345.601,157.796 405.472,222.663 407.554,143.295 		"/>
		<polygon clip-path="url(#SVGID_42_)" fill="#96C24F" points="400.423,141.659 476.417,159.125 457.837,168.377 		"/>
		<polygon clip-path="url(#SVGID_42_)" fill="#85B241" points="407.22,144.567 437.123,187.985 457.837,168.377 		"/>
		<polygon clip-path="url(#SVGID_42_)" fill="#A0C959" points="457.837,168.377 473.65,160.483 536.017,205.461 		"/>
		<polygon clip-path="url(#SVGID_42_)" fill="#8EB949" points="457.837,168.377 527.992,200.827 437.562,187.435 		"/>
		<polygon clip-path="url(#SVGID_42_)" fill="#7DA83A" points="437.562,187.435 461.23,257.735 404.443,219.752 		"/>
		<polygon clip-path="url(#SVGID_42_)" fill="#85B241" points="437.562,187.435 527.091,200.554 443.66,207.057 		"/>
		<polygon clip-path="url(#SVGID_42_)" fill="#7DA83A" points="437.562,187.435 407.22,144.567 405.472,222.663 		"/>
		<polygon clip-path="url(#SVGID_42_)" fill="#82AD3D" points="443.66,207.057 458.937,255.01 523.058,200.006 		"/>
		<polygon clip-path="url(#SVGID_42_)" fill="#85B241" points="524.367,198.375 558.029,243.611 509.439,211.44 		"/>
		<polygon clip-path="url(#SVGID_42_)" fill="#82AD3D" points="509.439,211.44 553.72,240.613 573.601,273.037 		"/>
		<polygon clip-path="url(#SVGID_42_)" fill="#7DA83A" points="509.439,211.44 487.048,231.048 573.601,273.037 		"/>
		<polygon clip-path="url(#SVGID_42_)" fill="#78A236" points="487.048,231.048 474.843,262.371 573.601,273.037 		"/>
		<polygon clip-path="url(#SVGID_42_)" fill="#759F34" points="573.601,273.037 585.876,305.19 549.207,298.635 		"/>
		<polygon clip-path="url(#SVGID_42_)" fill="#6F9531" points="573.601,273.037 545.384,302.717 474.843,262.371 		"/>
	</g>
</g>
<g>
</g>
<g>
</g>
<g>
</g>
<g>
</g>
<g>
</g>
<g>
</g>
</svg>
