<?xml version="1.0" encoding="utf-8"?>
<!-- Generator: Adobe Illustrator 16.0.0, SVG Export Plug-In . SVG Version: 6.00 Build 0)  -->
<!DOCTYPE svg PUBLIC "-//W3C//DTD SVG 1.1//EN" "http://www.w3.org/Graphics/SVG/1.1/DTD/svg11.dtd">
<svg version="1.1" id="Layer_1" xmlns="http://www.w3.org/2000/svg" xmlns:xlink="http://www.w3.org/1999/xlink" x="0px" y="0px"
	 width="265.555px" height="85.062px" viewBox="0 0 265.555 85.062" enable-background="new 0 0 265.555 85.062"
	 xml:space="preserve">
<g>
	<g>
		<g>
			<defs>
				<polygon id="SVGID_1_" points="200.281,45.928 185.868,32.636 156.088,42.763 157.049,48.458 186.832,57.953 				"/>
			</defs>
			<clipPath id="SVGID_2_">
				<use xlink:href="#SVGID_1_"  overflow="visible"/>
			</clipPath>
			<polygon clip-path="url(#SVGID_2_)" fill="#478393" points="147.17,62.747 185.399,64.33 202.873,43.583 			"/>
			<polygon clip-path="url(#SVGID_2_)" fill="#8CAFBF" points="151.783,61.879 199.265,45.372 189.012,32.459 			"/>
			<polygon clip-path="url(#SVGID_2_)" fill="#ABC8D8" points="156.838,57.972 194.154,31.034 154.917,32.12 			"/>
		</g>
		<polygon fill="#5A9BAD" points="156.088,42.763 152.726,33.901 152.243,47.194 149.838,59.851 157.049,48.458 		"/>
	</g>
	<g>
		<g>
			<defs>
				<polygon id="SVGID_3_" points="224.018,13.291 209.604,0 179.824,10.126 180.784,15.821 210.567,25.317 				"/>
			</defs>
			<clipPath id="SVGID_4_">
				<use xlink:href="#SVGID_3_"  overflow="visible"/>
			</clipPath>
			<polygon clip-path="url(#SVGID_4_)" fill="#478393" points="170.904,30.11 209.137,31.695 226.613,10.946 			"/>
			<polygon clip-path="url(#SVGID_4_)" fill="#8CAFBF" points="175.523,29.242 223.002,12.733 212.748,-0.178 			"/>
			<polygon clip-path="url(#SVGID_4_)" fill="#ABC8D8" points="180.575,25.335 217.891,-1.604 178.654,-0.519 			"/>
		</g>
		<polygon fill="#5A9BAD" points="179.824,10.126 176.461,1.267 175.98,14.557 173.575,27.214 180.784,15.821 		"/>
	</g>
	<g>
		<g>
			<defs>
				<polygon id="SVGID_5_" points="151.324,13.938 139.119,2.685 113.901,11.261 114.714,16.082 139.934,24.126 				"/>
			</defs>
			<clipPath id="SVGID_6_">
				<use xlink:href="#SVGID_5_"  overflow="visible"/>
			</clipPath>
			<polygon clip-path="url(#SVGID_6_)" fill="#478393" points="106.35,28.182 138.723,29.521 153.523,11.955 			"/>
			<polygon clip-path="url(#SVGID_6_)" fill="#8CAFBF" points="110.259,27.449 150.465,13.468 141.784,2.534 			"/>
			<polygon clip-path="url(#SVGID_6_)" fill="#ABC8D8" points="114.537,24.137 146.137,1.326 112.913,2.246 			"/>
		</g>
		<polygon fill="#5A9BAD" points="113.901,11.261 111.053,3.761 110.646,15.011 108.613,25.729 114.714,16.082 		"/>
	</g>
	<g>
		<g>
			<defs>
				<polygon id="SVGID_7_" points="265.555,49.544 253.351,38.29 228.131,46.864 228.944,51.688 254.164,59.728 				"/>
			</defs>
			<clipPath id="SVGID_8_">
				<use xlink:href="#SVGID_7_"  overflow="visible"/>
			</clipPath>
			<polygon clip-path="url(#SVGID_8_)" fill="#478393" points="220.578,63.787 252.955,65.127 267.75,47.559 			"/>
			<polygon clip-path="url(#SVGID_8_)" fill="#8CAFBF" points="224.488,63.053 264.695,49.071 256.015,38.138 			"/>
			<polygon clip-path="url(#SVGID_8_)" fill="#ABC8D8" points="228.766,59.745 260.367,36.93 227.142,37.853 			"/>
		</g>
		<polygon fill="#5A9BAD" points="228.131,46.864 225.283,39.363 224.877,50.614 222.845,61.337 228.944,51.688 		"/>
	</g>
	<g>
		<g>
			<defs>
				<polygon id="SVGID_9_" points="123.138,45.095 110.934,33.839 85.714,42.415 86.528,47.238 111.748,55.278 				"/>
			</defs>
			<clipPath id="SVGID_10_">
				<use xlink:href="#SVGID_9_"  overflow="visible"/>
			</clipPath>
			<polygon clip-path="url(#SVGID_10_)" fill="#478393" points="78.161,59.335 110.535,60.676 125.335,43.105 			"/>
			<polygon clip-path="url(#SVGID_10_)" fill="#8CAFBF" points="82.074,58.599 122.278,44.622 113.599,33.688 			"/>
			<polygon clip-path="url(#SVGID_10_)" fill="#ABC8D8" points="86.351,55.29 117.95,32.479 84.725,33.402 			"/>
		</g>
		<polygon fill="#5A9BAD" points="85.714,42.415 82.866,34.91 82.459,46.164 80.428,56.885 86.528,47.238 		"/>
	</g>
	<g>
		<g>
			<defs>
				<polygon id="SVGID_11_" points="151.324,76.312 142.268,67.962 123.553,74.321 124.157,77.902 142.871,83.868 				"/>
			</defs>
			<clipPath id="SVGID_12_">
				<use xlink:href="#SVGID_11_"  overflow="visible"/>
			</clipPath>
			<polygon clip-path="url(#SVGID_12_)" fill="#478393" points="117.95,86.882 141.976,87.876 152.953,74.836 			"/>
			<polygon clip-path="url(#SVGID_12_)" fill="#8CAFBF" points="120.852,86.335 150.688,75.96 144.246,67.846 			"/>
			<polygon clip-path="url(#SVGID_12_)" fill="#ABC8D8" points="124.028,83.882 147.477,66.95 122.819,67.633 			"/>
		</g>
		<polygon fill="#5A9BAD" points="123.553,74.321 121.441,68.756 121.141,77.106 119.63,85.062 124.157,77.902 		"/>
	</g>
	<g>
		<g>
			<defs>
				<polygon id="SVGID_13_" points="77.149,24.388 68.093,16.038 49.379,22.401 49.982,25.981 68.697,31.944 				"/>
			</defs>
			<clipPath id="SVGID_14_">
				<use xlink:href="#SVGID_13_"  overflow="visible"/>
			</clipPath>
			<polygon clip-path="url(#SVGID_14_)" fill="#478393" points="43.773,34.958 67.798,35.948 78.781,22.916 			"/>
			<polygon clip-path="url(#SVGID_14_)" fill="#8CAFBF" points="46.675,34.411 76.51,24.036 70.069,15.923 			"/>
			<polygon clip-path="url(#SVGID_14_)" fill="#ABC8D8" points="49.85,31.958 73.302,15.029 48.643,15.713 			"/>
		</g>
		<polygon fill="#5A9BAD" points="49.379,22.401 47.265,16.832 46.962,25.185 45.455,33.138 49.982,25.981 		"/>
	</g>
	<g>
		<g>
			<defs>
				<polygon id="SVGID_15_" points="47.479,58.991 41.118,53.125 27.973,57.595 28.398,60.108 41.542,64.297 				"/>
			</defs>
			<clipPath id="SVGID_16_">
				<use xlink:href="#SVGID_15_"  overflow="visible"/>
			</clipPath>
			<polygon clip-path="url(#SVGID_16_)" fill="#478393" points="24.037,66.413 40.912,67.108 48.622,57.955 			"/>
			<polygon clip-path="url(#SVGID_16_)" fill="#8CAFBF" points="26.075,66.03 47.03,58.742 42.506,53.044 			"/>
			<polygon clip-path="url(#SVGID_16_)" fill="#ABC8D8" points="28.306,64.306 44.775,52.418 27.458,52.896 			"/>
		</g>
		<polygon fill="#5A9BAD" points="27.973,57.595 26.492,53.683 26.28,59.548 25.219,65.136 28.398,60.108 		"/>
	</g>
	<g>
		<g>
			<defs>
				<polygon id="SVGID_17_" points="22.258,36.736 15.896,30.872 2.753,35.345 3.177,37.854 16.324,42.044 				"/>
			</defs>
			<clipPath id="SVGID_18_">
				<use xlink:href="#SVGID_17_"  overflow="visible"/>
			</clipPath>
			<polygon clip-path="url(#SVGID_18_)" fill="#478393" points="-1.181,44.162 15.693,44.858 23.403,35.701 			"/>
			<polygon clip-path="url(#SVGID_18_)" fill="#8CAFBF" points="0.855,43.776 21.81,36.491 17.286,30.792 			"/>
			<polygon clip-path="url(#SVGID_18_)" fill="#ABC8D8" points="3.088,42.053 19.554,30.165 2.238,30.643 			"/>
		</g>
		<polygon fill="#5A9BAD" points="2.753,35.345 1.272,31.429 1.056,37.297 0,42.881 3.177,37.854 		"/>
	</g>
</g>
<g>
</g>
<g>
</g>
<g>
</g>
<g>
</g>
<g>
</g>
<g>
</g>
</svg>
