<?xml version="1.0" encoding="utf-8"?>
<!-- Generator: Adobe Illustrator 16.0.0, SVG Export Plug-In . SVG Version: 6.00 Build 0)  -->
<!DOCTYPE svg PUBLIC "-//W3C//DTD SVG 1.1//EN" "http://www.w3.org/Graphics/SVG/1.1/DTD/svg11.dtd">
<svg version="1.1" id="Layer_1" xmlns="http://www.w3.org/2000/svg" xmlns:xlink="http://www.w3.org/1999/xlink" x="0px" y="0px"
	 width="204px" height="69.92px" viewBox="0 0 204 69.92" enable-background="new 0 0 204 69.92" xml:space="preserve">
<g>
	<g>
		<g>
			<defs>
				<polygon id="SVGID_1_" points="148.594,36.705 136.36,25.422 111.083,34.018 111.898,38.852 137.178,46.911 				"/>
			</defs>
			<clipPath id="SVGID_2_">
				<use xlink:href="#SVGID_1_"  overflow="visible"/>
			</clipPath>
			<polygon clip-path="url(#SVGID_2_)" fill="#478393" points="103.513,50.98 135.963,52.324 150.794,34.713 			"/>
			<polygon clip-path="url(#SVGID_2_)" fill="#8CAFBF" points="107.43,50.243 147.731,36.232 139.028,25.271 			"/>
			<polygon clip-path="url(#SVGID_2_)" fill="#ABC8D8" points="111.719,46.928 143.393,24.062 110.088,24.984 			"/>
		</g>
		<polygon fill="#5A9BAD" points="111.083,34.018 108.229,26.496 107.82,37.779 105.778,48.521 111.898,38.852 		"/>
	</g>
	<g>
		<g>
			<defs>
				<polygon id="SVGID_3_" points="107.04,9.552 96.68,0 75.274,7.278 75.964,11.371 97.371,18.197 				"/>
			</defs>
			<clipPath id="SVGID_4_">
				<use xlink:href="#SVGID_3_"  overflow="visible"/>
			</clipPath>
			<polygon clip-path="url(#SVGID_4_)" fill="#478393" points="68.863,21.641 96.343,22.779 108.905,7.867 			"/>
			<polygon clip-path="url(#SVGID_4_)" fill="#8CAFBF" points="72.183,21.019 106.311,9.151 98.942,-0.129 			"/>
			<polygon clip-path="url(#SVGID_4_)" fill="#ABC8D8" points="75.814,18.208 102.637,-1.154 74.435,-0.374 			"/>
		</g>
		<polygon fill="#5A9BAD" points="75.274,7.278 72.856,0.912 72.511,10.461 70.786,19.561 75.964,11.371 		"/>
	</g>
	<g>
		<g>
			<defs>
				<polygon id="SVGID_5_" points="204,39.773 193.639,30.222 172.233,37.498 172.923,41.594 194.331,48.417 				"/>
			</defs>
			<clipPath id="SVGID_6_">
				<use xlink:href="#SVGID_5_"  overflow="visible"/>
			</clipPath>
			<polygon clip-path="url(#SVGID_6_)" fill="#478393" points="165.823,51.863 193.303,53 205.862,38.088 			"/>
			<polygon clip-path="url(#SVGID_6_)" fill="#8CAFBF" points="169.141,51.239 203.269,39.373 195.901,30.092 			"/>
			<polygon clip-path="url(#SVGID_6_)" fill="#ABC8D8" points="172.772,48.432 199.596,29.066 171.393,29.85 			"/>
		</g>
		<polygon fill="#5A9BAD" points="172.233,37.498 169.817,31.132 169.471,40.684 167.747,49.783 172.923,41.594 		"/>
	</g>
	<g>
		<g>
			<defs>
				<polygon id="SVGID_7_" points="83.115,35.996 72.755,26.443 51.349,33.722 52.04,37.816 73.447,44.641 				"/>
			</defs>
			<clipPath id="SVGID_8_">
				<use xlink:href="#SVGID_7_"  overflow="visible"/>
			</clipPath>
			<polygon clip-path="url(#SVGID_8_)" fill="#478393" points="44.938,48.085 72.417,49.223 84.98,34.309 			"/>
			<polygon clip-path="url(#SVGID_8_)" fill="#8CAFBF" points="48.259,47.46 82.384,35.596 75.016,26.313 			"/>
			<polygon clip-path="url(#SVGID_8_)" fill="#ABC8D8" points="51.889,44.651 78.71,25.289 50.509,26.072 			"/>
		</g>
		<polygon fill="#5A9BAD" points="51.349,33.722 48.932,27.354 48.587,36.904 46.862,46.004 52.04,37.816 		"/>
	</g>
	<g>
		<g>
			<defs>
				<polygon id="SVGID_9_" points="107.04,62.496 99.353,55.405 83.466,60.806 83.979,63.845 99.864,68.908 				"/>
			</defs>
			<clipPath id="SVGID_10_">
				<use xlink:href="#SVGID_9_"  overflow="visible"/>
			</clipPath>
			<polygon clip-path="url(#SVGID_10_)" fill="#478393" points="78.71,71.465 99.105,72.31 108.421,61.242 			"/>
			<polygon clip-path="url(#SVGID_10_)" fill="#8CAFBF" points="81.174,71.002 106.499,62.195 101.031,55.309 			"/>
			<polygon clip-path="url(#SVGID_10_)" fill="#ABC8D8" points="83.869,68.919 103.773,54.549 82.843,55.128 			"/>
		</g>
		<polygon fill="#5A9BAD" points="83.466,60.806 81.673,56.081 81.419,63.168 80.137,69.92 83.979,63.845 		"/>
	</g>
	<g>
		<g>
			<defs>
				<polygon id="SVGID_11_" points="18.895,47.792 13.496,42.812 2.338,46.607 2.699,48.74 13.854,52.295 				"/>
			</defs>
			<clipPath id="SVGID_12_">
				<use xlink:href="#SVGID_11_"  overflow="visible"/>
			</clipPath>
			<polygon clip-path="url(#SVGID_12_)" fill="#478393" points="-1.003,54.092 13.32,54.683 19.864,46.912 			"/>
			<polygon clip-path="url(#SVGID_12_)" fill="#8CAFBF" points="0.728,53.768 18.514,47.58 14.674,42.746 			"/>
			<polygon clip-path="url(#SVGID_12_)" fill="#ABC8D8" points="2.621,52.304 16.601,42.212 1.901,42.619 			"/>
		</g>
		<polygon fill="#5A9BAD" points="2.338,46.607 1.08,43.287 0.9,48.264 0,53.008 2.699,48.74 		"/>
	</g>
</g>
<g>
</g>
<g>
</g>
<g>
</g>
<g>
</g>
<g>
</g>
<g>
</g>
</svg>
