<?xml version="1.0" encoding="utf-8"?>
<!-- Generator: Adobe Illustrator 16.0.0, SVG Export Plug-In . SVG Version: 6.00 Build 0)  -->
<!DOCTYPE svg PUBLIC "-//W3C//DTD SVG 1.1//EN" "http://www.w3.org/Graphics/SVG/1.1/DTD/svg11.dtd">
<svg version="1.1" id="Layer_1" xmlns="http://www.w3.org/2000/svg" xmlns:xlink="http://www.w3.org/1999/xlink" x="0px" y="0px"
	 width="336.11px" height="157.261px" viewBox="0 0 336.11 157.261" enable-background="new 0 0 336.11 157.261"
	 xml:space="preserve">
<g>
	<defs>
		<polygon id="SVGID_1_" points="106.18,51.256 146.824,9.11 178.188,16.625 218.44,0 243.496,33.412 268.807,40.58 290.836,73.818 
			334.573,99.191 336.11,119.107 307.113,120.123 250.805,127.074 230.843,148.08 207.562,139.777 166.725,157.261 130.312,134.988 
			84.739,135.41 42.502,133.702 15.088,135.166 0,114.83 17.932,94.958 55.943,86.244 69.266,65.75 		"/>
	</defs>
	<clipPath id="SVGID_2_">
		<use xlink:href="#SVGID_1_"  overflow="visible"/>
	</clipPath>
	<polygon clip-path="url(#SVGID_2_)" fill="#DCEFF4" points="146.824,9.11 170.051,52.598 178.188,16.625 	"/>
	<polygon clip-path="url(#SVGID_2_)" fill="#FFFFFF" points="218.44,0 170.051,52.598 178.188,16.625 	"/>
	<polygon clip-path="url(#SVGID_2_)" fill="#BCDCE5" points="243.496,33.412 170.051,52.598 218.44,0 	"/>
	<polygon clip-path="url(#SVGID_2_)" fill="#FFFFFF" points="106.18,51.256 146.824,9.11 170.051,52.598 	"/>
	<polygon clip-path="url(#SVGID_2_)" fill="#DCEFF4" points="243.496,33.412 268.807,40.58 170.051,52.598 	"/>
	<polygon clip-path="url(#SVGID_2_)" fill="#BCDCE5" points="290.836,73.818 268.807,40.58 228.299,83.449 	"/>
	<polygon clip-path="url(#SVGID_2_)" fill="#FFFFFF" points="170.051,52.598 228.299,83.449 268.807,40.58 	"/>
	<line clip-path="url(#SVGID_2_)" fill="#9FC0C5" x1="130.312" y1="134.988" x2="166.725" y2="157.261"/>
	<polygon clip-path="url(#SVGID_2_)" fill="#9FC0C5" points="207.562,139.777 178.094,120.748 166.725,157.261 	"/>
	<polygon clip-path="url(#SVGID_2_)" fill="#9FC0C5" points="230.843,148.08 223.975,127.679 207.562,139.777 	"/>
	<polygon clip-path="url(#SVGID_2_)" fill="#BCDCE5" points="250.805,127.074 223.975,127.679 230.843,148.08 	"/>
	<polygon clip-path="url(#SVGID_2_)" fill="#B1D1D8" points="130.312,134.988 177.869,120.919 15.088,135.166 	"/>
	<polygon clip-path="url(#SVGID_2_)" fill="#BCDCE5" points="223.975,127.679 178.142,120.998 207.562,139.777 	"/>
	<polygon clip-path="url(#SVGID_2_)" fill="#FFFFFF" points="177.03,120.876 104.919,91.912 15.088,135.166 	"/>
	<polygon clip-path="url(#SVGID_2_)" fill="#BCDCE5" points="0,114.83 104.919,91.912 15.088,135.166 	"/>
	<polygon clip-path="url(#SVGID_2_)" fill="#B1D1D8" points="223.975,127.679 214.391,104.8 177.03,120.876 	"/>
	<polygon clip-path="url(#SVGID_2_)" fill="#BCDCE5" points="250.805,127.074 214.391,104.8 223.975,127.679 	"/>
	<polygon clip-path="url(#SVGID_2_)" fill="#DCEFF4" points="104.919,91.912 214.391,104.8 177.03,120.876 	"/>
	<polygon clip-path="url(#SVGID_2_)" fill="#9FC0C5" points="250.805,127.074 334.573,99.191 336.11,119.107 	"/>
	<polygon clip-path="url(#SVGID_2_)" fill="#DCEFF4" points="214.391,104.8 334.573,99.191 250.805,127.074 	"/>
	<polygon clip-path="url(#SVGID_2_)" fill="#FFFFFF" points="214.391,104.8 228.299,83.449 334.425,99.351 	"/>
	<polygon clip-path="url(#SVGID_2_)" fill="#FFFFFF" points="69.266,65.75 79.745,85.465 56.407,86.463 	"/>
	<polygon clip-path="url(#SVGID_2_)" fill="#DCEFF4" points="106.18,51.256 79.745,85.465 69.266,65.75 	"/>
	<polygon clip-path="url(#SVGID_2_)" fill="#BCDCE5" points="214.391,104.8 170.051,52.598 228.299,83.449 	"/>
	<polygon clip-path="url(#SVGID_2_)" fill="#FFFFFF" points="104.919,91.912 170.051,52.598 214.391,104.8 	"/>
	<polygon clip-path="url(#SVGID_2_)" fill="#DCEFF4" points="106.18,51.256 104.919,91.912 170.051,52.598 	"/>
	<polygon clip-path="url(#SVGID_2_)" fill="#FFFFFF" points="79.745,85.465 104.919,91.912 106.18,51.256 	"/>
	<polygon clip-path="url(#SVGID_2_)" fill="#DCEFF4" points="17.932,94.958 104.919,91.912 0,114.83 	"/>
	<polygon clip-path="url(#SVGID_2_)" fill="#DCEFF4" points="290.836,73.818 334.674,99.304 228.299,83.449 	"/>
	<polygon clip-path="url(#SVGID_2_)" fill="#BCDCE5" points="178.219,120.723 166.725,157.261 130.312,134.988 	"/>
	<polygon clip-path="url(#SVGID_2_)" fill="#BCDCE5" points="79.745,85.465 79.75,92.731 104.919,91.912 	"/>
	<polygon clip-path="url(#SVGID_2_)" fill="#FFFFFF" points="17.932,94.958 56.024,86.625 79.75,92.731 	"/>
	<polygon clip-path="url(#SVGID_2_)" fill="#DCEFF4" points="79.745,85.465 79.75,92.731 56.181,86.635 	"/>
	<rect x="-13.345" y="-38.247" opacity="0.8" clip-path="url(#SVGID_2_)" fill="#FFFFFF" width="366" height="216"/>
</g>
<g>
</g>
<g>
</g>
<g>
</g>
<g>
</g>
<g>
</g>
<g>
</g>
</svg>
