<?xml version="1.0" encoding="utf-8"?>
<!-- Generator: Adobe Illustrator 16.0.0, SVG Export Plug-In . SVG Version: 6.00 Build 0)  -->
<!DOCTYPE svg PUBLIC "-//W3C//DTD SVG 1.1//EN" "http://www.w3.org/Graphics/SVG/1.1/DTD/svg11.dtd">
<svg version="1.1" id="Layer_1" xmlns="http://www.w3.org/2000/svg" xmlns:xlink="http://www.w3.org/1999/xlink" x="0px" y="0px"
	 width="115.864px" height="95.836px" viewBox="0 0 115.864 95.836" enable-background="new 0 0 115.864 95.836"
	 xml:space="preserve">
<g>
	<defs>
		<path id="SVGID_1_" d="M114.755,55.15l1.108-3.503l-13.368-7.057l-13.001-15.97l-13.734-9.68L42.893,1.674L0,0l39.551,4.458
			l20.612,15.041l1.67,4.456l-5.014,2.229l-0.556,8.354l-16.712,6.129l3.342,19.498L26.73,56.104l4.457,13.741l-2.22,6.475
			l15.041-8.355l7.799,1.113L37.323,83.003l7.606,3.557l23.397-6.314l8.543-1.857l-2.223,5.73c0,0-3.343,12.256-1.672,11.699
			c1.672-0.559,12.813-6.687,12.813-6.687l5.57-11.144l14.483-8.91l5.57-4.456l0.557-4.456L114.755,55.15z"/>
	</defs>
	<clipPath id="SVGID_2_">
		<use xlink:href="#SVGID_1_"  overflow="visible"/>
	</clipPath>
	<polygon clip-path="url(#SVGID_2_)" fill="#8DC8E7" points="88.752,28.25 95.438,56.847 102.124,44.591 	"/>
	<polygon clip-path="url(#SVGID_2_)" fill="#729EC1" points="115.493,51.647 95.438,56.847 102.124,44.591 	"/>
	<polygon clip-path="url(#SVGID_2_)" fill="#729EC1" points="93.209,76.531 95.438,56.847 108.808,70.589 	"/>
	<polygon clip-path="url(#SVGID_2_)" fill="#6DADD5" points="95.438,56.847 105.842,69.077 117.35,55.361 	"/>
	<polygon clip-path="url(#SVGID_2_)" fill="#4596C7" points="115.493,51.647 115.122,56.104 95.438,56.847 	"/>
	<polygon clip-path="url(#SVGID_2_)" fill="#00273D" points="95.438,56.847 82.068,57.219 88.752,28.25 	"/>
	<polygon clip-path="url(#SVGID_2_)" fill="#00335C" points="78.723,24.907 88.752,28.25 82.068,57.219 	"/>
	<polygon clip-path="url(#SVGID_2_)" fill="#00273D" points="79.468,67.618 73.897,78.388 93.954,66.875 	"/>
	<polygon clip-path="url(#SVGID_2_)" fill="#001E2B" points="93.583,77.274 93.954,66.875 73.897,78.388 	"/>
	<polygon clip-path="url(#SVGID_2_)" fill="#6DA1BB" points="82.811,57.219 78.723,24.907 65.356,58.704 	"/>
	<polygon clip-path="url(#SVGID_2_)" fill="#6DADD5" points="65.727,26.764 78.723,24.907 72.783,39.391 	"/>
	<polygon clip-path="url(#SVGID_2_)" fill="#3B7EA1" points="65.356,59.076 83.182,57.219 73.897,78.388 	"/>
	<polygon clip-path="url(#SVGID_2_)" fill="#A1A414" points="95.438,56.847 69.069,58.704 79.468,67.618 	"/>
	<polygon clip-path="url(#SVGID_2_)" fill="#607B35" points="94.323,67.246 79.468,67.618 95.438,56.847 	"/>
	<polygon clip-path="url(#SVGID_2_)" fill="#006CA3" points="65.356,59.076 58.671,75.045 73.897,78.388 	"/>
	<polygon clip-path="url(#SVGID_2_)" fill="#3B7EA1" points="73.897,78.388 58.671,75.045 44.185,86.56 	"/>
	<polygon clip-path="url(#SVGID_2_)" fill="#004A75" points="65.727,26.764 56.263,34.538 72.783,39.391 	"/>
	<polygon clip-path="url(#SVGID_2_)" fill="#00273D" points="60.897,47.191 72.783,39.391 55.328,34.564 	"/>
	<polygon clip-path="url(#SVGID_2_)" fill="#001E2B" points="60.897,47.191 72.783,39.391 65.356,59.076 	"/>
	<polygon clip-path="url(#SVGID_2_)" fill="#00273D" points="60.897,47.191 49.386,69.845 65.356,59.076 	"/>
	<polygon clip-path="url(#SVGID_2_)" fill="#001E2B" points="65.356,59.076 58.671,75.045 49.386,69.845 	"/>
	<polygon clip-path="url(#SVGID_2_)" fill="#00273D" points="58.671,75.045 49.386,69.845 44.185,86.56 	"/>
	<polygon clip-path="url(#SVGID_2_)" fill="#004A75" points="44.185,86.56 37.323,83.003 49.386,69.845 	"/>
	<polygon clip-path="url(#SVGID_2_)" fill="#6DADD5" points="55.328,34.564 60.897,47.191 46.785,51.647 	"/>
	<polygon clip-path="url(#SVGID_2_)" fill="#729EC1" points="49.386,69.845 46.785,51.647 60.897,47.191 	"/>
	<polygon clip-path="url(#SVGID_2_)" fill="#6DADD5" points="41.958,62.048 49.386,69.845 46.785,51.647 	"/>
	<polygon clip-path="url(#SVGID_2_)" fill="#A1A414" points="25.986,55.733 30.815,69.845 41.958,61.306 	"/>
	<polygon clip-path="url(#SVGID_2_)" fill="#607B35" points="30.073,75.045 30.815,69.845 36.758,72.074 	"/>
	<polygon clip-path="url(#SVGID_2_)" fill="#82902D" points="41.958,61.306 30.815,69.845 36.758,72.074 	"/>
	<polygon clip-path="url(#SVGID_2_)" fill="#607B35" points="36.758,72.074 41.958,61.306 47.156,66.875 	"/>
	<polygon clip-path="url(#SVGID_2_)" fill="#82902D" points="55.328,34.564 39.551,40.667 46.785,51.647 	"/>
	<polygon clip-path="url(#SVGID_2_)" fill="#A1A414" points="39.358,53.505 39.551,40.667 46.785,51.647 	"/>
	<polygon clip-path="url(#SVGID_2_)" fill="#607B35" points="42.893,60.165 46.785,51.647 41.585,53.505 	"/>
	<polygon clip-path="url(#SVGID_2_)" fill="#608EA0" points="78.723,25.278 62.756,10.423 65.727,26.764 	"/>
	<polygon clip-path="url(#SVGID_2_)" fill="#00273D" points="88.752,28.25 75.383,16.366 78.723,25.278 	"/>
	<polygon clip-path="url(#SVGID_2_)" fill="#00273D" points="60.528,22.679 65.727,26.764 55.328,34.564 	"/>
	<polygon clip-path="url(#SVGID_2_)" fill="#6DA1BB" points="65.727,26.764 62.756,10.423 49.757,4.108 	"/>
	<polygon clip-path="url(#SVGID_2_)" fill="#6DADD5" points="60.163,19.499 51.985,5.595 37.872,4.108 	"/>
	<polygon clip-path="url(#SVGID_2_)" fill="#6DA1BB" points="51.985,4.852 34.158,-2.204 39.551,4.458 	"/>
	<polygon clip-path="url(#SVGID_2_)" fill="#8CBFD3" points="42.33,5.966 35.642,1.139 0,0 	"/>
	<polygon clip-path="url(#SVGID_2_)" fill="#00273D" points="93.209,76.531 76.127,77.274 85.782,91.015 	"/>
	<polygon clip-path="url(#SVGID_2_)" fill="#00335C" points="70.553,97.7 76.127,77.274 86.524,89.901 	"/>
</g>
<g>
</g>
<g>
</g>
<g>
</g>
<g>
</g>
<g>
</g>
<g>
</g>
</svg>
