<?xml version="1.0" encoding="utf-8"?>
<!-- Generator: Adobe Illustrator 16.0.0, SVG Export Plug-In . SVG Version: 6.00 Build 0)  -->
<!DOCTYPE svg PUBLIC "-//W3C//DTD SVG 1.1//EN" "http://www.w3.org/Graphics/SVG/1.1/DTD/svg11.dtd">
<svg version="1.1" id="Layer_1" xmlns="http://www.w3.org/2000/svg" xmlns:xlink="http://www.w3.org/1999/xlink" x="0px" y="0px"
	 width="1298.777px" height="607.683px" viewBox="0 0 1298.777 607.683" enable-background="new 0 0 1298.777 607.683"
	 xml:space="preserve">
<g>
	<defs>
		<polygon id="SVGID_1_" points="410.293,198.061 567.348,35.202 688.544,64.241 844.084,0 940.903,129.108 1038.709,156.806 
			1123.835,285.244 1292.84,383.291 1298.777,460.247 1186.732,464.174 969.146,491.033 892.014,572.201 802.052,540.118 
			644.254,607.683 503.549,521.614 327.444,523.245 164.236,516.643 58.304,522.297 0,443.718 69.289,366.936 216.17,333.255 
			267.65,254.07 		"/>
	</defs>
	<clipPath id="SVGID_2_">
		<use xlink:href="#SVGID_1_"  overflow="visible"/>
	</clipPath>
	<polygon clip-path="url(#SVGID_2_)" fill="#DCEFF4" points="567.348,35.202 657.102,203.247 688.544,64.241 	"/>
	<polygon clip-path="url(#SVGID_2_)" fill="#FFFFFF" points="844.084,0 657.102,203.247 688.544,64.241 	"/>
	<polygon clip-path="url(#SVGID_2_)" fill="#BCDCE5" points="940.903,129.108 657.102,203.247 844.084,0 	"/>
	<polygon clip-path="url(#SVGID_2_)" fill="#FFFFFF" points="410.293,198.061 567.348,35.202 657.102,203.247 	"/>
	<polygon clip-path="url(#SVGID_2_)" fill="#DCEFF4" points="940.903,129.108 1038.709,156.806 657.102,203.247 	"/>
	<polygon clip-path="url(#SVGID_2_)" fill="#BCDCE5" points="1123.835,285.244 1038.709,156.806 882.184,322.459 	"/>
	<polygon clip-path="url(#SVGID_2_)" fill="#FFFFFF" points="657.102,203.247 882.184,322.459 1038.709,156.806 	"/>
	<line clip-path="url(#SVGID_2_)" fill="#9FC0C5" x1="503.549" y1="521.614" x2="644.254" y2="607.683"/>
	<polygon clip-path="url(#SVGID_2_)" fill="#9FC0C5" points="802.052,540.118 688.182,466.584 644.254,607.683 	"/>
	<polygon clip-path="url(#SVGID_2_)" fill="#9FC0C5" points="892.014,572.201 865.475,493.369 802.052,540.118 	"/>
	<polygon clip-path="url(#SVGID_2_)" fill="#BCDCE5" points="969.146,491.033 865.475,493.369 892.014,572.201 	"/>
	<polygon clip-path="url(#SVGID_2_)" fill="#B1D1D8" points="503.549,521.614 687.311,467.251 58.304,522.297 	"/>
	<polygon clip-path="url(#SVGID_2_)" fill="#BCDCE5" points="865.475,493.369 688.366,467.552 802.052,540.118 	"/>
	<polygon clip-path="url(#SVGID_2_)" fill="#FFFFFF" points="684.07,467.087 405.422,355.158 58.304,522.297 	"/>
	<polygon clip-path="url(#SVGID_2_)" fill="#BCDCE5" points="0,443.718 405.422,355.158 58.304,522.297 	"/>
	<polygon clip-path="url(#SVGID_2_)" fill="#B1D1D8" points="865.475,493.369 828.441,404.965 684.07,467.087 	"/>
	<polygon clip-path="url(#SVGID_2_)" fill="#BCDCE5" points="969.146,491.033 828.441,404.965 865.475,493.369 	"/>
	<polygon clip-path="url(#SVGID_2_)" fill="#DCEFF4" points="405.422,355.158 828.441,404.965 684.07,467.087 	"/>
	<polygon clip-path="url(#SVGID_2_)" fill="#9FC0C5" points="969.146,491.033 1292.84,383.291 1298.777,460.247 	"/>
	<polygon clip-path="url(#SVGID_2_)" fill="#DCEFF4" points="828.441,404.965 1292.84,383.291 969.146,491.033 	"/>
	<polygon clip-path="url(#SVGID_2_)" fill="#FFFFFF" points="828.441,404.965 882.184,322.459 1292.268,383.908 	"/>
	<polygon clip-path="url(#SVGID_2_)" fill="#FFFFFF" points="267.65,254.07 308.146,330.252 217.966,334.107 	"/>
	<polygon clip-path="url(#SVGID_2_)" fill="#DCEFF4" points="410.293,198.061 308.146,330.252 267.65,254.07 	"/>
	<polygon clip-path="url(#SVGID_2_)" fill="#BCDCE5" points="828.441,404.965 657.102,203.247 882.184,322.459 	"/>
	<polygon clip-path="url(#SVGID_2_)" fill="#FFFFFF" points="405.422,355.158 657.102,203.247 828.441,404.965 	"/>
	<polygon clip-path="url(#SVGID_2_)" fill="#DCEFF4" points="410.293,198.061 405.422,355.158 657.102,203.247 	"/>
	<polygon clip-path="url(#SVGID_2_)" fill="#FFFFFF" points="308.146,330.252 405.422,355.158 410.293,198.061 	"/>
	<polygon clip-path="url(#SVGID_2_)" fill="#DCEFF4" points="69.289,366.936 405.422,355.158 0,443.718 	"/>
	<polygon clip-path="url(#SVGID_2_)" fill="#DCEFF4" points="1123.835,285.244 1293.23,383.725 882.184,322.459 	"/>
	<polygon clip-path="url(#SVGID_2_)" fill="#BCDCE5" points="688.668,466.493 644.254,607.683 503.549,521.614 	"/>
	<polygon clip-path="url(#SVGID_2_)" fill="#BCDCE5" points="308.146,330.252 308.164,358.326 405.422,355.158 	"/>
	<polygon clip-path="url(#SVGID_2_)" fill="#FFFFFF" points="69.289,366.936 216.484,334.728 308.164,358.326 	"/>
	<polygon clip-path="url(#SVGID_2_)" fill="#DCEFF4" points="308.146,330.252 308.164,358.326 217.092,334.771 	"/>
</g>
<g>
</g>
<g>
</g>
<g>
</g>
<g>
</g>
<g>
</g>
<g>
</g>
</svg>
