<?xml version="1.0" encoding="utf-8"?>
<!-- Generator: Adobe Illustrator 16.0.0, SVG Export Plug-In . SVG Version: 6.00 Build 0)  -->
<!DOCTYPE svg PUBLIC "-//W3C//DTD SVG 1.1//EN" "http://www.w3.org/Graphics/SVG/1.1/DTD/svg11.dtd">
<svg version="1.1" id="Layer_1" xmlns="http://www.w3.org/2000/svg" xmlns:xlink="http://www.w3.org/1999/xlink" x="0px" y="0px"
	 width="1598.906px" height="350.123px" viewBox="0 0 1598.906 350.123" enable-background="new 0 0 1598.906 350.123"
	 xml:space="preserve">
<g>
	<g>
		<path fill="#BDDFE3" stroke="#010101" stroke-miterlimit="10" d="M1074.432,43.885"/>
		<polygon fill="#466D6C" points="1043.717,99.529 1043.857,104.374 1186.526,109.821 1188.77,104.58 		"/>
		<g>
			<polygon fill="#CBEAF0" points="573.634,45.264 443.64,67.627 500.408,78.169 597.869,70.584 			"/>
			<polygon fill="#FFFFFF" points="567.249,38.588 186.348,65.689 443.64,67.627 573.634,45.264 			"/>
		</g>
		<polyline opacity="0.2" fill="#FFFFFF" points="811.143,69.095 746.435,44.791 557.785,28.7 597.869,70.584 811.143,69.095 		"/>
		<polygon opacity="0.2" fill="#FFFFFF" points="568.673,40.473 597.933,38.551 573.634,45.264 		"/>
		<polygon opacity="0.2" fill="#CBEAF0" points="597.933,38.551 765.546,69.742 597.869,70.584 573.634,45.264 		"/>
		<g>
			<polyline fill="#DAF0F4" points="443.64,67.627 186.348,65.689 29.739,66.733 0.014,77.945 443.64,67.627 			"/>
		</g>
		<polyline fill="#BDDFE3" points="1088.691,42.631 1065.625,46.837 1065.704,49.584 1062.742,48.162 1060.768,45.987 
			1073.588,43.737 1071.735,43.412 1088.691,42.631 		"/>
		<g>
			<polygon fill="#FFFFFF" points="945.99,49.617 1156.021,39.938 1239.445,67.922 846.178,69.435 			"/>
			<polygon fill="#CFECF3" points="1161.496,68.951 1123.574,55.381 846.201,70.252 			"/>
			<polygon fill="#D8EFF4" points="1156.021,39.938 1123.574,55.381 839.319,70.685 945.99,49.617 			"/>
			<polygon fill="#EDEBEC" points="1073.588,43.737 1080.225,43.432 1065.625,46.837 1065.704,49.584 1062.742,48.162 
				1060.768,45.987 			"/>
		</g>
		<g>
			<polygon fill="#FFFFFF" points="715.187,0 759.122,69.237 994.721,69.002 902.989,32.865 857.748,24.947 859.062,37.895 
				836.478,21.227 			"/>
			<polygon fill="#C4DCE2" points="715.187,0 557.785,28.7 597.869,70.584 868.91,68.936 			"/>
		</g>
		<polygon fill="#FFFFFF" points="240.157,78.881 186.746,79.028 381.916,89.459 559.809,98.008 741.805,93.52 962.562,101.325 
			1043.717,99.529 1188.77,104.58 1162.67,109.34 1391.492,100.149 1458.178,94.104 1441.414,91.17 1544.344,90.889 1598.898,78.16 
			1481.938,68.812 1279.812,67.832 1224.312,62.845 1161.474,68.137 1019.209,69.277 811.103,67.766 839.607,73.854 811.205,71.301 
			789.994,74.784 757.498,70.91 671.167,64.36 589.105,61.577 443.64,67.627 411.938,73.258 139.977,74.725 		"/>
		<g>
			<polygon fill="#DAF0F4" points="671.16,64.361 683.807,79.098 443.64,67.627 589.108,61.574 			"/>
			<polygon fill="#DAF0F4" points="411.931,73.261 443.64,67.627 683.807,79.098 			"/>
		</g>
		<g>
			<g>
				<polygon fill="#D8EFF4" points="683.807,79.098 837.458,81.818 826.504,77.234 789.994,74.784 730.365,60.801 693.232,56.893 
					676.573,69.726 				"/>
				<polyline fill="#F3F1F2" points="837.458,81.818 862.59,75.615 839.607,73.854 775.763,60.219 730.365,60.801 789.994,74.784 
					837.458,81.818 				"/>
				<polygon fill="#FFFFFF" points="775.763,60.219 752.015,56.461 693.232,56.893 730.365,60.801 				"/>
			</g>
			<polygon fill="#E7E6E6" points="693.232,56.893 671.16,64.361 683.807,79.098 			"/>
		</g>
		<polygon fill="#DFDFDD" points="1239.445,67.922 1258.949,70.512 1283.059,73.1 1283.059,73.1 1481.938,68.81 1273.234,57.188 
			1224.312,62.845 		"/>
		
			<linearGradient id="SVGID_1_" gradientUnits="userSpaceOnUse" x1="-6412.9727" y1="113.0957" x2="-6362.1562" y2="201.1123" gradientTransform="matrix(-1 0.0089 0.0089 1 -5013.5952 -33.333)">
			<stop  offset="0" style="stop-color:#F3F4F5"/>
			<stop  offset="1" style="stop-color:#E8E6E6"/>
		</linearGradient>
		<polygon fill="url(#SVGID_1_)" points="1273.234,57.188 1283.059,73.1 1481.938,68.81 		"/>
		<polyline fill="#BDDFE3" points="389.178,51.102 440.87,50.959 362.195,53.021 389.178,51.102 		"/>
		
			<linearGradient id="SVGID_2_" gradientUnits="userSpaceOnUse" x1="-5453.2827" y1="133.1016" x2="-5403.8745" y2="133.1016" gradientTransform="matrix(-1 0.0089 0.0089 1 -5013.5952 -33.333)">
			<stop  offset="0" style="stop-color:#EDEBEC"/>
			<stop  offset="1" style="stop-color:#D4D6D7"/>
		</linearGradient>
		<polyline fill="url(#SVGID_2_)" points="391.459,51.094 391.493,52.253 440.87,50.959 391.459,51.094 		"/>
		<polygon fill="#94B5B6" points="443.64,67.627 136.523,74.741 411.931,73.261 		"/>
		<polygon fill="#4F7A76" points="1043.717,99.529 1043.857,104.374 964.271,105.602 962.562,101.325 		"/>
		<path fill="#4F7A76" d="M962.562,101.325"/>
		<polygon fill="#FFFFFF" points="946.335,62.418 943.771,69.259 953.234,69.232 		"/>
		<polygon fill="#2C4F4A" points="625.246,130.245 631.778,134.382 679.977,134.25 677.348,131.885 		"/>
		<polygon fill="#466D6C" points="782.304,129.222 782.396,132.387 679.977,134.25 677.348,131.885 		"/>
		<polygon fill="#DFDFDE" points="566.219,118.15 627.887,123.514 626.499,127.049 583.471,125.611 		"/>
		<g>
			<path fill="#F4FBFE" d="M821.885,144.707"/>
			<polygon fill="#FFFFFF" points="984.662,251.69 953.431,254.523 956.076,255.867 912.301,139.759 771.238,142.323 
				697.407,140.602 697.407,140.602 697.407,140.602 683.878,140.182 547.459,140.254 526.834,139.674 486.87,139.121 
				467.985,139.394 445.236,135.906 459.672,133.484 523.673,131.861 542.932,130.59 522.668,129.311 627.832,128.296 
				635.07,127.102 744.269,127.494 722.768,126.485 768.787,121.906 865.961,125.736 			"/>
			<polygon fill="#1E3633" points="522.668,129.311 542.932,130.59 523.673,131.861 			"/>
			<polygon id="ORTUCU" fill="#FFFFFF" points="1598.906,78.161 1418.848,81.902 1334.756,95.912 1219.588,98.978 1172.116,111.7 
				1081.705,118.075 1026.049,96.758 673.191,80.697 559.814,98.01 630.243,133.411 498.649,136.519 467.985,139.394 
				732.907,274.015 1189.993,266.025 1483.412,238.837 1557.611,87.798 			"/>
			<polygon fill="#FFFFFF" points="953.431,254.523 984.662,251.69 865.961,125.736 814.793,125.521 			"/>
			<polygon fill="#F3F4F5" points="956.076,255.867 953.431,254.523 814.793,125.521 			"/>
		</g>
		<polygon fill="#FFFFFF" points="706.779,87.895 705.038,92.562 710.152,91.221 		"/>
		<polygon fill="#94B5B6" points="962.562,101.325 741.805,93.52 745.561,102.023 964.271,105.602 		"/>
		<polygon fill="#94B5B6" points="374.899,263.569 633.015,278.079 585.435,312.326 500.264,311.389 		"/>
		
			<linearGradient id="SVGID_3_" gradientUnits="userSpaceOnUse" x1="-6083.0547" y1="371.75" x2="-5703.4819" y2="371.75" gradientTransform="matrix(-1 0.0089 0.0089 1 -5013.5952 -33.333)">
			<stop  offset="0" style="stop-color:#78C2C7"/>
			<stop  offset="0.1056" style="stop-color:#59949B"/>
			<stop  offset="0.2215" style="stop-color:#40727B"/>
			<stop  offset="0.3447" style="stop-color:#2C5A64"/>
			<stop  offset="0.4754" style="stop-color:#1B4954"/>
			<stop  offset="0.6173" style="stop-color:#0E3E4A"/>
			<stop  offset="0.7783" style="stop-color:#043844"/>
			<stop  offset="1" style="stop-color:#013642"/>
		</linearGradient>
		<polyline fill="url(#SVGID_3_)" points="693.293,298.602 927.703,273.271 1072.878,296.574 		"/>
		<polygon fill="#B9D4D8" points="1005.255,135.147 1012.174,251.131 962.049,340.103 942.92,349.963 884.609,350.123 
			892.675,330.744 956.076,255.867 953.431,254.523 913.923,139.195 987.265,141.174 		"/>
		<polygon fill="#CFE6EB" points="1574.333,90.805 1558.784,172.09 1511.718,212.6 		"/>
		<polygon fill="#B9D4D8" points="1074.083,338.098 1172.1,279.769 1228.216,254.133 1219.451,245.893 1177.292,246.795 
			1180.011,242.014 1102.529,121.312 1159.744,242.89 1074.083,338.098 		"/>
		<polygon fill="#DAF0F4" points="1046.501,349.68 1074.083,338.098 1126.201,286.92 1154.256,249.039 1159.744,123.64 
			1132.477,126.881 1007.072,130.98 1007.072,250.232 962.049,340.103 942.92,349.963 		"/>
		<polygon fill="#AECACB" points="559.814,98.01 559.982,103.779 560.541,104.773 587.49,152.15 616.516,169.418 640.311,290.855 
			658.53,103.158 745.561,102.023 741.783,93.522 		"/>
		<polygon fill="#B9D4D8" points="186.731,79.026 191.759,202.841 419.51,285.55 568.215,306.498 717.879,331.028 884.609,350.123 
			886.283,319.235 559.982,103.779 559.814,98.01 		"/>
		
			<linearGradient id="SVGID_4_" gradientUnits="userSpaceOnUse" x1="-5778.8765" y1="310.9238" x2="-5708.979" y2="310.9238" gradientTransform="matrix(-1 0.0089 0.0089 1 -5013.5952 -33.333)">
			<stop  offset="0" style="stop-color:#274B4F"/>
			<stop  offset="0.0115" style="stop-color:#264B4F"/>
			<stop  offset="0.2783" style="stop-color:#153F48"/>
			<stop  offset="0.5817" style="stop-color:#063843"/>
			<stop  offset="1" style="stop-color:#013642"/>
		</linearGradient>
		<polygon fill="url(#SVGID_4_)" points="697.384,140.602 698.582,143.608 710.447,312.856 768.676,296.639 747.963,290.543 
			729.129,143.067 729.579,141.897 697.384,140.602 		"/>
		<polygon fill="#DAF0F4" points="771.243,142.319 697.407,140.602 706.997,298.313 884.609,350.123 892.675,330.744 
			892.675,330.744 955.438,262.594 953.431,254.523 956.076,255.867 956.076,255.867 912.294,139.762 793.674,140.969 
			786.58,141.706 		"/>
		
			<linearGradient id="SVGID_5_" gradientUnits="userSpaceOnUse" x1="-5894.3242" y1="329.4883" x2="-5559.0884" y2="329.4883" gradientTransform="matrix(-1 0.0089 0.0089 1 -5013.5952 -33.333)">
			<stop  offset="0" style="stop-color:#274B4F"/>
			<stop  offset="0.0115" style="stop-color:#264B4F"/>
			<stop  offset="0.2783" style="stop-color:#153F48"/>
			<stop  offset="0.5817" style="stop-color:#063843"/>
			<stop  offset="1" style="stop-color:#013642"/>
		</linearGradient>
		<polygon fill="url(#SVGID_5_)" points="547.479,140.251 549.203,142.938 601.047,168.666 628.277,284.978 645.555,288.002 
			674.723,306.689 884.609,350.123 706.997,298.313 706.997,298.313 697.407,140.602 683.858,140.18 		"/>
		<polygon fill="#94B5B6" points="445.215,135.901 446.953,137.428 456.787,144.271 496.007,297.887 547.208,291.49 
			568.215,306.498 506.868,166.06 467.872,140.642 467.98,139.396 		"/>
		
			<linearGradient id="SVGID_6_" gradientUnits="userSpaceOnUse" x1="-5212.1538" y1="235.0918" x2="-5029.2168" y2="235.0918" gradientTransform="matrix(-1 0.0089 0.0089 1 -5013.5952 -33.333)">
			<stop  offset="0" style="stop-color:#78C2C7"/>
			<stop  offset="0.1056" style="stop-color:#59949B"/>
			<stop  offset="0.2215" style="stop-color:#40727B"/>
			<stop  offset="0.3447" style="stop-color:#2C5A64"/>
			<stop  offset="0.4754" style="stop-color:#1B4954"/>
			<stop  offset="0.6173" style="stop-color:#0E3E4A"/>
			<stop  offset="0.7783" style="stop-color:#043844"/>
			<stop  offset="1" style="stop-color:#013642"/>
		</linearGradient>
		<polygon fill="url(#SVGID_6_)" points="140.105,79.155 201.334,232.116 17.037,80.925 		"/>
		
			<linearGradient id="SVGID_7_" gradientUnits="userSpaceOnUse" x1="-5894.3242" y1="329.4902" x2="-5559.0688" y2="329.4902" gradientTransform="matrix(-1 0.0089 0.0089 1 -5013.5952 -33.333)">
			<stop  offset="0" style="stop-color:#FFFFFF"/>
			<stop  offset="0.2518" style="stop-color:#DFE5E8"/>
			<stop  offset="0.7936" style="stop-color:#9DB5BF"/>
			<stop  offset="1" style="stop-color:#84A5B1"/>
		</linearGradient>
		<polygon fill="url(#SVGID_7_)" points="683.878,140.182 697.407,140.602 706.997,298.313 884.609,350.123 745.227,330.682 
			626.678,298.785 609.226,293.555 583.553,160.992 549.264,144.45 547.459,140.254 		"/>
		<polygon fill="#DAF0F4" points="201.325,232.113 500.264,311.389 439.103,168.809 312.017,246.519 263.81,109.748 240.234,81.887 
			240.234,81.887 187.32,79.186 239.473,78.737 136.529,74.743 140.097,79.155 		"/>
		<polygon fill="#B9D4D8" points="1446.373,271.74 1511.735,212.6 1574.333,90.809 1585.44,88.034 1598.906,78.161 1544.355,90.892 
			1546.826,97.676 		"/>
		<polygon fill="#DAF0F4" points="1221.807,294.632 1422.545,274.603 1446.373,271.74 1546.826,97.676 1544.355,90.892 
			1441.398,91.174 1458.192,94.104 1293.563,261.053 		"/>
		<polygon fill="#B9D4D8" points="1225.503,111.553 1225.564,113.662 1219.451,245.893 1228.216,254.133 1174.512,283.389 
			1115.344,309.144 1299.857,294.95 1418.404,254.601 1458.365,99.994 1458.192,94.104 1391.485,100.152 1162.67,109.336 
			1162.802,113.879 		"/>
		<polygon fill="#DAF0F4" points="1074.083,338.098 1228.216,254.133 1227.48,109.558 1180.011,122.762 		"/>
		<polygon fill="#B9D4D8" points="0,77.945 17.037,80.929 201.325,232.113 140.097,79.155 136.529,74.743 		"/>
		
			<linearGradient id="SVGID_8_" gradientUnits="userSpaceOnUse" x1="-6018.7275" y1="217.8809" x2="-6018.7275" y2="217.8809" gradientTransform="matrix(-1 0.0089 0.0089 1 -5013.5952 -33.333)">
			<stop  offset="0" style="stop-color:#78C2C7"/>
			<stop  offset="0.1056" style="stop-color:#59949B"/>
			<stop  offset="0.2215" style="stop-color:#40727B"/>
			<stop  offset="0.3447" style="stop-color:#2C5A64"/>
			<stop  offset="0.4754" style="stop-color:#1B4954"/>
			<stop  offset="0.6173" style="stop-color:#0E3E4A"/>
			<stop  offset="0.7783" style="stop-color:#043844"/>
			<stop  offset="1" style="stop-color:#013642"/>
		</linearGradient>
		<path fill="url(#SVGID_8_)" d="M1007.072,130.98"/>
		<polygon fill="#FFFFFF" points="1227.474,109.558 1180.016,122.759 1102.509,121.312 1159.741,123.638 1132.5,126.877 
			1007.072,130.98 782.304,129.222 677.348,131.885 625.246,130.245 635.07,127.102 566.206,117.741 584.916,110.178 
			658.53,103.158 676.496,102.535 745.561,102.023 844.865,99.774 908.189,97.081 986.777,98.594 1053.021,98.412 1085.754,97.3 
			1126.984,103.551 1118.719,99.211 1186.879,102.896 		"/>
		<polygon fill="#DFDFDE" points="635.07,127.102 724.209,137.559 627.821,127.888 		"/>
		<polygon fill="#CBEAF0" points="1112.691,98.554 1092.541,109.999 1102.529,110.79 		"/>
		<polygon fill="#CBEAF0" points="1159.266,109.165 1159.111,103.873 1126.984,103.551 1146.95,109.849 		"/>
		<polygon fill="#CFECF3" points="1146.95,109.849 1112.691,98.554 1102.529,110.79 1108.636,111.291 		"/>
		<polygon fill="#DCF1F4" points="1112.691,98.554 1089.326,94.869 1081.455,109.467 1092.541,109.999 		"/>
		<polygon fill="#C9DDE0" points="1089.326,94.869 1063.113,107.023 1081.455,109.467 		"/>
		
			<linearGradient id="SVGID_9_" gradientUnits="userSpaceOnUse" x1="-6170.9961" y1="187.3164" x2="-6101.2979" y2="187.3164" gradientTransform="matrix(-1 0.0089 0.0089 1 -5013.5952 -33.333)">
			<stop  offset="0" style="stop-color:#F3F4F5"/>
			<stop  offset="1" style="stop-color:#E8E6E6"/>
		</linearGradient>
		<polygon fill="url(#SVGID_9_)" points="1089.326,94.869 1123.191,97.912 1159.111,103.873 1126.984,103.551 1112.691,98.554 		"/>
		<polygon fill="#F3F4F5" points="814.793,125.521 912.301,139.759 956.076,255.867 		"/>
		<polygon fill="#94B5B6" points="742.328,135.844 749.246,143.307 783.568,292.062 786.58,141.706 		"/>
		<polygon fill="#B9D4D8" points="547.459,140.254 486.87,139.121 467.985,139.394 467.872,140.642 506.868,166.06 568.215,306.498 
			717.879,331.028 884.609,350.123 706.997,298.313 697.407,140.602 683.878,140.182 		"/>
		<polygon fill="#94B5B6" points="402.543,86.754 341.875,86.92 363.645,102.966 363.229,88.571 		"/>
		<polygon fill="#DFDFDE" points="635.07,127.102 566.206,117.741 577.057,122.435 627.821,127.888 		"/>
		<polygon fill="#DFDFDE" points="627.821,127.888 577.057,122.435 584.474,128.305 		"/>
		<polygon fill="#FFFFFF" points="739.383,136.224 610,123.693 522.654,128.901 542.932,130.59 523.673,131.861 459.672,133.484 
			445.236,135.906 467.985,139.394 486.87,139.121 526.834,139.674 547.459,140.254 683.878,140.182 697.407,140.602 		"/>
	</g>
</g>
<g>
</g>
<g>
</g>
<g>
</g>
<g>
</g>
<g>
</g>
<g>
</g>
</svg>
