<?xml version="1.0" encoding="utf-8"?>
<!-- Generator: Adobe Illustrator 16.0.0, SVG Export Plug-In . SVG Version: 6.00 Build 0)  -->
<!DOCTYPE svg PUBLIC "-//W3C//DTD SVG 1.1//EN" "http://www.w3.org/Graphics/SVG/1.1/DTD/svg11.dtd">
<svg version="1.1" id="Layer_1" xmlns="http://www.w3.org/2000/svg" xmlns:xlink="http://www.w3.org/1999/xlink" x="0px" y="0px"
	 width="534px" height="1087.898px" viewBox="0 0 534 1087.898" enable-background="new 0 0 534 1087.898" xml:space="preserve">
<g>
	<g>
		<g>
			<polygon fill="#94B5B6" points="264.238,441.04 461.108,393.336 530.99,526.926 463.566,541.621 170.263,543.442 			"/>
			<polygon fill="#B9D4D8" points="463.566,541.621 430.315,473.785 170.263,547.723 			"/>
			<polygon fill="#DAF0F4" points="461.108,393.336 430.315,473.785 163.807,549.898 264.238,441.04 			"/>
		</g>
		<polygon fill="#F5F5F5" points="0.949,518.86 106.912,201.41 249.416,0 170.263,328.412 170.263,543.442 		"/>
		<polygon fill="#CFE6EB" points="223.838,80.389 249.416,0 350.627,165.944 316.914,428.274 264.238,441.04 163.807,549.898 
			170.263,517.199 170.263,328.412 		"/>
		<polygon fill="#C9E4E9" points="345.148,201.41 421.152,295.971 461.108,393.336 316.914,428.274 316.914,376.355 		"/>
		<polygon fill="#EAE9E9" points="106.912,201.41 170.263,328.412 249.416,0 		"/>
	</g>
	<polygon fill="#94B5B6" points="264.238,646.858 461.108,694.562 534,526.676 460,540.676 170.263,544.456 	"/>
	<polygon fill="#C9E4E9" points="464,540.676 350,572.676 170.263,540.176 	"/>
	<polygon fill="#B9D4D8" points="461.108,694.562 350,572.676 163.807,538 264.238,646.858 	"/>
	<polygon fill="#CCEAED" points="0,518.676 106.912,886.488 249.416,1087.898 170.263,759.486 168,536.676 	"/>
	<polygon fill="#DAF0F4" points="223.838,1007.51 249.416,1087.898 350.627,921.954 316.914,659.624 264.238,646.858 163.807,538 
		164,576.676 170.263,759.486 	"/>
	<polygon fill="#B9D4D8" points="345.148,886.488 421.152,791.928 461.108,694.562 316.914,659.624 316.914,711.543 	"/>
	<polygon fill="#B9D4D8" points="106.912,886.488 170.263,759.486 249.416,1087.898 	"/>
</g>
<g>
</g>
<g>
</g>
<g>
</g>
<g>
</g>
<g>
</g>
<g>
</g>
</svg>
