<?xml version="1.0" encoding="utf-8"?>
<!-- Generator: Adobe Illustrator 16.0.0, SVG Export Plug-In . SVG Version: 6.00 Build 0)  -->
<!DOCTYPE svg PUBLIC "-//W3C//DTD SVG 1.1//EN" "http://www.w3.org/Graphics/SVG/1.1/DTD/svg11.dtd">
<svg version="1.1" id="Layer_1" xmlns="http://www.w3.org/2000/svg" xmlns:xlink="http://www.w3.org/1999/xlink" x="0px" y="0px"
	 width="236.983px" height="80.992px" viewBox="0 0 236.983 80.992" enable-background="new 0 0 236.983 80.992"
	 xml:space="preserve">
<g>
	<polygon fill="#E6E4E4" points="236.945,74.546 197.706,80.992 177.666,79.099 132.249,74.294 132.257,71.441 154.978,68.251 
		106.878,68.136 77.474,71.309 26.711,67.939 0,62.489 18.716,58.542 68.151,58.66 81.521,56.809 101.561,56.857 163.018,58.372 
		204.446,55.465 228.702,57.164 236.983,58.551 	"/>
	<g>
		<polygon fill="#CFE6EB" points="139.055,53.437 211.061,47.832 236.573,64.075 211.914,65.797 104.662,65.758 		"/>
		<polygon fill="#C9E4E9" points="211.914,65.797 199.775,57.549 104.661,66.276 		"/>
		<polygon fill="#F5F5F5" points="211.061,47.832 199.775,57.549 102.302,66.535 139.055,53.437 		"/>
	</g>
	<polygon fill="#F5F5F5" points="42.757,62.631 81.595,24.271 133.761,0 104.724,39.711 104.662,65.758 	"/>
	<polygon fill="#CFE6EB" points="124.386,9.715 133.761,0 170.724,20.19 158.321,51.938 139.055,53.437 102.302,66.535 
		104.67,62.579 104.724,39.711 	"/>
	<polygon fill="#C9E4E9" points="168.71,24.481 196.475,36.004 211.061,47.832 158.321,51.938 158.336,45.648 	"/>
	<polygon fill="#EAE9E9" points="81.595,24.271 104.724,39.711 133.761,0 	"/>
</g>
<g>
</g>
<g>
</g>
<g>
</g>
<g>
</g>
<g>
</g>
<g>
</g>
</svg>
