<?xml version="1.0" encoding="utf-8"?>
<!-- Generator: Adobe Illustrator 16.0.0, SVG Export Plug-In . SVG Version: 6.00 Build 0)  -->
<!DOCTYPE svg PUBLIC "-//W3C//DTD SVG 1.1//EN" "http://www.w3.org/Graphics/SVG/1.1/DTD/svg11.dtd">
<svg version="1.1" id="Layer_1" xmlns="http://www.w3.org/2000/svg" xmlns:xlink="http://www.w3.org/1999/xlink" x="0px" y="0px"
	 width="139.061px" height="152.133px" viewBox="0 0 139.061 152.133" enable-background="new 0 0 139.061 152.133"
	 xml:space="preserve">
<g>
	<g>
		<defs>
			<path id="SVGID_1_" d="M99.672,129.301c0,0-13.652,7.658-42.499-5.141l41.694-71.461c0,0,13.051,4.334,17.713,4.986
				c4.467,0.631,22.48-0.496,22.48-0.496s-15.387-4.469-19.277-6.285c-3.646-1.697-13.412-9.256-13.412-9.256l12.82-19.912
				l8.709-0.752l4.826-6.633l-0.225-7.486L122.37,0l-10.018,0.186l-5.787,5.543l-1.426,5.205l2.15,4.631L94.813,36.16
				c0,0-16.879-2.268-20.994-4.162c-3.364-1.547-10.967-9.709-10.967-9.709s5.876,11.619,8.666,14.32
				c3.139,3.043,14.973,10.684,14.973,10.684L42.992,116c0,0-19.961-16.936-19.828-35.709l14.294-3.787
				c0,0-19.116-11.754-22.347-20.493c0,0-9.915,22.002-15.111,27.862l14.937-2.369c0,0-0.268,31.527,12.3,53.729
				c2.889,5.096,2.439,11.174,2.051,13.828c0,0,4.527-3.807,16.665-5.725c8.421-1.324,38.689,5.246,54.746-6.033l0.811,14.83
				c0,0,16.805-18.887,22.984-22.764c0,0-21.01-7.502-26.805-13.916C97.688,115.454,99.118,125.092,99.672,129.301z M119.288,4.336
				c3.604,0.184,6.402,2.611,6.26,5.424s-3.172,4.941-6.775,4.758c-3.602-0.184-6.404-2.607-6.26-5.42
				C112.653,6.283,115.686,4.154,119.288,4.336z"/>
		</defs>
		<clipPath id="SVGID_2_">
			<use xlink:href="#SVGID_1_"  overflow="visible"/>
		</clipPath>
		<polygon clip-path="url(#SVGID_2_)" fill="#F7BE16" points="25.742,93.893 42.973,116.409 28.896,149.354 		"/>
		<polyline clip-path="url(#SVGID_2_)" fill="#FFC808" points="28.352,138.936 27.124,98.864 14.463,82.704 12.557,128.333 
			26.763,136.43 		"/>
		<polygon clip-path="url(#SVGID_2_)" fill="#CB972B" points="27.081,99.676 12.535,80.573 23.227,79.067 		"/>
		<polygon clip-path="url(#SVGID_2_)" fill="#FFC72B" points="15.344,57.436 9.601,82.053 26.913,78.846 		"/>
		<polygon clip-path="url(#SVGID_2_)" fill="#CB972B" points="14.722,57.613 26.913,78.846 37.458,76.504 		"/>
		<polygon clip-path="url(#SVGID_2_)" fill="#CB972B" points="15.694,56.439 10.197,82.387 -3.408,84.961 		"/>
		<polygon clip-path="url(#SVGID_2_)" fill="#F7BE16" points="29.531,148.85 57.363,123.852 85.704,131.032 		"/>
		<polygon clip-path="url(#SVGID_2_)" fill="#FFC72B" points="82.442,131.938 100.698,137.303 77.706,146.854 44.314,144.241 		"/>
		<polygon clip-path="url(#SVGID_2_)" fill="#AE852D" points="99.672,129.301 100.698,137.303 82.442,131.938 		"/>
		<polygon clip-path="url(#SVGID_2_)" fill="#ECAA20" points="98.393,116.366 122.508,129.836 99.317,128.354 		"/>
		<polygon clip-path="url(#SVGID_2_)" fill="#9D772C" points="99.317,128.354 100.971,144.055 124.493,129.37 		"/>
		<polygon clip-path="url(#SVGID_2_)" fill="#B6862C" points="101.508,152.133 100.114,142.79 124.493,129.37 		"/>
		<polygon clip-path="url(#SVGID_2_)" fill="#ECAA20" points="28.611,149.975 42.973,116.409 57.363,123.852 		"/>
		<polygon clip-path="url(#SVGID_2_)" fill="#F7BE16" points="42.973,116.409 68.932,87.516 57.363,123.852 		"/>
		<polygon clip-path="url(#SVGID_2_)" fill="#FECF0A" points="57.363,123.852 73.163,68.543 98.868,52.699 		"/>
		<polygon clip-path="url(#SVGID_2_)" fill="#FDDD3F" points="42.973,116.409 73.163,68.543 66.236,92.28 		"/>
		<polygon clip-path="url(#SVGID_2_)" fill="#F7BE16" points="73.163,68.543 86.491,47.293 98.868,52.699 		"/>
		<polygon clip-path="url(#SVGID_2_)" fill="#F3C417" points="86.471,47.578 95.784,41.113 98.868,52.699 		"/>
		<polygon clip-path="url(#SVGID_2_)" fill="#F3C417" points="95.784,41.113 94.813,36.16 106.372,41.648 		"/>
		<polygon clip-path="url(#SVGID_2_)" fill="#DBAA27" points="95.784,41.113 106.372,41.648 98.868,52.699 		"/>
		<polygon clip-path="url(#SVGID_2_)" fill="#F6DC6C" points="95.784,41.113 94.813,36.16 86.471,47.578 		"/>
		<polygon clip-path="url(#SVGID_2_)" fill="#DBAA27" points="94.813,36.16 71.518,36.609 86.471,47.578 		"/>
		<polygon clip-path="url(#SVGID_2_)" fill="#FECF0A" points="93.95,36.936 70.274,36.955 61.898,16.936 		"/>
		<polygon clip-path="url(#SVGID_2_)" fill="#FECF0A" points="98.868,52.699 106.372,41.648 116.581,57.686 		"/>
		<polygon clip-path="url(#SVGID_2_)" fill="#DBAA27" points="107.098,43.316 116.581,57.686 143.985,56.621 		"/>
		<polygon clip-path="url(#SVGID_2_)" fill="#DBAA27" points="94.813,36.16 119.192,21.736 106.37,41.648 		"/>
		<polygon clip-path="url(#SVGID_2_)" fill="#FFC72B" points="94.813,36.16 107.29,15.564 119.641,21.498 		"/>
		<polygon clip-path="url(#SVGID_2_)" fill="#CB972B" points="107.29,15.564 121.315,-3.32 99.075,0.449 		"/>
		<polygon clip-path="url(#SVGID_2_)" fill="#B78D2E" points="134.717,5.932 107.29,15.564 122.743,-7.33 		"/>
		<polygon clip-path="url(#SVGID_2_)" fill="#A27E2D" points="117.422,-7.193 128.479,24.402 140.28,9.076 		"/>
		<polygon clip-path="url(#SVGID_2_)" fill="#D3A02A" points="142.702,9.609 102.85,14.525 124.793,24.619 		"/>
		<polygon clip-path="url(#SVGID_2_)" fill="#916A28" points="99.672,129.301 97.602,142.045 101.028,138.954 		"/>
		<polygon clip-path="url(#SVGID_2_)" fill="#916A28" points="13.696,81.856 23.227,79.067 28.25,84.635 		"/>
		<polygon clip-path="url(#SVGID_2_)" fill="#916A28" points="86.491,47.293 98.868,52.699 96.993,57.504 		"/>
		<polygon clip-path="url(#SVGID_2_)" fill="#916A28" points="107.29,15.564 119.192,21.736 117.362,26.285 		"/>
		<polygon clip-path="url(#SVGID_2_)" fill="#916A28" points="99.012,138.446 75.042,144.174 92.424,147.502 		"/>
		<polygon clip-path="url(#SVGID_2_)" fill="#916A28" points="43.662,142.985 58.107,123.711 26.086,151.487 		"/>
	</g>
</g>
</svg>
