<?xml version="1.0" encoding="utf-8"?>
<!-- Generator: Adobe Illustrator 16.0.0, SVG Export Plug-In . SVG Version: 6.00 Build 0)  -->
<!DOCTYPE svg PUBLIC "-//W3C//DTD SVG 1.1//EN" "http://www.w3.org/Graphics/SVG/1.1/DTD/svg11.dtd">
<svg version="1.1" id="Layer_1" xmlns="http://www.w3.org/2000/svg" xmlns:xlink="http://www.w3.org/1999/xlink" x="0px" y="0px"
	 width="14280px" height="380px" viewBox="0 0 14280 380" enable-background="new 0 0 14280 380" xml:space="preserve">
<g opacity="0.2">
	<g>
		<defs>
			<polygon id="SVGID_1_" points="1743.581,234.755 3272.649,376.623 4438.088,329.333 5939,349.601 7050.577,278.668 
				11231.693,373.245 12710.035,244.889 14278.662,366.49 14280,1.688 0,0 3.056,251.645 			"/>
		</defs>
		<clipPath id="SVGID_2_">
			<use xlink:href="#SVGID_1_"  overflow="visible"/>
		</clipPath>
		<polygon clip-path="url(#SVGID_2_)" fill="#3BB0C9" points="8509.004,168.715 9461.502,316.528 9786.084,211.539 		"/>
		<polygon clip-path="url(#SVGID_2_)" fill="#009ABF" points="9805.078,205.004 9458.055,316.382 13200.936,171.139 		"/>
		<polygon clip-path="url(#SVGID_2_)" fill="#0091B3" points="13199.504,172.504 14550.418,289.178 14206.225,101.787 		"/>
		<polygon clip-path="url(#SVGID_2_)" fill="#46A8C6" points="5819.574,-19.825 10534.939,135.405 12867.717,48.839 		"/>
		<polygon clip-path="url(#SVGID_2_)" fill="#006E96" points="14206.225,101.787 14368.941,22.516 12867.717,48.839 		"/>
		<polygon clip-path="url(#SVGID_2_)" fill="#72B1C8" points="8509.004,168.715 5549.395,-28.318 7784.723,247.381 		"/>
		<polygon clip-path="url(#SVGID_2_)" fill="#76C4D5" points="9806.01,212.236 5175.379,-52.92 8509.004,168.715 		"/>
		<polygon clip-path="url(#SVGID_2_)" fill="#0091B3" points="13199.504,172.504 10534.939,135.405 9786.084,211.539 		"/>
		<polygon clip-path="url(#SVGID_2_)" fill="#3BB0C9" points="5598.553,-25.803 10578.48,131.397 9792.818,212.606 		"/>
		<polygon clip-path="url(#SVGID_2_)" fill="#0091B3" points="13199.504,172.504 12867.717,48.839 14206.225,101.787 		"/>
		<polygon clip-path="url(#SVGID_2_)" fill="#009ABF" points="10534.939,135.405 12867.717,48.839 13199.504,172.504 		"/>
		<polygon clip-path="url(#SVGID_2_)" fill="#4296B4" points="8509.004,168.715 9463.697,316.382 7784.723,247.381 		"/>
		<polygon clip-path="url(#SVGID_2_)" fill="#009ABF" points="14370.822,21.954 14550.418,289.178 14206.225,101.787 		"/>
		<polygon clip-path="url(#SVGID_2_)" fill="#3A97B5" points="16624.896,-15.194 14550.418,289.178 14368.941,22.516 		"/>
		<polygon clip-path="url(#SVGID_2_)" fill="#0084AD" points="12890.285,48.842 16647.461,-15.193 14647.861,-90.823 		"/>
		<polygon clip-path="url(#SVGID_2_)" fill="#3BB0C9" points="5623.112,-19.789 12879.311,48.975 14703.732,-92.891 		"/>
		<polygon clip-path="url(#SVGID_2_)" fill="#006E96" points="6676.29,110.34 3974.058,335.635 5549.395,-28.318 		"/>
		<polygon clip-path="url(#SVGID_2_)" fill="#3BB0C9" points="3974.058,335.112 122.536,142.433 1271.082,85.008 		"/>
		<polygon clip-path="url(#SVGID_2_)" fill="#46A8C6" points="1271.082,85.008 3530.621,201.113 3972.933,335.291 		"/>
		<polygon clip-path="url(#SVGID_2_)" fill="#0091B3" points="3530.621,201.113 2462.025,39.188 1271.082,85.008 		"/>
		<polygon clip-path="url(#SVGID_2_)" fill="#0084AD" points="3972.307,335.635 3530.621,201.113 5549.395,-28.318 		"/>
		<polygon clip-path="url(#SVGID_2_)" fill="#0084AD" points="2462.025,39.188 3530.621,201.113 3309.064,-54.702 		"/>
		<polygon clip-path="url(#SVGID_2_)" fill="#0091B3" points="3530.621,201.113 5549.395,-28.318 3309.064,-54.702 		"/>
		<polygon clip-path="url(#SVGID_2_)" fill="#009ABF" points="2462.025,39.188 -363.707,163.82 -67.527,-21.137 		"/>
		<polygon clip-path="url(#SVGID_2_)" fill="#46A8C6" points="2462.025,39.188 3309.064,-54.702 -67.527,-21.137 		"/>
		<polygon opacity="0.4" clip-path="url(#SVGID_2_)" fill="#007C99" points="-1520.755,-1.799 16844.154,-5.234 16845.102,430.499 
			-1520.044,433.939 		"/>
		<polygon clip-path="url(#SVGID_2_)" fill="#3BB0C9" points="-363.707,163.831 -1159.305,0.011 -95.687,0.011 		"/>
		<path opacity="0.1" clip-path="url(#SVGID_2_)" fill="#00809E" d="M-1162.126-12.657l2.821,12.678l795.599,163.854l495.912-21.822
			l-9.669,0.586l3844.858,192.557l3.013,0.548l1.9,1.268h1.751L6674.698,111.16l1110.025,136.149l1673.972,68.832l-0.641,0.224
			l1.998-0.065l1.449,0.226l0.648-0.206l1.547,0.062l-1.133-0.173l3689.135-143.159l47.805-0.545l1350.914,116.674l2071.498-303.935
			L-1162.126-12.657z M5860.245-17.543l40.295,0.385l657.694,21.65L5860.245-17.543z M13311.791,15.348l-415.09,32.981
			l-11.742,0.208L13311.791,15.348z M14206.225,101.787l160.326-78.106l0.732-0.014L14206.225,101.787z"/>
	</g>
	<g>
		<defs>
			<polygon id="SVGID_3_" points="1743.584,350.195 3272.655,204.355 4438.091,380 5950.289,244.726 7050.583,366.244 
				11231.693,242.433 12710.035,366.244 14278.67,260.772 14271.391,3.486 0,1.688 3.062,157.598 			"/>
		</defs>
		<clipPath id="SVGID_4_">
			<use xlink:href="#SVGID_3_"  overflow="visible"/>
		</clipPath>
		<polygon opacity="0.4" clip-path="url(#SVGID_4_)" fill="#007C99" points="-1543.32,-58.012 16821.592,-61.675 16822.539,402.543 
			-1542.611,406.209 		"/>
		<g clip-path="url(#SVGID_4_)">
			<polygon fill="#08A7C1" points="8509.004,181.429 9461.5,196.753 9786.084,158.272 			"/>
			<polygon fill="#3BB0C9" points="9805.076,151.311 9458.053,196.597 13200.936,282.605 			"/>
			<polygon fill="#2591AF" points="13199.5,284.056 14550.422,160.736 14206.23,110.126 			"/>
			<polygon fill="#2591AF" points="5803.583,-17.801 10534.938,145.947 12867.717,53.72 			"/>
			<polygon fill="#50B2CC" points="14206.23,110.126 14371.77,25.38 12867.717,53.72 			"/>
			<polygon fill="#08A7C1" points="8509.004,181.429 5549.401,-28.481 7784.729,228.555 			"/>
			<polygon fill="#3BB0C9" points="9792.848,159.126 5175.383,-54.688 8509.004,181.429 			"/>
			<polygon fill="#3BB0C9" points="13199.5,284.056 10534.938,145.947 9786.084,158.272 			"/>
			<polygon fill="#3BB0C9" points="5598.56,-25.803 10542.365,145.369 9792.818,159.408 			"/>
			<polygon fill="#0084AD" points="13199.5,284.056 12867.717,53.72 14206.23,110.126 			"/>
			<polygon fill="#009ABF" points="10498.166,143.844 12867.717,53.72 13199.5,284.056 			"/>
			<polygon fill="#50B2CC" points="8509.004,181.429 9463.695,196.597 7784.729,228.555 			"/>
			<polygon fill="#3BB0C9" points="14370.828,25.078 14550.422,160.736 14206.23,110.126 			"/>
			<polygon fill="#0084AD" points="16624.898,-14.501 14550.422,160.736 14368.949,25.675 			"/>
			<polygon fill="#009ABF" points="12870.852,54.42 16647.469,-14.501 14647.869,-95.072 			"/>
			<polygon fill="#3BB0C9" points="5623.118,-19.395 12879.311,53.866 14666.467,-94.187 14703.736,-97.271 			"/>
			<polygon fill="#08A7C1" points="6676.295,265.359 3974.063,152.912 5549.401,-28.481 			"/>
			<polygon fill="#3BB0C9" points="1729.676,281.412 -30.793,91.106 1306.488,65.887 			"/>
			<polygon fill="#46A8C6" points="2254.43,70.472 3530.624,108.189 3972.938,152.545 			"/>
			<polygon fill="#02A1BC" points="3530.624,108.189 2462.028,43.438 1255.706,68.18 			"/>
			<polygon fill="#0084AD" points="3972.312,152.912 3530.624,108.189 5549.401,-28.481 			"/>
			<polygon fill="#08A7C1" points="2462.028,43.438 3530.624,108.189 3309.07,-56.588 			"/>
			<polygon fill="#009DB7" points="3530.624,108.189 5549.401,-28.481 3309.07,-56.588 			"/>
			<polygon fill="#008EAF" points="2462.028,43.438 -30.793,95.971 -138.002,-20.825 			"/>
			<polygon fill="#46A8C6" points="2462.395,43.583 3309.07,-54.291 -67.521,-18.533 			"/>
			<polygon fill="#3BB0C9" points="-30.793,95.971 -1159.3,1.688 -132.358,-9.773 			"/>
			<polygon fill="#0099BC" points="1729.676,281.412 3134.667,100.279 1278.275,63.596 			"/>
			<polygon fill="#50B2CC" points="6676.295,265.359 7784.729,228.555 5211.117,-108.365 			"/>
		</g>
		<path opacity="0.1" clip-path="url(#SVGID_4_)" fill="#00809E" d="M-1159.293,1.701L-30.782,95.997l37.648-0.771l1722.848,186.288
			L3065.509,109.41l924.942,43.753l2685.844,112.641l1108.434-37.141l1673.5-31.834l3.271,0.182h0.545l3630.33,83.492l107.125,4.318
			l-51.5-1.811h0.131l51.369,1.854l1350.922-124.024L16618.68-13.925l28.789-0.549L-1159.293,1.701z M13085.596,278.144
			l-0.637-0.025l-2550.021-132.171l-193.115,3.18l184.9-3.464l8.215,0.284l2.143-0.085L13085.596,278.144z"/>
	</g>
</g>
<g>
</g>
<g>
</g>
<g>
</g>
<g>
</g>
<g>
</g>
<g>
</g>
</svg>
