<?xml version="1.0" encoding="utf-8"?>
<!-- Generator: Adobe Illustrator 16.0.0, SVG Export Plug-In . SVG Version: 6.00 Build 0)  -->
<!DOCTYPE svg PUBLIC "-//W3C//DTD SVG 1.1//EN" "http://www.w3.org/Graphics/SVG/1.1/DTD/svg11.dtd">
<svg version="1.1" id="Layer_1" xmlns="http://www.w3.org/2000/svg" xmlns:xlink="http://www.w3.org/1999/xlink" x="0px" y="0px"
	 width="12756.867px" height="129px" viewBox="0 0 12756.867 129" enable-background="new 0 0 12756.867 129" xml:space="preserve">
<g>
	<defs>
		<polygon id="SVGID_1_" points="12756.867,128.422 12292.793,3.471 12007.367,45.121 11738.369,1.157 10977.576,33.552 
			10775.314,9.255 10502.211,16.197 10290.148,0 10067.197,38.938 9935.469,3.471 9650.041,45.121 9381.043,1.157 8620.252,33.552 
			8417.99,9.255 8144.885,16.197 7932.824,0 7709.872,38.938 7578.144,3.471 7292.716,45.121 7023.718,1.157 6262.928,33.552 
			6060.667,9.255 5787.562,16.197 5575.5,0 5353.17,38.83 5221.845,3.471 4936.419,45.121 4667.421,1.157 3906.63,33.552 
			3704.368,9.255 3431.263,16.197 3219.202,0 2996.249,38.938 2864.52,3.471 2579.094,45.121 2310.096,1.157 1549.305,33.552 
			1347.043,9.255 1073.938,16.197 861.877,0 583.648,48.592 266.945,42.808 0,129 2358.595,128.59 2357.325,129 4714.892,128.59 
			4713.624,129 7072.216,128.59 7070.948,129 9429.541,128.59 9428.271,129 		"/>
	</defs>
	<clipPath id="SVGID_2_">
		<use xlink:href="#SVGID_1_"  overflow="visible"/>
	</clipPath>
	<polygon opacity="0.4" clip-path="url(#SVGID_2_)" fill="#047C99" points="37.978,135.645 12731.006,140.858 12731.25,-18.145 
		38.06,-23.357 	"/>
	<g clip-path="url(#SVGID_2_)">
		<g>
			<defs>
				<polygon id="SVGID_3_" points="583.648,48.592 861.877,0 1073.938,16.197 1347.043,9.255 1549.305,33.552 2310.096,1.157 
					2579.094,45.121 2864.52,3.471 3328.593,128.422 0,129 266.945,42.808 				"/>
			</defs>
			<clipPath id="SVGID_4_">
				<use xlink:href="#SVGID_3_"  overflow="visible"/>
			</clipPath>
			<polygon clip-path="url(#SVGID_4_)" fill="#3BB0C9" points="1814.679,71.212 1987.994,20.583 2047.055,56.545 			"/>
			<polygon clip-path="url(#SVGID_4_)" fill="#079ABF" points="2050.511,58.782 1987.367,20.634 2668.418,70.382 			"/>
			<polygon clip-path="url(#SVGID_4_)" fill="#0491B3" points="2668.158,69.914 2913.969,29.951 2851.339,94.137 			"/>
			<polygon clip-path="url(#SVGID_4_)" fill="#47A8C6" points="1325.313,135.79 2183.316,82.621 2607.786,112.271 			"/>
			<polygon clip-path="url(#SVGID_4_)" fill="#046F97" points="2851.339,94.137 2880.948,121.288 2607.786,112.271 			"/>
			<polygon clip-path="url(#SVGID_4_)" fill="#73B1C8" points="1814.679,71.212 1276.151,138.699 1682.89,44.268 			"/>
			<polygon clip-path="url(#SVGID_4_)" fill="#77C4D5" points="2050.681,56.305 1208.096,147.126 1814.679,71.212 			"/>
			<polygon clip-path="url(#SVGID_4_)" fill="#0491B3" points="2668.158,69.914 2183.316,82.621 2047.055,56.545 			"/>
			<polygon clip-path="url(#SVGID_4_)" fill="#3BB0C9" points="1285.096,137.838 2191.239,83.994 2048.28,56.178 			"/>
			<polygon clip-path="url(#SVGID_4_)" fill="#0491B3" points="2668.158,69.914 2607.786,112.271 2851.339,94.137 			"/>
			<polygon clip-path="url(#SVGID_4_)" fill="#079ABF" points="2183.316,82.621 2607.786,112.271 2668.158,69.914 			"/>
			<polygon clip-path="url(#SVGID_4_)" fill="#4397B5" points="1814.679,71.212 1988.394,20.634 1682.89,44.268 			"/>
			<polygon clip-path="url(#SVGID_4_)" fill="#079ABF" points="2881.29,121.479 2913.969,29.951 2851.339,94.137 			"/>
			<polygon clip-path="url(#SVGID_4_)" fill="#3A98B6" points="3291.439,134.204 2913.969,29.951 2880.948,121.288 			"/>
			<polygon clip-path="url(#SVGID_4_)" fill="#0E84AE" points="2611.892,112.271 3295.544,134.204 2931.7,160.108 			"/>
			<polygon clip-path="url(#SVGID_4_)" fill="#3BB0C9" points="1289.564,135.778 2609.895,112.225 2941.866,160.816 			"/>
			<polygon clip-path="url(#SVGID_4_)" fill="#046F97" points="1481.2,91.207 989.504,14.039 1276.151,138.699 			"/>
			<polygon clip-path="url(#SVGID_4_)" fill="#3BB0C9" points="989.504,14.218 288.685,80.215 497.673,99.883 			"/>
			<polygon clip-path="url(#SVGID_4_)" fill="#47A8C6" points="497.673,99.883 908.817,60.115 989.3,14.157 			"/>
			<polygon clip-path="url(#SVGID_4_)" fill="#0491B3" points="908.817,60.115 714.376,115.577 497.673,99.883 			"/>
			<polygon clip-path="url(#SVGID_4_)" fill="#0E84AE" points="989.186,14.039 908.817,60.115 1276.151,138.699 			"/>
			<polygon clip-path="url(#SVGID_4_)" fill="#0E84AE" points="714.376,115.577 908.817,60.115 868.503,147.736 			"/>
			<polygon clip-path="url(#SVGID_4_)" fill="#0491B3" points="908.817,60.115 1276.151,138.699 868.503,147.736 			"/>
			<polygon clip-path="url(#SVGID_4_)" fill="#079ABF" points="714.376,115.577 200.208,72.889 254.102,136.239 			"/>
			<polygon clip-path="url(#SVGID_4_)" fill="#47A8C6" points="714.376,115.577 868.503,147.736 254.102,136.239 			"/>
			<polygon clip-path="url(#SVGID_4_)" fill="#3BB0C9" points="200.208,72.889 55.442,129 248.977,129 			"/>
			<path opacity="0.1" clip-path="url(#SVGID_4_)" fill="#09809E" d="M3290.896,134.055L2913.969,29.951l-245.811,39.963
				l-8.699-0.187l-671.271-49.035l0.206-0.059l-0.281,0.021l-0.118-0.071l-0.263,0.076l-0.364-0.025l0.117,0.069L1682.89,44.268
				l-201.979,46.375L989.504,13h-0.318l-0.346,0.717l-0.549,0.356L288.685,80.085l1.76,0.229l-90.237-7.459l-144.766,56.13
				l-0.514,4.347L3290.896,134.055z M1459.719,127.461l-119.673,7.416l-7.333,0.132L1459.719,127.461z M2610.923,112.375
				l2.137,0.071l75.529,11.296L2610.923,112.375z M2880.646,120.894l-0.134-0.004l-29.173-26.753L2880.646,120.894z"/>
		</g>
		<g>
			<defs>
				<polygon id="SVGID_5_" points="2940.974,48.592 3219.202,0 3431.263,16.197 3704.368,9.255 3906.63,33.552 4667.421,1.157 
					4936.419,45.121 5221.845,3.471 5685.918,128.422 2357.325,129 2624.27,42.808 				"/>
			</defs>
			<clipPath id="SVGID_6_">
				<use xlink:href="#SVGID_5_"  overflow="visible"/>
			</clipPath>
			<polygon clip-path="url(#SVGID_6_)" fill="#3BB0C9" points="4172.003,71.212 4345.319,20.583 4404.38,56.545 			"/>
			<polygon clip-path="url(#SVGID_6_)" fill="#079ABF" points="4407.836,58.782 4344.692,20.634 5025.743,70.382 			"/>
			<polygon clip-path="url(#SVGID_6_)" fill="#0491B3" points="5025.482,69.914 5271.293,29.951 5208.665,94.137 			"/>
			<polygon clip-path="url(#SVGID_6_)" fill="#47A8C6" points="3682.638,135.79 4540.641,82.621 4965.111,112.271 			"/>
			<polygon clip-path="url(#SVGID_6_)" fill="#046F97" points="5208.665,94.137 5238.272,121.288 4965.111,112.271 			"/>
			<polygon clip-path="url(#SVGID_6_)" fill="#73B1C8" points="4172.003,71.212 3633.476,138.699 4040.214,44.268 			"/>
			<polygon clip-path="url(#SVGID_6_)" fill="#77C4D5" points="4408.006,56.305 3565.42,147.126 4172.003,71.212 			"/>
			<polygon clip-path="url(#SVGID_6_)" fill="#0491B3" points="5025.482,69.914 4540.641,82.621 4404.38,56.545 			"/>
			<polygon clip-path="url(#SVGID_6_)" fill="#3BB0C9" points="3642.421,137.838 4548.563,83.994 4405.605,56.178 			"/>
			<polygon clip-path="url(#SVGID_6_)" fill="#0491B3" points="5025.482,69.914 4965.111,112.271 5208.665,94.137 			"/>
			<polygon clip-path="url(#SVGID_6_)" fill="#079ABF" points="4540.641,82.621 4965.111,112.271 5025.482,69.914 			"/>
			<polygon clip-path="url(#SVGID_6_)" fill="#4397B5" points="4172.003,71.212 4345.719,20.634 4040.214,44.268 			"/>
			<polygon clip-path="url(#SVGID_6_)" fill="#079ABF" points="5238.614,121.479 5271.293,29.951 5208.665,94.137 			"/>
			<polygon clip-path="url(#SVGID_6_)" fill="#3A98B6" points="5648.764,134.204 5271.293,29.951 5238.272,121.288 			"/>
			<polygon clip-path="url(#SVGID_6_)" fill="#0E84AE" points="4969.217,112.271 5652.87,134.204 5289.024,160.108 			"/>
			<polygon clip-path="url(#SVGID_6_)" fill="#3BB0C9" points="3646.889,135.778 4967.22,112.225 5299.19,160.816 			"/>
			<polygon clip-path="url(#SVGID_6_)" fill="#046F97" points="3838.525,91.207 3346.829,14.039 3633.476,138.699 			"/>
			<polygon clip-path="url(#SVGID_6_)" fill="#3BB0C9" points="3346.829,14.218 2646.01,80.215 2854.998,99.883 			"/>
			<polygon clip-path="url(#SVGID_6_)" fill="#47A8C6" points="2854.998,99.883 3266.142,60.115 3346.625,14.157 			"/>
			<polygon clip-path="url(#SVGID_6_)" fill="#0491B3" points="3266.142,60.115 3071.701,115.577 2854.998,99.883 			"/>
			<polygon clip-path="url(#SVGID_6_)" fill="#0E84AE" points="3346.511,14.039 3266.142,60.115 3633.476,138.699 			"/>
			<polygon clip-path="url(#SVGID_6_)" fill="#0E84AE" points="3071.701,115.577 3266.142,60.115 3225.828,147.736 			"/>
			<polygon clip-path="url(#SVGID_6_)" fill="#0491B3" points="3266.142,60.115 3633.476,138.699 3225.828,147.736 			"/>
			<polygon clip-path="url(#SVGID_6_)" fill="#079ABF" points="3071.701,115.577 2557.534,72.889 2611.426,136.239 			"/>
			<polygon clip-path="url(#SVGID_6_)" fill="#47A8C6" points="3071.701,115.577 3225.828,147.736 2611.426,136.239 			"/>
			<polygon clip-path="url(#SVGID_6_)" fill="#3BB0C9" points="2557.534,72.889 2412.767,129 2606.302,129 			"/>
			<path opacity="0.1" clip-path="url(#SVGID_6_)" fill="#09809E" d="M5648.221,134.055L5271.293,29.951l-245.812,39.963
				l-8.698-0.187l-671.271-49.035l0.207-0.059l-0.282,0.021l-0.119-0.071l-0.263,0.076l-0.364-0.025l0.116,0.069l-304.594,23.564
				l-201.979,46.375L3346.829,13h-0.318l-0.346,0.717l-0.548,0.356L2646.01,80.085l1.76,0.229l-90.236-7.459l-144.767,56.13
				l-0.513,4.347L5648.221,134.055z M3817.043,127.461l-119.673,7.416l-7.333,0.132L3817.043,127.461z M4968.248,112.375
				l2.137,0.071l75.529,11.296L4968.248,112.375z M5237.971,120.894l-0.133-0.004l-29.173-26.753L5237.971,120.894z"/>
		</g>
		<g>
			<defs>
				<polygon id="SVGID_7_" points="5297.272,48.592 5575.5,0 5787.562,16.197 6060.667,9.255 6262.928,33.552 7023.718,1.157 
					7292.716,45.121 7578.144,3.471 8042.216,128.422 4713.624,129 4980.568,42.808 				"/>
			</defs>
			<clipPath id="SVGID_8_">
				<use xlink:href="#SVGID_7_"  overflow="visible"/>
			</clipPath>
			<polygon clip-path="url(#SVGID_8_)" fill="#3BB0C9" points="6528.302,71.212 6701.617,20.583 6760.678,56.545 			"/>
			<polygon clip-path="url(#SVGID_8_)" fill="#079ABF" points="6764.134,58.782 6700.991,20.634 7382.041,70.382 			"/>
			<polygon clip-path="url(#SVGID_8_)" fill="#0491B3" points="7381.78,69.914 7627.592,29.951 7564.963,94.137 			"/>
			<polygon clip-path="url(#SVGID_8_)" fill="#47A8C6" points="6038.936,135.79 6896.939,82.621 7321.409,112.271 			"/>
			<polygon clip-path="url(#SVGID_8_)" fill="#046F97" points="7564.963,94.137 7594.571,121.288 7321.409,112.271 			"/>
			<polygon clip-path="url(#SVGID_8_)" fill="#73B1C8" points="6528.302,71.212 5989.774,138.699 6396.513,44.268 			"/>
			<polygon clip-path="url(#SVGID_8_)" fill="#77C4D5" points="6764.304,56.305 5921.719,147.126 6528.302,71.212 			"/>
			<polygon clip-path="url(#SVGID_8_)" fill="#0491B3" points="7381.78,69.914 6896.939,82.621 6760.678,56.545 			"/>
			<polygon clip-path="url(#SVGID_8_)" fill="#3BB0C9" points="5998.719,137.838 6904.862,83.994 6761.904,56.178 			"/>
			<polygon clip-path="url(#SVGID_8_)" fill="#0491B3" points="7381.78,69.914 7321.409,112.271 7564.963,94.137 			"/>
			<polygon clip-path="url(#SVGID_8_)" fill="#079ABF" points="6896.939,82.621 7321.409,112.271 7381.78,69.914 			"/>
			<polygon clip-path="url(#SVGID_8_)" fill="#4397B5" points="6528.302,71.212 6702.017,20.634 6396.513,44.268 			"/>
			<polygon clip-path="url(#SVGID_8_)" fill="#079ABF" points="7594.912,121.479 7627.592,29.951 7564.963,94.137 			"/>
			<polygon clip-path="url(#SVGID_8_)" fill="#3A98B6" points="8005.062,134.204 7627.592,29.951 7594.571,121.288 			"/>
			<polygon clip-path="url(#SVGID_8_)" fill="#0E84AE" points="7325.515,112.271 8009.167,134.204 7645.323,160.108 			"/>
			<polygon clip-path="url(#SVGID_8_)" fill="#3BB0C9" points="6003.188,135.778 7323.518,112.225 7655.488,160.816 			"/>
			<polygon clip-path="url(#SVGID_8_)" fill="#046F97" points="6194.823,91.207 5703.127,14.039 5989.774,138.699 			"/>
			<polygon clip-path="url(#SVGID_8_)" fill="#3BB0C9" points="5703.127,14.218 5002.308,80.215 5211.296,99.883 			"/>
			<polygon clip-path="url(#SVGID_8_)" fill="#47A8C6" points="5211.296,99.883 5622.44,60.115 5702.923,14.157 			"/>
			<polygon clip-path="url(#SVGID_8_)" fill="#0491B3" points="5622.44,60.115 5427.999,115.577 5211.296,99.883 			"/>
			<polygon clip-path="url(#SVGID_8_)" fill="#0E84AE" points="5702.809,14.039 5622.44,60.115 5989.774,138.699 			"/>
			<polygon clip-path="url(#SVGID_8_)" fill="#0E84AE" points="5427.999,115.577 5622.44,60.115 5582.126,147.736 			"/>
			<polygon clip-path="url(#SVGID_8_)" fill="#0491B3" points="5622.44,60.115 5989.774,138.699 5582.126,147.736 			"/>
			<polygon clip-path="url(#SVGID_8_)" fill="#079ABF" points="5427.999,115.577 4913.832,72.889 4967.725,136.239 			"/>
			<polygon clip-path="url(#SVGID_8_)" fill="#47A8C6" points="5427.999,115.577 5582.126,147.736 4967.725,136.239 			"/>
			<polygon clip-path="url(#SVGID_8_)" fill="#3BB0C9" points="4913.832,72.889 4769.066,129 4962.601,129 			"/>
			<path opacity="0.1" clip-path="url(#SVGID_8_)" fill="#09809E" d="M8004.519,134.055L7627.592,29.951L7381.78,69.914
				l-8.697-0.187L6701.81,20.692l0.207-0.059l-0.281,0.021l-0.119-0.071l-0.262,0.076l-0.364-0.025l0.116,0.069l-304.594,23.564
				l-201.979,46.375L5703.127,13h-0.318l-0.346,0.717l-0.548,0.356l-699.606,66.012l1.76,0.229l-90.236-7.459l-144.766,56.13
				l-0.514,4.347L8004.519,134.055z M6173.342,127.461l-119.673,7.416l-7.333,0.132L6173.342,127.461z M7324.546,112.375
				l2.136,0.071l75.529,11.296L7324.546,112.375z M7594.268,120.894l-0.132-0.004l-29.173-26.753L7594.268,120.894z"/>
		</g>
		<g>
			<defs>
				<polygon id="SVGID_9_" points="7654.595,48.592 7932.824,0 8144.885,16.197 8417.99,9.255 8620.252,33.552 9381.043,1.157 
					9650.041,45.121 9935.469,3.471 10399.541,128.422 7070.948,129 7337.892,42.808 				"/>
			</defs>
			<clipPath id="SVGID_10_">
				<use xlink:href="#SVGID_9_"  overflow="visible"/>
			</clipPath>
			<polygon clip-path="url(#SVGID_10_)" fill="#3BB0C9" points="8885.627,71.212 9058.941,20.583 9118.004,56.545 			"/>
			<polygon clip-path="url(#SVGID_10_)" fill="#079ABF" points="9121.459,58.782 9058.316,20.634 9739.365,70.382 			"/>
			<polygon clip-path="url(#SVGID_10_)" fill="#0491B3" points="9739.105,69.914 9984.918,29.951 9922.287,94.137 			"/>
			<polygon clip-path="url(#SVGID_10_)" fill="#47A8C6" points="8396.262,135.79 9254.264,82.621 9678.732,112.271 			"/>
			<polygon clip-path="url(#SVGID_10_)" fill="#046F97" points="9922.287,94.137 9951.896,121.288 9678.732,112.271 			"/>
			<polygon clip-path="url(#SVGID_10_)" fill="#73B1C8" points="8885.627,71.212 8347.1,138.699 8753.836,44.268 			"/>
			<polygon clip-path="url(#SVGID_10_)" fill="#77C4D5" points="9121.629,56.305 8279.043,147.126 8885.627,71.212 			"/>
			<polygon clip-path="url(#SVGID_10_)" fill="#0491B3" points="9739.105,69.914 9254.264,82.621 9118.004,56.545 			"/>
			<polygon clip-path="url(#SVGID_10_)" fill="#3BB0C9" points="8356.045,137.838 9262.186,83.994 9119.229,56.178 			"/>
			<polygon clip-path="url(#SVGID_10_)" fill="#0491B3" points="9739.105,69.914 9678.732,112.271 9922.287,94.137 			"/>
			<polygon clip-path="url(#SVGID_10_)" fill="#079ABF" points="9254.264,82.621 9678.732,112.271 9739.105,69.914 			"/>
			<polygon clip-path="url(#SVGID_10_)" fill="#4397B5" points="8885.627,71.212 9059.342,20.634 8753.836,44.268 			"/>
			<polygon clip-path="url(#SVGID_10_)" fill="#079ABF" points="9952.236,121.479 9984.918,29.951 9922.287,94.137 			"/>
			<polygon clip-path="url(#SVGID_10_)" fill="#3A98B6" points="10362.387,134.204 9984.918,29.951 9951.896,121.288 			"/>
			<polygon clip-path="url(#SVGID_10_)" fill="#0E84AE" points="9682.84,112.271 10366.492,134.204 10002.648,160.108 			"/>
			<polygon clip-path="url(#SVGID_10_)" fill="#3BB0C9" points="8360.512,135.778 9680.844,112.225 10012.812,160.816 			"/>
			<polygon clip-path="url(#SVGID_10_)" fill="#046F97" points="8552.148,91.207 8060.453,14.039 8347.1,138.699 			"/>
			<polygon clip-path="url(#SVGID_10_)" fill="#3BB0C9" points="8060.453,14.218 7359.633,80.215 7568.621,99.883 			"/>
			<polygon clip-path="url(#SVGID_10_)" fill="#47A8C6" points="7568.621,99.883 7979.763,60.115 8060.248,14.157 			"/>
			<polygon clip-path="url(#SVGID_10_)" fill="#0491B3" points="7979.763,60.115 7785.325,115.577 7568.621,99.883 			"/>
			<polygon clip-path="url(#SVGID_10_)" fill="#0E84AE" points="8060.134,14.039 7979.763,60.115 8347.1,138.699 			"/>
			<polygon clip-path="url(#SVGID_10_)" fill="#0E84AE" points="7785.325,115.577 7979.763,60.115 7939.451,147.736 			"/>
			<polygon clip-path="url(#SVGID_10_)" fill="#0491B3" points="7979.763,60.115 8347.1,138.699 7939.451,147.736 			"/>
			<polygon clip-path="url(#SVGID_10_)" fill="#079ABF" points="7785.325,115.577 7271.156,72.889 7325.05,136.239 			"/>
			<polygon clip-path="url(#SVGID_10_)" fill="#47A8C6" points="7785.325,115.577 7939.451,147.736 7325.05,136.239 			"/>
			<polygon clip-path="url(#SVGID_10_)" fill="#3BB0C9" points="7271.156,72.889 7126.39,129 7319.924,129 			"/>
			<path opacity="0.1" clip-path="url(#SVGID_10_)" fill="#09809E" d="M10361.844,134.055L9984.918,29.951l-245.812,39.963
				l-8.697-0.187l-671.271-49.035l0.205-0.059l-0.281,0.021l-0.119-0.071l-0.262,0.076l-0.363-0.025l0.115,0.069l-304.596,23.564
				l-201.979,46.375L8060.453,13h-0.318l-0.348,0.717l-0.547,0.356l-699.606,66.012l1.759,0.229l-90.236-7.459l-144.766,56.13
				l-0.514,4.347L10361.844,134.055z M8530.666,127.461l-119.672,7.416l-7.334,0.132L8530.666,127.461z M9681.871,112.375
				l2.137,0.071l75.529,11.296L9681.871,112.375z M9951.594,120.894l-0.133-0.004l-29.174-26.753L9951.594,120.894z"/>
		</g>
		<g>
			<defs>
				<polygon id="SVGID_11_" points="10011.92,48.592 10290.148,0 10502.211,16.197 10775.314,9.255 10977.576,33.552 
					11738.369,1.157 12007.367,45.121 12292.793,3.471 12756.867,128.422 9428.271,129 9695.217,42.808 				"/>
			</defs>
			<clipPath id="SVGID_12_">
				<use xlink:href="#SVGID_11_"  overflow="visible"/>
			</clipPath>
			<polygon clip-path="url(#SVGID_12_)" fill="#3BB0C9" points="11242.951,71.212 11416.268,20.583 11475.328,56.545 			"/>
			<polygon clip-path="url(#SVGID_12_)" fill="#079ABF" points="11478.783,58.782 11415.641,20.634 12096.689,70.382 			"/>
			<polygon clip-path="url(#SVGID_12_)" fill="#0491B3" points="12096.43,69.914 12342.242,29.951 12279.613,94.137 			"/>
			<polygon clip-path="url(#SVGID_12_)" fill="#47A8C6" points="10753.586,135.79 11611.588,82.621 12036.059,112.271 			"/>
			<polygon clip-path="url(#SVGID_12_)" fill="#046F97" points="12279.613,94.137 12309.221,121.288 12036.059,112.271 			"/>
			<polygon clip-path="url(#SVGID_12_)" fill="#73B1C8" points="11242.951,71.212 10704.424,138.699 11111.162,44.268 			"/>
			<polygon clip-path="url(#SVGID_12_)" fill="#77C4D5" points="11478.955,56.305 10636.369,147.126 11242.951,71.212 			"/>
			<polygon clip-path="url(#SVGID_12_)" fill="#0491B3" points="12096.43,69.914 11611.588,82.621 11475.328,56.545 			"/>
			<polygon clip-path="url(#SVGID_12_)" fill="#3BB0C9" points="10713.369,137.838 11619.512,83.994 11476.555,56.178 			"/>
			<polygon clip-path="url(#SVGID_12_)" fill="#0491B3" points="12096.43,69.914 12036.059,112.271 12279.613,94.137 			"/>
			<polygon clip-path="url(#SVGID_12_)" fill="#079ABF" points="11611.588,82.621 12036.059,112.271 12096.43,69.914 			"/>
			<polygon clip-path="url(#SVGID_12_)" fill="#4397B5" points="11242.951,71.212 11416.668,20.634 11111.162,44.268 			"/>
			<polygon clip-path="url(#SVGID_12_)" fill="#079ABF" points="12309.562,121.479 12342.242,29.951 12279.613,94.137 			"/>
			<polygon clip-path="url(#SVGID_12_)" fill="#3A98B6" points="12719.713,134.204 12342.242,29.951 12309.221,121.288 			"/>
			<polygon clip-path="url(#SVGID_12_)" fill="#0E84AE" points="12040.166,112.271 12723.816,134.204 12359.973,160.108 			"/>
			<polygon clip-path="url(#SVGID_12_)" fill="#3BB0C9" points="10717.838,135.778 12038.168,112.225 12370.139,160.816 			"/>
			<polygon clip-path="url(#SVGID_12_)" fill="#046F97" points="10909.473,91.207 10417.777,14.039 10704.424,138.699 			"/>
			<polygon clip-path="url(#SVGID_12_)" fill="#3BB0C9" points="10417.777,14.218 9716.959,80.215 9925.945,99.883 			"/>
			<polygon clip-path="url(#SVGID_12_)" fill="#47A8C6" points="9925.945,99.883 10337.088,60.115 10417.572,14.157 			"/>
			<polygon clip-path="url(#SVGID_12_)" fill="#0491B3" points="10337.088,60.115 10142.65,115.577 9925.945,99.883 			"/>
			<polygon clip-path="url(#SVGID_12_)" fill="#0E84AE" points="10417.459,14.039 10337.088,60.115 10704.424,138.699 			"/>
			<polygon clip-path="url(#SVGID_12_)" fill="#0E84AE" points="10142.65,115.577 10337.088,60.115 10296.777,147.736 			"/>
			<polygon clip-path="url(#SVGID_12_)" fill="#0491B3" points="10337.088,60.115 10704.424,138.699 10296.777,147.736 			"/>
			<polygon clip-path="url(#SVGID_12_)" fill="#079ABF" points="10142.65,115.577 9628.48,72.889 9682.375,136.239 			"/>
			<polygon clip-path="url(#SVGID_12_)" fill="#47A8C6" points="10142.65,115.577 10296.777,147.736 9682.375,136.239 			"/>
			<polygon clip-path="url(#SVGID_12_)" fill="#3BB0C9" points="9628.48,72.889 9483.715,129 9677.25,129 			"/>
			<path opacity="0.1" clip-path="url(#SVGID_12_)" fill="#09809E" d="M12719.17,134.055l-376.928-104.104l-245.812,39.963
				l-8.697-0.187l-671.271-49.035l0.207-0.059l-0.283,0.021l-0.117-0.071l-0.264,0.076l-0.363-0.025l0.117,0.069l-304.596,23.564
				l-201.98,46.375L10417.777,13h-0.318l-0.348,0.717l-0.547,0.356l-699.605,66.012l1.758,0.229l-90.236-7.459l-144.766,56.13
				l-0.514,4.347L12719.17,134.055z M10887.99,127.461l-119.672,7.416l-7.332,0.132L10887.99,127.461z M12039.197,112.375
				l2.135,0.071l75.529,11.296L12039.197,112.375z M12308.918,120.894l-0.133-0.004l-29.172-26.753L12308.918,120.894z"/>
		</g>
	</g>
</g>
<g>
</g>
<g>
</g>
<g>
</g>
<g>
</g>
<g>
</g>
<g>
</g>
</svg>
