<?xml version="1.0" encoding="utf-8"?>
<!-- Generator: Adobe Illustrator 16.0.0, SVG Export Plug-In . SVG Version: 6.00 Build 0)  -->
<!DOCTYPE svg PUBLIC "-//W3C//DTD SVG 1.1//EN" "http://www.w3.org/Graphics/SVG/1.1/DTD/svg11.dtd">
<svg version="1.1" id="Layer_1" xmlns="http://www.w3.org/2000/svg" xmlns:xlink="http://www.w3.org/1999/xlink" x="0px" y="0px"
	 width="12761.998px" height="186.169px" viewBox="0 0 12761.998 186.169" enable-background="new 0 0 12761.998 186.169"
	 xml:space="preserve">
<g>
	<defs>
		<polygon id="SVGID_1_" points="12761.998,185.284 12297.926,58.673 12012.498,6.77 11743.5,67.697 10982.711,6.77 
			10782.502,66.569 10507.344,0 10295.283,86.436 10017.055,14.667 9896.303,50.804 9654.146,6.77 9385.148,67.697 8624.359,6.77 
			8424.15,66.569 8148.994,0 7936.932,86.436 7658.704,14.667 7537.951,50.804 7295.795,6.77 7026.797,67.697 6266.008,6.77 
			6065.799,66.569 5790.641,0 5578.58,86.436 5300.352,14.667 5179.599,50.804 4937.444,6.77 4668.446,67.697 3907.656,6.77 
			3707.448,66.569 3432.29,0 3220.228,86.436 2942,14.667 2821.247,50.804 2579.092,6.77 2310.095,67.697 1549.305,6.77 
			1349.096,66.569 1073.938,0 861.876,86.436 583.648,14.667 266.944,109.445 0,186.169 2360.535,185.541 2358.351,186.169 
			4718.886,185.541 4716.703,186.169 7077.238,185.541 7075.055,186.169 9435.59,185.541 9433.406,186.169 		"/>
	</defs>
	<clipPath id="SVGID_2_">
		<use xlink:href="#SVGID_1_"  overflow="visible"/>
	</clipPath>
	<polygon opacity="0.4" clip-path="url(#SVGID_2_)" fill="#047C99" points="-90.36,206.479 12788.449,214.09 12788.695,-14.356 
		-90.28,-21.969 	"/>
	<g clip-path="url(#SVGID_2_)">
		<g>
			<defs>
				<polygon id="SVGID_3_" points="583.648,14.667 861.876,86.436 1073.938,0 1349.096,66.569 1549.305,6.77 2310.095,67.697 
					2579.092,6.77 2864.52,58.673 3328.592,185.284 0,186.169 266.944,109.445 				"/>
			</defs>
			<clipPath id="SVGID_4_">
				<use xlink:href="#SVGID_3_"  overflow="visible"/>
			</clipPath>
			<g clip-path="url(#SVGID_4_)">
				<polygon fill="#09A7C1" points="1814.677,97.718 1987.993,90.177 2047.053,109.113 				"/>
				<polygon fill="#3BB0C9" points="2050.509,112.539 1987.365,90.254 2668.417,47.929 				"/>
				<polygon fill="#2591AF" points="2668.155,47.215 2913.968,107.9 2851.339,132.807 				"/>
				<polygon fill="#2591AF" points="1322.402,195.76 2183.314,115.179 2607.785,160.564 				"/>
				<polygon fill="#50B2CB" points="2851.339,132.807 2881.46,174.511 2607.785,160.564 				"/>
				<polygon fill="#09A7C1" points="1814.677,97.718 1276.151,201.016 1682.889,74.527 				"/>
				<polygon fill="#3BB0C9" points="2048.285,108.693 1208.095,213.912 1814.677,97.718 				"/>
				<polygon fill="#3BB0C9" points="2668.155,47.215 2183.314,115.179 2047.053,109.113 				"/>
				<polygon fill="#3BB0C9" points="1285.096,199.697 2184.665,115.463 2048.279,108.555 				"/>
				<polygon fill="#0E84AE" points="2668.155,47.215 2607.785,160.564 2851.339,132.807 				"/>
				<polygon fill="#079ABF" points="2176.623,116.214 2607.785,160.564 2668.155,47.215 				"/>
				<polygon fill="#50B2CB" points="1814.677,97.718 1988.392,90.254 1682.889,74.527 				"/>
				<polygon fill="#3BB0C9" points="2881.289,174.659 2913.968,107.9 2851.339,132.807 				"/>
				<polygon fill="#0E84AE" points="3291.438,194.136 2913.968,107.9 2880.947,174.365 				"/>
				<polygon fill="#079ABF" points="2608.354,160.22 3295.544,194.136 2931.699,233.785 				"/>
				<polygon fill="#3BB0C9" points="1289.564,196.544 2609.894,160.492 2935.083,233.35 2941.865,234.867 				"/>
				<polygon fill="#09A7C1" points="1481.199,56.415 989.504,111.751 1276.151,201.016 				"/>
				<polygon fill="#3BB0C9" points="581.118,48.516 260.784,142.166 504.114,154.577 				"/>
				<polygon fill="#47A8C6" points="676.601,152.32 908.816,133.76 989.299,111.932 				"/>
				<polygon fill="#01A1BC" points="908.816,133.76 714.375,165.624 494.874,153.448 				"/>
				<polygon fill="#0E84AE" points="989.186,111.751 908.816,133.76 1276.151,201.016 				"/>
				<polygon fill="#09A7C1" points="714.375,165.624 908.816,133.76 868.502,214.847 				"/>
				<polygon fill="#079DB7" points="908.816,133.76 1276.151,201.016 868.502,214.847 				"/>
				<polygon fill="#068FB0" points="714.375,165.624 260.784,139.772 241.277,197.248 				"/>
				<polygon fill="#47A8C6" points="714.442,165.553 868.502,213.717 254.101,196.12 				"/>
				<polygon fill="#3BB0C9" points="260.784,139.772 55.442,186.169 242.303,191.81 				"/>
				<polygon fill="#079ABC" points="581.118,48.516 836.768,137.652 498.981,155.704 				"/>
				<polygon fill="#50B2CB" points="1481.199,56.415 1682.889,74.527 1214.597,240.327 				"/>
			</g>
			<path opacity="0.1" clip-path="url(#SVGID_4_)" fill="#09809E" d="M3295.544,194.136l-5.238-0.258L2913.968,107.9
				l-245.813-60.864l-9.347,1.133h-0.023l9.371-1.135l-19.493,2.048l-660.57,41.087h-0.1l-0.595,0.029l-304.508-15.672
				l-201.69-18.303l-488.713,55.417l-168.302,21.524l-243.06-84.696L267.637,140.14l-6.851-0.379L55.443,186.163L3295.544,194.136z
				 M2183.704,115.221l-0.39-0.042l-1.495,0.14l-33.644-1.704l35.139,1.564l464-65.042l0.115-0.013L2183.704,115.221z"/>
		</g>
		<g>
			<defs>
				<polygon id="SVGID_5_" points="2942,14.667 3220.228,86.436 3432.29,0 3707.448,66.569 3907.656,6.77 4668.446,67.697 
					4937.444,6.77 5222.872,58.673 5686.944,185.284 2358.351,186.169 2625.296,109.445 				"/>
			</defs>
			<clipPath id="SVGID_6_">
				<use xlink:href="#SVGID_5_"  overflow="visible"/>
			</clipPath>
			<g clip-path="url(#SVGID_6_)">
				<polygon fill="#09A7C1" points="4173.029,97.718 4346.344,90.177 4405.405,109.113 				"/>
				<polygon fill="#3BB0C9" points="4408.861,112.539 4345.717,90.254 5026.768,47.929 				"/>
				<polygon fill="#2591AF" points="5026.507,47.215 5272.32,107.9 5209.69,132.807 				"/>
				<polygon fill="#2591AF" points="3680.753,195.76 4541.666,115.179 4966.136,160.564 				"/>
				<polygon fill="#50B2CB" points="5209.69,132.807 5239.812,174.511 4966.136,160.564 				"/>
				<polygon fill="#09A7C1" points="4173.029,97.718 3634.502,201.016 4041.241,74.527 				"/>
				<polygon fill="#3BB0C9" points="4406.636,108.693 3566.447,213.912 4173.029,97.718 				"/>
				<polygon fill="#3BB0C9" points="5026.507,47.215 4541.666,115.179 4405.405,109.113 				"/>
				<polygon fill="#3BB0C9" points="3643.447,199.697 4543.017,115.463 4406.63,108.555 				"/>
				<polygon fill="#0E84AE" points="5026.507,47.215 4966.136,160.564 5209.69,132.807 				"/>
				<polygon fill="#079ABF" points="4534.975,116.214 4966.136,160.564 5026.507,47.215 				"/>
				<polygon fill="#50B2CB" points="4173.029,97.718 4346.744,90.254 4041.241,74.527 				"/>
				<polygon fill="#3BB0C9" points="5239.641,174.659 5272.32,107.9 5209.69,132.807 				"/>
				<polygon fill="#0E84AE" points="5649.79,194.136 5272.32,107.9 5239.299,174.365 				"/>
				<polygon fill="#079ABF" points="4966.707,160.22 5653.896,194.136 5290.051,233.785 				"/>
				<polygon fill="#3BB0C9" points="3647.916,196.544 4968.246,160.492 5293.435,233.35 5300.216,234.867 				"/>
				<polygon fill="#09A7C1" points="3839.551,56.415 3347.855,111.751 3634.502,201.016 				"/>
				<polygon fill="#3BB0C9" points="2939.469,48.516 2619.136,142.166 2862.466,154.577 				"/>
				<polygon fill="#47A8C6" points="3034.953,152.32 3267.168,133.76 3347.651,111.932 				"/>
				<polygon fill="#01A1BC" points="3267.168,133.76 3072.727,165.624 2853.226,153.448 				"/>
				<polygon fill="#0E84AE" points="3347.537,111.751 3267.168,133.76 3634.502,201.016 				"/>
				<polygon fill="#09A7C1" points="3072.727,165.624 3267.168,133.76 3226.854,214.847 				"/>
				<polygon fill="#079DB7" points="3267.168,133.76 3634.502,201.016 3226.854,214.847 				"/>
				<polygon fill="#068FB0" points="3072.727,165.624 2619.136,139.772 2599.628,197.248 				"/>
				<polygon fill="#47A8C6" points="3072.794,165.553 3226.854,213.717 2612.453,196.12 				"/>
				<polygon fill="#3BB0C9" points="2619.136,139.772 2413.794,186.169 2600.655,191.81 				"/>
				<polygon fill="#079ABC" points="2939.469,48.516 3195.12,137.652 2857.333,155.704 				"/>
				<polygon fill="#50B2CB" points="3839.551,56.415 4041.241,74.527 3572.949,240.327 				"/>
			</g>
			<path opacity="0.1" clip-path="url(#SVGID_6_)" fill="#09809E" d="M5653.896,194.136l-5.238-0.258L5272.32,107.9l-245.812-60.864
				l-9.347,1.133h-0.024l9.371-1.135l-19.493,2.048l-660.57,41.087h-0.1l-0.596,0.029l-304.508-15.672l-201.69-18.303
				l-488.713,55.417l-168.302,21.524l-243.06-84.696l-313.488,91.671l-6.851-0.379l-205.343,46.402L5653.896,194.136z
				 M4542.056,115.221l-0.39-0.042l-1.495,0.14l-33.644-1.704l35.139,1.564l464-65.042l0.116-0.013L4542.056,115.221z"/>
		</g>
		<g>
			<defs>
				<polygon id="SVGID_7_" points="5300.352,14.667 5578.58,86.436 5790.641,0 6065.799,66.569 6266.008,6.77 7026.797,67.697 
					7295.795,6.77 7581.223,58.673 8045.295,185.284 4716.703,186.169 4983.647,109.445 				"/>
			</defs>
			<clipPath id="SVGID_8_">
				<use xlink:href="#SVGID_7_"  overflow="visible"/>
			</clipPath>
			<g clip-path="url(#SVGID_8_)">
				<polygon fill="#09A7C1" points="6531.38,97.718 6704.696,90.177 6763.756,109.113 				"/>
				<polygon fill="#3BB0C9" points="6767.213,112.539 6704.069,90.254 7385.12,47.929 				"/>
				<polygon fill="#2591AF" points="7384.859,47.215 7630.671,107.9 7568.042,132.807 				"/>
				<polygon fill="#2591AF" points="6039.105,195.76 6900.017,115.179 7324.488,160.564 				"/>
				<polygon fill="#50B2CB" points="7568.042,132.807 7598.164,174.511 7324.488,160.564 				"/>
				<polygon fill="#09A7C1" points="6531.38,97.718 5992.854,201.016 6399.592,74.527 				"/>
				<polygon fill="#3BB0C9" points="6764.988,108.693 5924.798,213.912 6531.38,97.718 				"/>
				<polygon fill="#3BB0C9" points="7384.859,47.215 6900.017,115.179 6763.756,109.113 				"/>
				<polygon fill="#3BB0C9" points="6001.799,199.697 6901.369,115.463 6764.982,108.555 				"/>
				<polygon fill="#0E84AE" points="7384.859,47.215 7324.488,160.564 7568.042,132.807 				"/>
				<polygon fill="#079ABF" points="6893.327,116.214 7324.488,160.564 7384.859,47.215 				"/>
				<polygon fill="#50B2CB" points="6531.38,97.718 6705.095,90.254 6399.592,74.527 				"/>
				<polygon fill="#3BB0C9" points="7597.993,174.659 7630.671,107.9 7568.042,132.807 				"/>
				<polygon fill="#0E84AE" points="8008.141,194.136 7630.671,107.9 7597.65,174.365 				"/>
				<polygon fill="#079ABF" points="7325.058,160.22 8012.248,194.136 7648.402,233.785 				"/>
				<polygon fill="#3BB0C9" points="6006.267,196.544 7326.597,160.492 7651.786,233.35 7658.568,234.867 				"/>
				<polygon fill="#09A7C1" points="6197.902,56.415 5706.207,111.751 5992.854,201.016 				"/>
				<polygon fill="#3BB0C9" points="5297.821,48.516 4977.487,142.166 5220.817,154.577 				"/>
				<polygon fill="#47A8C6" points="5393.305,152.32 5625.52,133.76 5706.002,111.932 				"/>
				<polygon fill="#01A1BC" points="5625.52,133.76 5431.079,165.624 5211.577,153.448 				"/>
				<polygon fill="#0E84AE" points="5705.889,111.751 5625.52,133.76 5992.854,201.016 				"/>
				<polygon fill="#09A7C1" points="5431.079,165.624 5625.52,133.76 5585.206,214.847 				"/>
				<polygon fill="#079DB7" points="5625.52,133.76 5992.854,201.016 5585.206,214.847 				"/>
				<polygon fill="#068FB0" points="5431.079,165.624 4977.487,139.772 4957.98,197.248 				"/>
				<polygon fill="#47A8C6" points="5431.146,165.553 5585.206,213.717 4970.804,196.12 				"/>
				<polygon fill="#3BB0C9" points="4977.487,139.772 4772.146,186.169 4959.006,191.81 				"/>
				<polygon fill="#079ABC" points="5297.821,48.516 5553.471,137.652 5215.684,155.704 				"/>
				<polygon fill="#50B2CB" points="6197.902,56.415 6399.592,74.527 5931.3,240.327 				"/>
			</g>
			<path opacity="0.1" clip-path="url(#SVGID_8_)" fill="#09809E" d="M8012.248,194.136l-5.237-0.258L7630.671,107.9
				l-245.812-60.864l-9.347,1.133h-0.024l9.371-1.135l-19.493,2.048l-660.57,41.087h-0.1l-0.596,0.029l-304.508-15.672
				l-201.69-18.303l-488.713,55.417l-168.302,21.524l-243.06-84.696L4984.34,140.14l-6.851-0.379l-205.343,46.402L8012.248,194.136z
				 M6900.408,115.221l-0.391-0.042l-1.495,0.14l-33.644-1.704l35.139,1.564l464-65.042l0.115-0.013L6900.408,115.221z"/>
		</g>
		<g>
			<defs>
				<polygon id="SVGID_9_" points="7658.704,14.667 7936.932,86.436 8148.994,0 8424.15,66.569 8624.359,6.77 9385.148,67.697 
					9654.146,6.77 9939.574,58.673 10403.646,185.284 7075.055,186.169 7342,109.445 				"/>
			</defs>
			<clipPath id="SVGID_10_">
				<use xlink:href="#SVGID_9_"  overflow="visible"/>
			</clipPath>
			<g clip-path="url(#SVGID_10_)">
				<polygon fill="#09A7C1" points="8889.732,97.718 9063.047,90.177 9122.107,109.113 				"/>
				<polygon fill="#3BB0C9" points="9125.564,112.539 9062.42,90.254 9743.471,47.929 				"/>
				<polygon fill="#2591AF" points="9743.211,47.215 9989.023,107.9 9926.395,132.807 				"/>
				<polygon fill="#2591AF" points="8397.457,195.76 9258.369,115.179 9682.84,160.564 				"/>
				<polygon fill="#50B2CB" points="9926.395,132.807 9956.516,174.511 9682.84,160.564 				"/>
				<polygon fill="#09A7C1" points="8889.732,97.718 8351.205,201.016 8757.943,74.527 				"/>
				<polygon fill="#3BB0C9" points="9123.34,108.693 8283.148,213.912 8889.732,97.718 				"/>
				<polygon fill="#3BB0C9" points="9743.211,47.215 9258.369,115.179 9122.107,109.113 				"/>
				<polygon fill="#3BB0C9" points="8360.15,199.697 9259.721,115.463 9123.334,108.555 				"/>
				<polygon fill="#0E84AE" points="9743.211,47.215 9682.84,160.564 9926.395,132.807 				"/>
				<polygon fill="#079ABF" points="9251.678,116.214 9682.84,160.564 9743.211,47.215 				"/>
				<polygon fill="#50B2CB" points="8889.732,97.718 9063.447,90.254 8757.943,74.527 				"/>
				<polygon fill="#3BB0C9" points="9956.344,174.659 9989.023,107.9 9926.395,132.807 				"/>
				<polygon fill="#0E84AE" points="10366.492,194.136 9989.023,107.9 9956.002,174.365 				"/>
				<polygon fill="#079ABF" points="9683.41,160.22 10370.6,194.136 10006.754,233.785 				"/>
				<polygon fill="#3BB0C9" points="8364.619,196.544 9684.949,160.492 10010.137,233.35 10016.92,234.867 				"/>
				<polygon fill="#09A7C1" points="8556.254,56.415 8064.559,111.751 8351.205,201.016 				"/>
				<polygon fill="#3BB0C9" points="7656.172,48.516 7335.839,142.166 7579.169,154.577 				"/>
				<polygon fill="#47A8C6" points="7751.657,152.32 7983.872,133.76 8064.354,111.932 				"/>
				<polygon fill="#01A1BC" points="7983.872,133.76 7789.43,165.624 7569.929,153.448 				"/>
				<polygon fill="#0E84AE" points="8064.24,111.751 7983.872,133.76 8351.205,201.016 				"/>
				<polygon fill="#09A7C1" points="7789.43,165.624 7983.872,133.76 7943.557,214.847 				"/>
				<polygon fill="#079DB7" points="7983.872,133.76 8351.205,201.016 7943.557,214.847 				"/>
				<polygon fill="#068FB0" points="7789.43,165.624 7335.839,139.772 7316.332,197.248 				"/>
				<polygon fill="#47A8C6" points="7789.497,165.553 7943.557,213.717 7329.156,196.12 				"/>
				<polygon fill="#3BB0C9" points="7335.839,139.772 7130.498,186.169 7317.359,191.81 				"/>
				<polygon fill="#079ABC" points="7656.172,48.516 7911.823,137.652 7574.036,155.704 				"/>
				<polygon fill="#50B2CB" points="8556.254,56.415 8757.943,74.527 8289.652,240.327 				"/>
			</g>
			<path opacity="0.1" clip-path="url(#SVGID_10_)" fill="#09809E" d="M10370.6,194.136l-5.238-0.258L9989.023,107.9
				l-245.812-60.864l-9.348,1.133h-0.023l9.371-1.135l-19.494,2.048l-660.57,41.087h-0.1l-0.596,0.029l-304.508-15.672
				l-201.689-18.303l-488.713,55.417l-168.302,21.524l-243.06-84.696l-313.487,91.671l-6.851-0.379l-205.344,46.402L10370.6,194.136
				z M9258.758,115.221l-0.389-0.042l-1.496,0.14l-33.643-1.704l35.139,1.564l464-65.042l0.115-0.013L9258.758,115.221z"/>
		</g>
		<g>
			<defs>
				<polygon id="SVGID_11_" points="10017.055,14.667 10295.283,86.436 10507.344,0 10782.502,66.569 10982.711,6.77 
					11743.5,67.697 12012.498,6.77 12297.926,58.673 12761.998,185.284 9433.406,186.169 9700.352,109.445 				"/>
			</defs>
			<clipPath id="SVGID_12_">
				<use xlink:href="#SVGID_11_"  overflow="visible"/>
			</clipPath>
			<g clip-path="url(#SVGID_12_)">
				<polygon fill="#09A7C1" points="11248.084,97.718 11421.398,90.177 11480.459,109.113 				"/>
				<polygon fill="#3BB0C9" points="11483.916,112.539 11420.771,90.254 12101.822,47.929 				"/>
				<polygon fill="#2591AF" points="12101.562,47.215 12347.375,107.9 12284.744,132.807 				"/>
				<polygon fill="#2591AF" points="10755.809,195.76 11616.721,115.179 12041.189,160.564 				"/>
				<polygon fill="#50B2CB" points="12284.744,132.807 12314.865,174.511 12041.189,160.564 				"/>
				<polygon fill="#09A7C1" points="11248.084,97.718 10709.557,201.016 11116.295,74.527 				"/>
				<polygon fill="#3BB0C9" points="11481.691,108.693 10641.5,213.912 11248.084,97.718 				"/>
				<polygon fill="#3BB0C9" points="12101.562,47.215 11616.721,115.179 11480.459,109.113 				"/>
				<polygon fill="#3BB0C9" points="10718.502,199.697 11618.072,115.463 11481.684,108.555 				"/>
				<polygon fill="#0E84AE" points="12101.562,47.215 12041.189,160.564 12284.744,132.807 				"/>
				<polygon fill="#079ABF" points="11610.029,116.214 12041.189,160.564 12101.562,47.215 				"/>
				<polygon fill="#50B2CB" points="11248.084,97.718 11421.797,90.254 11116.295,74.527 				"/>
				<polygon fill="#3BB0C9" points="12314.695,174.659 12347.375,107.9 12284.744,132.807 				"/>
				<polygon fill="#0E84AE" points="12724.844,194.136 12347.375,107.9 12314.354,174.365 				"/>
				<polygon fill="#079ABF" points="12041.762,160.22 12728.949,194.136 12365.105,233.785 				"/>
				<polygon fill="#3BB0C9" points="10722.969,196.544 12043.299,160.492 12368.488,233.35 12375.271,234.867 				"/>
				<polygon fill="#09A7C1" points="10914.605,56.415 10422.91,111.751 10709.557,201.016 				"/>
				<polygon fill="#3BB0C9" points="10014.523,48.516 9694.191,142.166 9937.521,154.577 				"/>
				<polygon fill="#47A8C6" points="10110.008,152.32 10342.223,133.76 10422.705,111.932 				"/>
				<polygon fill="#01A1BC" points="10342.223,133.76 10147.781,165.624 9928.281,153.448 				"/>
				<polygon fill="#0E84AE" points="10422.592,111.751 10342.223,133.76 10709.557,201.016 				"/>
				<polygon fill="#09A7C1" points="10147.781,165.624 10342.223,133.76 10301.908,214.847 				"/>
				<polygon fill="#079DB7" points="10342.223,133.76 10709.557,201.016 10301.908,214.847 				"/>
				<polygon fill="#068FB0" points="10147.781,165.624 9694.191,139.772 9674.684,197.248 				"/>
				<polygon fill="#47A8C6" points="10147.848,165.553 10301.908,213.717 9687.508,196.12 				"/>
				<polygon fill="#3BB0C9" points="9694.191,139.772 9488.85,186.169 9675.711,191.81 				"/>
				<polygon fill="#079ABC" points="10014.523,48.516 10270.174,137.652 9932.387,155.704 				"/>
				<polygon fill="#50B2CB" points="10914.605,56.415 11116.295,74.527 10648.004,240.327 				"/>
			</g>
			<path opacity="0.1" clip-path="url(#SVGID_12_)" fill="#09809E" d="M12728.949,194.136l-5.236-0.258l-376.338-85.978
				l-245.812-60.864l-9.348,1.133h-0.023l9.371-1.135l-19.494,2.048l-660.57,41.087h-0.1l-0.596,0.029l-304.508-15.672
				l-201.689-18.303l-488.713,55.417l-168.303,21.524l-243.061-84.696l-313.486,91.671l-6.85-0.379l-205.344,46.402
				L12728.949,194.136z M11617.109,115.221l-0.389-0.042l-1.496,0.14l-33.643-1.704l35.139,1.564l463.998-65.042l0.115-0.013
				L11617.109,115.221z"/>
		</g>
	</g>
</g>
<g>
</g>
<g>
</g>
<g>
</g>
<g>
</g>
<g>
</g>
<g>
</g>
</svg>
