<?xml version="1.0" encoding="utf-8"?>
<!-- Generator: Adobe Illustrator 16.0.0, SVG Export Plug-In . SVG Version: 6.00 Build 0)  -->
<!DOCTYPE svg PUBLIC "-//W3C//DTD SVG 1.1//EN" "http://www.w3.org/Graphics/SVG/1.1/DTD/svg11.dtd">
<svg version="1.1" id="Layer_1" xmlns="http://www.w3.org/2000/svg" xmlns:xlink="http://www.w3.org/1999/xlink" x="0px" y="0px"
	 width="12756.865px" height="31px" viewBox="0 0 12756.865 31" enable-background="new 0 0 12756.865 31" xml:space="preserve">
<g>
	<defs>
		<polygon id="SVGID_1_" points="0,0.139 464.073,30.166 749.5,20.156 1018.497,30.723 1779.29,22.938 1981.551,28.775 
			2254.656,27.107 2466.717,31 2689.669,21.643 2821.397,30.166 3106.824,20.156 3375.822,30.722 4136.614,22.938 4338.875,28.775 
			4611.98,27.107 4824.042,31 5046.994,21.643 5178.722,30.166 5464.149,20.156 5733.147,30.722 6493.938,22.938 6696.2,28.775 
			6969.304,27.107 7181.366,31 7403.697,21.669 7535.021,30.166 7820.446,20.156 8089.444,30.722 8850.236,22.938 9052.498,28.775 
			9325.602,27.107 9537.664,31 9760.615,21.643 9892.346,30.166 10177.771,20.156 10446.77,30.722 11207.561,22.938 
			11409.822,28.775 11682.928,27.107 11894.988,31 12173.217,19.322 12489.92,20.713 12756.865,0 10398.271,0.099 10399.541,0 
			8041.973,0.099 8043.243,0 5684.649,0.099 5685.918,0 3327.324,0.099 3328.593,0 		"/>
	</defs>
	<clipPath id="SVGID_2_">
		<use xlink:href="#SVGID_1_"  overflow="visible"/>
	</clipPath>
	<polygon opacity="0.4" clip-path="url(#SVGID_2_)" fill="#047C99" points="12718.887,-1.597 25.86,-2.85 25.618,35.361 
		12718.805,36.613 	"/>
	<g clip-path="url(#SVGID_2_)">
		<g>
			<defs>
				<polygon id="SVGID_3_" points="12173.217,19.322 11894.988,31 11682.928,27.107 11409.822,28.775 11207.561,22.938 
					10446.77,30.722 10177.771,20.156 9892.346,30.166 9428.273,0.139 12756.865,0 12489.92,20.713 				"/>
			</defs>
			<clipPath id="SVGID_4_">
				<use xlink:href="#SVGID_3_"  overflow="visible"/>
			</clipPath>
			<polygon clip-path="url(#SVGID_4_)" fill="#3BB0C9" points="10942.186,13.887 10768.871,26.054 10709.809,17.411 			"/>
			<polygon clip-path="url(#SVGID_4_)" fill="#079ABF" points="10706.354,16.874 10769.498,26.041 10088.447,14.087 			"/>
			<polygon clip-path="url(#SVGID_4_)" fill="#0491B3" points="10088.707,14.199 9842.896,23.803 9905.527,8.379 			"/>
			<polygon clip-path="url(#SVGID_4_)" fill="#47A8C6" points="11431.551,-1.632 10573.549,11.146 10149.08,4.02 			"/>
			<polygon clip-path="url(#SVGID_4_)" fill="#046F97" points="9905.527,8.379 9875.918,1.854 10149.08,4.02 			"/>
			<polygon clip-path="url(#SVGID_4_)" fill="#73B1C8" points="10942.186,13.887 11480.713,-2.331 11073.977,20.362 			"/>
			<polygon clip-path="url(#SVGID_4_)" fill="#77C4D5" points="10706.184,17.47 11548.768,-4.355 10942.186,13.887 			"/>
			<polygon clip-path="url(#SVGID_4_)" fill="#0491B3" points="10088.707,14.199 10573.549,11.146 10709.809,17.411 			"/>
			<polygon clip-path="url(#SVGID_4_)" fill="#3BB0C9" points="11471.77,-2.124 10565.627,10.815 10708.584,17.5 			"/>
			<polygon clip-path="url(#SVGID_4_)" fill="#0491B3" points="10088.707,14.199 10149.08,4.02 9905.527,8.379 			"/>
			<polygon clip-path="url(#SVGID_4_)" fill="#079ABF" points="10573.549,11.146 10149.08,4.02 10088.707,14.199 			"/>
			<polygon clip-path="url(#SVGID_4_)" fill="#4397B5" points="10942.186,13.887 10768.473,26.041 11073.977,20.362 			"/>
			<polygon clip-path="url(#SVGID_4_)" fill="#079ABF" points="9875.576,1.807 9842.896,23.803 9905.527,8.379 			"/>
			<polygon clip-path="url(#SVGID_4_)" fill="#3A98B6" points="9465.428,-1.251 9842.896,23.803 9875.918,1.854 			"/>
			<polygon clip-path="url(#SVGID_4_)" fill="#0E84AE" points="10144.973,4.02 9461.32,-1.251 9825.166,-7.476 			"/>
			<polygon clip-path="url(#SVGID_4_)" fill="#3BB0C9" points="11467.299,-1.629 10146.969,4.031 9815,-7.646 			"/>
			<polygon clip-path="url(#SVGID_4_)" fill="#046F97" points="11275.666,9.082 11767.361,27.626 11480.713,-2.331 			"/>
			<polygon clip-path="url(#SVGID_4_)" fill="#3BB0C9" points="11767.361,27.583 12468.18,11.724 12259.191,6.997 			"/>
			<polygon clip-path="url(#SVGID_4_)" fill="#47A8C6" points="12259.191,6.997 11848.049,16.554 11767.566,27.598 			"/>
			<polygon clip-path="url(#SVGID_4_)" fill="#0491B3" points="11848.049,16.554 12042.49,3.226 12259.191,6.997 			"/>
			<polygon clip-path="url(#SVGID_4_)" fill="#0E84AE" points="11767.678,27.626 11848.049,16.554 11480.713,-2.331 			"/>
			<polygon clip-path="url(#SVGID_4_)" fill="#0E84AE" points="12042.49,3.226 11848.049,16.554 11888.363,-4.503 			"/>
			<polygon clip-path="url(#SVGID_4_)" fill="#0491B3" points="11848.049,16.554 11480.713,-2.331 11888.363,-4.503 			"/>
			<polygon clip-path="url(#SVGID_4_)" fill="#079ABF" points="12042.49,3.226 12556.656,13.484 12502.764,-1.74 			"/>
			<polygon clip-path="url(#SVGID_4_)" fill="#47A8C6" points="12042.49,3.226 11888.363,-4.503 12502.764,-1.74 			"/>
			<polygon clip-path="url(#SVGID_4_)" fill="#3BB0C9" points="12556.656,13.484 12701.422,0 12507.889,0 			"/>
			<path opacity="0.1" clip-path="url(#SVGID_4_)" fill="#09809E" d="M9465.969-1.215l376.928,25.018l245.811-9.604l8.699,0.045
				l671.27,11.783l-0.203,0.014l0.279-0.004l0.119,0.017l0.262-0.019l0.365,0.006l-0.115-0.017l304.594-5.662l201.979-11.082
				L11767.361,28h0.316l0.348-0.234l0.547-0.117l699.607-15.878l-1.76-0.063l90.236,1.789l144.766-13.49l0.514-1.047L9465.969-1.215
				z M11297.146,0.37l119.674-1.782l7.332-0.032L11297.146,0.37z M10145.941,3.995l-2.137-0.017l-75.527-2.715L10145.941,3.995z
				 M9876.219,2h0.135l29.174,6.43L9876.219,2z"/>
		</g>
		<g>
			<defs>
				<polygon id="SVGID_5_" points="9815.893,19.322 9537.664,31 9325.602,27.107 9052.498,28.775 8850.236,22.938 8089.444,30.722 
					7820.446,20.156 7535.021,30.166 7070.949,0.139 10399.541,0 10132.596,20.713 				"/>
			</defs>
			<clipPath id="SVGID_6_">
				<use xlink:href="#SVGID_5_"  overflow="visible"/>
			</clipPath>
			<polygon clip-path="url(#SVGID_6_)" fill="#3BB0C9" points="8584.861,13.888 8411.547,26.054 8352.486,17.411 			"/>
			<polygon clip-path="url(#SVGID_6_)" fill="#079ABF" points="8349.029,16.875 8412.174,26.041 7731.123,14.087 			"/>
			<polygon clip-path="url(#SVGID_6_)" fill="#0491B3" points="7731.383,14.199 7485.573,23.803 7548.202,8.379 			"/>
			<polygon clip-path="url(#SVGID_6_)" fill="#47A8C6" points="9074.229,-1.632 8216.225,11.146 7791.754,4.02 			"/>
			<polygon clip-path="url(#SVGID_6_)" fill="#046F97" points="7548.202,8.379 7518.594,1.854 7791.754,4.02 			"/>
			<polygon clip-path="url(#SVGID_6_)" fill="#73B1C8" points="8584.861,13.888 9123.389,-2.331 8716.65,20.362 			"/>
			<polygon clip-path="url(#SVGID_6_)" fill="#77C4D5" points="8348.859,17.47 9191.445,-4.355 8584.861,13.888 			"/>
			<polygon clip-path="url(#SVGID_6_)" fill="#0491B3" points="7731.383,14.199 8216.225,11.146 8352.486,17.411 			"/>
			<polygon clip-path="url(#SVGID_6_)" fill="#3BB0C9" points="9114.445,-2.124 8208.301,10.815 8351.262,17.5 			"/>
			<polygon clip-path="url(#SVGID_6_)" fill="#0491B3" points="7731.383,14.199 7791.754,4.02 7548.202,8.379 			"/>
			<polygon clip-path="url(#SVGID_6_)" fill="#079ABF" points="8216.225,11.146 7791.754,4.02 7731.383,14.199 			"/>
			<polygon clip-path="url(#SVGID_6_)" fill="#4397B5" points="8584.861,13.888 8411.146,26.041 8716.65,20.362 			"/>
			<polygon clip-path="url(#SVGID_6_)" fill="#079ABF" points="7518.25,1.807 7485.573,23.803 7548.202,8.379 			"/>
			<polygon clip-path="url(#SVGID_6_)" fill="#3A98B6" points="7108.102,-1.251 7485.573,23.803 7518.594,1.854 			"/>
			<polygon clip-path="url(#SVGID_6_)" fill="#0E84AE" points="7787.648,4.02 7103.996,-1.251 7467.842,-7.476 			"/>
			<polygon clip-path="url(#SVGID_6_)" fill="#3BB0C9" points="9109.977,-1.629 7789.645,4.031 7457.675,-7.646 			"/>
			<polygon clip-path="url(#SVGID_6_)" fill="#046F97" points="8918.342,9.082 9410.037,27.626 9123.389,-2.331 			"/>
			<polygon clip-path="url(#SVGID_6_)" fill="#3BB0C9" points="9410.037,27.583 10110.855,11.724 9901.867,6.997 			"/>
			<polygon clip-path="url(#SVGID_6_)" fill="#47A8C6" points="9901.867,6.997 9490.725,16.554 9410.242,27.598 			"/>
			<polygon clip-path="url(#SVGID_6_)" fill="#0491B3" points="9490.725,16.554 9685.166,3.226 9901.867,6.997 			"/>
			<polygon clip-path="url(#SVGID_6_)" fill="#0E84AE" points="9410.355,27.626 9490.725,16.554 9123.389,-2.331 			"/>
			<polygon clip-path="url(#SVGID_6_)" fill="#0E84AE" points="9685.166,3.226 9490.725,16.554 9531.039,-4.503 			"/>
			<polygon clip-path="url(#SVGID_6_)" fill="#0491B3" points="9490.725,16.554 9123.389,-2.331 9531.039,-4.503 			"/>
			<polygon clip-path="url(#SVGID_6_)" fill="#079ABF" points="9685.166,3.226 10199.332,13.484 10145.439,-1.74 			"/>
			<polygon clip-path="url(#SVGID_6_)" fill="#47A8C6" points="9685.166,3.226 9531.039,-4.503 10145.439,-1.74 			"/>
			<polygon clip-path="url(#SVGID_6_)" fill="#3BB0C9" points="10199.332,13.484 10344.098,0 10150.562,0 			"/>
			<path opacity="0.1" clip-path="url(#SVGID_6_)" fill="#09809E" d="M7108.644-1.215l376.929,25.018l245.811-9.604l8.699,0.045
				l671.271,11.783l-0.207,0.014l0.281-0.004l0.119,0.017l0.262-0.019l0.365,0.006l-0.117-0.017l304.594-5.662l201.98-11.082
				L9410.037,28h0.318l0.346-0.234l0.549-0.117l699.605-15.878l-1.76-0.063l90.236,1.789l144.766-13.49l0.514-1.047L7108.644-1.215z
				 M8939.822,0.37l119.674-1.782l7.332-0.032L8939.822,0.37z M7788.619,3.995l-2.138-0.017l-75.529-2.715L7788.619,3.995z
				 M7518.895,2h0.134l29.173,6.43L7518.895,2z"/>
		</g>
		<g>
			<defs>
				<polygon id="SVGID_7_" points="7459.594,19.322 7181.366,31 6969.304,27.107 6696.2,28.775 6493.938,22.938 5733.147,30.722 
					5464.149,20.156 5178.722,30.166 4714.649,0.139 8043.243,0 7776.297,20.713 				"/>
			</defs>
			<clipPath id="SVGID_8_">
				<use xlink:href="#SVGID_7_"  overflow="visible"/>
			</clipPath>
			<polygon clip-path="url(#SVGID_8_)" fill="#3BB0C9" points="6228.564,13.888 6055.249,26.054 5996.188,17.411 			"/>
			<polygon clip-path="url(#SVGID_8_)" fill="#079ABF" points="5992.731,16.875 6055.875,26.041 5374.825,14.087 			"/>
			<polygon clip-path="url(#SVGID_8_)" fill="#0491B3" points="5375.086,14.199 5129.273,23.803 5191.903,8.379 			"/>
			<polygon clip-path="url(#SVGID_8_)" fill="#47A8C6" points="6717.93,-1.632 5859.927,11.146 5435.458,4.02 			"/>
			<polygon clip-path="url(#SVGID_8_)" fill="#046F97" points="5191.903,8.379 5162.294,1.854 5435.458,4.02 			"/>
			<polygon clip-path="url(#SVGID_8_)" fill="#73B1C8" points="6228.564,13.888 6767.091,-2.331 6360.353,20.362 			"/>
			<polygon clip-path="url(#SVGID_8_)" fill="#77C4D5" points="5992.561,17.47 6835.147,-4.355 6228.564,13.888 			"/>
			<polygon clip-path="url(#SVGID_8_)" fill="#0491B3" points="5375.086,14.199 5859.927,11.146 5996.188,17.411 			"/>
			<polygon clip-path="url(#SVGID_8_)" fill="#3BB0C9" points="6758.147,-2.124 5852.004,10.815 5994.962,17.5 			"/>
			<polygon clip-path="url(#SVGID_8_)" fill="#0491B3" points="5375.086,14.199 5435.458,4.02 5191.903,8.379 			"/>
			<polygon clip-path="url(#SVGID_8_)" fill="#079ABF" points="5859.927,11.146 5435.458,4.02 5375.086,14.199 			"/>
			<polygon clip-path="url(#SVGID_8_)" fill="#4397B5" points="6228.564,13.888 6054.849,26.041 6360.353,20.362 			"/>
			<polygon clip-path="url(#SVGID_8_)" fill="#079ABF" points="5161.954,1.807 5129.273,23.803 5191.903,8.379 			"/>
			<polygon clip-path="url(#SVGID_8_)" fill="#3A98B6" points="4751.803,-1.251 5129.273,23.803 5162.294,1.854 			"/>
			<polygon clip-path="url(#SVGID_8_)" fill="#0E84AE" points="5431.351,4.021 4747.699,-1.251 5111.542,-7.476 			"/>
			<polygon clip-path="url(#SVGID_8_)" fill="#3BB0C9" points="6753.678,-1.629 5433.348,4.031 5101.378,-7.646 			"/>
			<polygon clip-path="url(#SVGID_8_)" fill="#046F97" points="6562.043,9.082 7053.739,27.626 6767.091,-2.331 			"/>
			<polygon clip-path="url(#SVGID_8_)" fill="#3BB0C9" points="7053.739,27.583 7754.557,11.724 7545.569,6.997 			"/>
			<polygon clip-path="url(#SVGID_8_)" fill="#47A8C6" points="7545.569,6.997 7134.426,16.554 7053.944,27.598 			"/>
			<polygon clip-path="url(#SVGID_8_)" fill="#0491B3" points="7134.426,16.554 7328.867,3.226 7545.569,6.997 			"/>
			<polygon clip-path="url(#SVGID_8_)" fill="#0E84AE" points="7054.057,27.626 7134.426,16.554 6767.091,-2.331 			"/>
			<polygon clip-path="url(#SVGID_8_)" fill="#0E84AE" points="7328.867,3.226 7134.426,16.554 7174.741,-4.503 			"/>
			<polygon clip-path="url(#SVGID_8_)" fill="#0491B3" points="7134.426,16.554 6767.091,-2.331 7174.741,-4.503 			"/>
			<polygon clip-path="url(#SVGID_8_)" fill="#079ABF" points="7328.867,3.226 7843.034,13.484 7789.141,-1.74 			"/>
			<polygon clip-path="url(#SVGID_8_)" fill="#47A8C6" points="7328.867,3.226 7174.741,-4.503 7789.141,-1.74 			"/>
			<polygon clip-path="url(#SVGID_8_)" fill="#3BB0C9" points="7843.034,13.484 7987.799,0 7794.265,0 			"/>
			<path opacity="0.1" clip-path="url(#SVGID_8_)" fill="#09809E" d="M4752.347-1.215l376.927,25.018l245.812-9.604l8.697,0.045
				l671.272,11.783l-0.207,0.014l0.282-0.004l0.118,0.017l0.263-0.019l0.364,0.006l-0.116-0.017l304.594-5.662L6562.333,9.28
				L7053.739,28h0.318l0.346-0.234l0.549-0.117l699.605-15.878l-1.76-0.063l90.236,1.789l144.766-13.49l0.514-1.047L4752.347-1.215z
				 M6583.524,0.37l119.674-1.782l7.332-0.032L6583.524,0.37z M5432.319,3.995l-2.135-0.017l-75.529-2.715L5432.319,3.995z
				 M5162.597,2h0.132l29.173,6.43L5162.597,2z"/>
		</g>
		<g>
			<defs>
				<polygon id="SVGID_9_" points="5102.27,19.322 4824.042,31 4611.98,27.107 4338.875,28.775 4136.614,22.938 3375.822,30.722 
					3106.824,20.156 2821.397,30.166 2357.325,0.139 5685.918,0 5418.974,20.713 				"/>
			</defs>
			<clipPath id="SVGID_10_">
				<use xlink:href="#SVGID_9_"  overflow="visible"/>
			</clipPath>
			<polygon clip-path="url(#SVGID_10_)" fill="#3BB0C9" points="3871.24,13.888 3697.924,26.054 3638.862,17.411 			"/>
			<polygon clip-path="url(#SVGID_10_)" fill="#079ABF" points="3635.407,16.875 3698.55,26.041 3017.5,14.087 			"/>
			<polygon clip-path="url(#SVGID_10_)" fill="#0491B3" points="3017.761,14.199 2771.949,23.803 2834.578,8.379 			"/>
			<polygon clip-path="url(#SVGID_10_)" fill="#47A8C6" points="4360.605,-1.632 3502.603,11.146 3078.132,4.02 			"/>
			<polygon clip-path="url(#SVGID_10_)" fill="#046F97" points="2834.578,8.379 2804.97,1.854 3078.132,4.02 			"/>
			<polygon clip-path="url(#SVGID_10_)" fill="#73B1C8" points="3871.24,13.888 4409.767,-2.331 4003.029,20.362 			"/>
			<polygon clip-path="url(#SVGID_10_)" fill="#77C4D5" points="3635.237,17.47 4477.822,-4.355 3871.24,13.888 			"/>
			<polygon clip-path="url(#SVGID_10_)" fill="#0491B3" points="3017.761,14.199 3502.603,11.146 3638.862,17.411 			"/>
			<polygon clip-path="url(#SVGID_10_)" fill="#3BB0C9" points="4400.821,-2.124 3494.68,10.815 3637.637,17.5 			"/>
			<polygon clip-path="url(#SVGID_10_)" fill="#0491B3" points="3017.761,14.199 3078.132,4.02 2834.578,8.379 			"/>
			<polygon clip-path="url(#SVGID_10_)" fill="#079ABF" points="3502.603,11.146 3078.132,4.02 3017.761,14.199 			"/>
			<polygon clip-path="url(#SVGID_10_)" fill="#4397B5" points="3871.24,13.888 3697.523,26.041 4003.029,20.362 			"/>
			<polygon clip-path="url(#SVGID_10_)" fill="#079ABF" points="2804.628,1.807 2771.949,23.803 2834.578,8.379 			"/>
			<polygon clip-path="url(#SVGID_10_)" fill="#3A98B6" points="2394.479,-1.251 2771.949,23.803 2804.97,1.854 			"/>
			<polygon clip-path="url(#SVGID_10_)" fill="#0E84AE" points="3074.026,4.021 2390.374,-1.251 2754.218,-7.476 			"/>
			<polygon clip-path="url(#SVGID_10_)" fill="#3BB0C9" points="4396.353,-1.629 3076.023,4.031 2744.053,-7.646 			"/>
			<polygon clip-path="url(#SVGID_10_)" fill="#046F97" points="4204.717,9.082 4696.413,27.626 4409.767,-2.331 			"/>
			<polygon clip-path="url(#SVGID_10_)" fill="#3BB0C9" points="4696.413,27.583 5397.232,11.724 5188.245,6.997 			"/>
			<polygon clip-path="url(#SVGID_10_)" fill="#47A8C6" points="5188.245,6.997 4777.102,16.554 4696.618,27.598 			"/>
			<polygon clip-path="url(#SVGID_10_)" fill="#0491B3" points="4777.102,16.554 4971.541,3.226 5188.245,6.997 			"/>
			<polygon clip-path="url(#SVGID_10_)" fill="#0E84AE" points="4696.732,27.626 4777.102,16.554 4409.767,-2.331 			"/>
			<polygon clip-path="url(#SVGID_10_)" fill="#0E84AE" points="4971.541,3.226 4777.102,16.554 4817.415,-4.503 			"/>
			<polygon clip-path="url(#SVGID_10_)" fill="#0491B3" points="4777.102,16.554 4409.767,-2.331 4817.415,-4.503 			"/>
			<polygon clip-path="url(#SVGID_10_)" fill="#079ABF" points="4971.541,3.226 5485.71,13.484 5431.816,-1.74 			"/>
			<polygon clip-path="url(#SVGID_10_)" fill="#47A8C6" points="4971.541,3.226 4817.415,-4.503 5431.816,-1.74 			"/>
			<polygon clip-path="url(#SVGID_10_)" fill="#3BB0C9" points="5485.71,13.484 5630.476,0 5436.941,0 			"/>
			<path opacity="0.1" clip-path="url(#SVGID_10_)" fill="#09809E" d="M2395.022-1.215l376.927,25.018l245.812-9.604l8.697,0.045
				l671.271,11.783l-0.207,0.014l0.283-0.004l0.118,0.017l0.263-0.019l0.363,0.006l-0.116-0.017l304.596-5.662L4205.008,9.28
				L4696.413,28h0.319l0.347-0.234l0.548-0.117l699.606-15.878l-1.758-0.063l90.236,1.789l144.766-13.49l0.513-1.047L2395.022-1.215
				z M4226.2,0.37l119.672-1.782l7.333-0.032L4226.2,0.37z M3074.994,3.995l-2.135-0.017l-75.529-2.715L3074.994,3.995z M2805.272,2
				h0.132l29.173,6.43L2805.272,2z"/>
		</g>
		<g>
			<defs>
				<polygon id="SVGID_11_" points="2744.946,19.322 2466.717,31 2254.656,27.107 1981.551,28.775 1779.29,22.938 1018.497,30.723 
					749.5,20.156 464.073,30.166 0,0.139 3328.593,0 3061.649,20.713 				"/>
			</defs>
			<clipPath id="SVGID_12_">
				<use xlink:href="#SVGID_11_"  overflow="visible"/>
			</clipPath>
			<polygon clip-path="url(#SVGID_12_)" fill="#3BB0C9" points="1513.915,13.888 1340.6,26.054 1281.538,17.411 			"/>
			<polygon clip-path="url(#SVGID_12_)" fill="#079ABF" points="1278.083,16.875 1341.226,26.042 660.176,14.087 			"/>
			<polygon clip-path="url(#SVGID_12_)" fill="#0491B3" points="660.437,14.199 414.624,23.803 477.253,8.379 			"/>
			<polygon clip-path="url(#SVGID_12_)" fill="#47A8C6" points="2003.28,-1.632 1145.278,11.146 720.808,4.02 			"/>
			<polygon clip-path="url(#SVGID_12_)" fill="#046F97" points="477.253,8.379 447.646,1.854 720.808,4.02 			"/>
			<polygon clip-path="url(#SVGID_12_)" fill="#73B1C8" points="1513.915,13.888 2052.442,-2.331 1645.705,20.362 			"/>
			<polygon clip-path="url(#SVGID_12_)" fill="#77C4D5" points="1277.912,17.47 2120.497,-4.355 1513.915,13.888 			"/>
			<polygon clip-path="url(#SVGID_12_)" fill="#0491B3" points="660.437,14.199 1145.278,11.146 1281.538,17.411 			"/>
			<polygon clip-path="url(#SVGID_12_)" fill="#3BB0C9" points="2043.496,-2.124 1137.355,10.815 1280.312,17.5 			"/>
			<polygon clip-path="url(#SVGID_12_)" fill="#0491B3" points="660.437,14.199 720.808,4.02 477.253,8.379 			"/>
			<polygon clip-path="url(#SVGID_12_)" fill="#079ABF" points="1145.278,11.146 720.808,4.02 660.437,14.199 			"/>
			<polygon clip-path="url(#SVGID_12_)" fill="#4397B5" points="1513.915,13.888 1340.199,26.042 1645.705,20.362 			"/>
			<polygon clip-path="url(#SVGID_12_)" fill="#079ABF" points="447.304,1.807 414.624,23.803 477.253,8.379 			"/>
			<polygon clip-path="url(#SVGID_12_)" fill="#3A98B6" points="37.154,-1.251 414.624,23.803 447.646,1.854 			"/>
			<polygon clip-path="url(#SVGID_12_)" fill="#0E84AE" points="716.701,4.021 33.049,-1.251 396.893,-7.476 			"/>
			<polygon clip-path="url(#SVGID_12_)" fill="#3BB0C9" points="2039.029,-1.629 718.699,4.031 386.729,-7.646 			"/>
			<polygon clip-path="url(#SVGID_12_)" fill="#046F97" points="1847.393,9.082 2339.088,27.626 2052.442,-2.331 			"/>
			<polygon clip-path="url(#SVGID_12_)" fill="#3BB0C9" points="2339.088,27.583 3039.908,11.724 2830.92,6.997 			"/>
			<polygon clip-path="url(#SVGID_12_)" fill="#47A8C6" points="2830.92,6.997 2419.777,16.554 2339.293,27.598 			"/>
			<polygon clip-path="url(#SVGID_12_)" fill="#0491B3" points="2419.777,16.554 2614.216,3.226 2830.92,6.997 			"/>
			<polygon clip-path="url(#SVGID_12_)" fill="#0E84AE" points="2339.407,27.626 2419.777,16.554 2052.442,-2.331 			"/>
			<polygon clip-path="url(#SVGID_12_)" fill="#0E84AE" points="2614.216,3.226 2419.777,16.554 2460.089,-4.503 			"/>
			<polygon clip-path="url(#SVGID_12_)" fill="#0491B3" points="2419.777,16.554 2052.442,-2.331 2460.089,-4.503 			"/>
			<polygon clip-path="url(#SVGID_12_)" fill="#079ABF" points="2614.216,3.226 3128.385,13.484 3074.491,-1.74 			"/>
			<polygon clip-path="url(#SVGID_12_)" fill="#47A8C6" points="2614.216,3.226 2460.089,-4.503 3074.491,-1.74 			"/>
			<polygon clip-path="url(#SVGID_12_)" fill="#3BB0C9" points="3128.385,13.484 3273.151,0 3079.617,0 			"/>
			<path opacity="0.1" clip-path="url(#SVGID_12_)" fill="#09809E" d="M37.697-1.215l376.927,25.018l245.813-9.604l8.696,0.045
				l671.272,11.783l-0.207,0.015l0.283-0.005l0.118,0.017l0.263-0.019l0.363,0.007l-0.117-0.018l304.596-5.662L1847.684,9.28
				L2339.088,28h0.319l0.347-0.234l0.547-0.117l699.606-15.878l-1.759-0.063l90.236,1.789l144.766-13.49l0.514-1.047L37.697-1.215z
				 M1868.875,0.37l119.672-1.782l7.333-0.032L1868.875,0.37z M717.67,3.995l-2.136-0.017l-75.529-2.715L717.67,3.995z M447.948,2
				h0.132l29.173,6.43L447.948,2z"/>
		</g>
	</g>
</g>
<g>
</g>
<g>
</g>
<g>
</g>
<g>
</g>
<g>
</g>
<g>
</g>
</svg>
