<?xml version="1.0" encoding="utf-8"?>
<!-- Generator: Adobe Illustrator 16.0.0, SVG Export Plug-In . SVG Version: 6.00 Build 0)  -->
<!DOCTYPE svg PUBLIC "-//W3C//DTD SVG 1.1//EN" "http://www.w3.org/Graphics/SVG/1.1/DTD/svg11.dtd">
<svg version="1.1" id="Layer_1" xmlns="http://www.w3.org/2000/svg" xmlns:xlink="http://www.w3.org/1999/xlink" x="0px" y="0px"
	 width="14282.9px" height="399.163px" viewBox="0 0 14282.9 399.163" enable-background="new 0 0 14282.9 399.163"
	 xml:space="preserve">
<g opacity="0.3">
	<g>
		<defs>
			<polygon id="SVGID_1_" points="12536.553,253.873 11005.818,397.141 9840.945,347.325 8339.805,366.215 7229.074,292.273 
				3046.87,383.896 1570.055,250.754 0,373.24 2.975,0 14282.9,15.833 14276.869,273.295 			"/>
		</defs>
		<clipPath id="SVGID_2_">
			<use xlink:href="#SVGID_1_"  overflow="visible"/>
		</clipPath>
		<polygon clip-path="url(#SVGID_2_)" fill="#3BB0C9" points="5771.958,177.986 4817.72,328.045 4494.381,220.229 		"/>
		<polygon clip-path="url(#SVGID_2_)" fill="#009ABF" points="4475.461,213.519 4821.167,327.902 1080.029,174.694 		"/>
		<polygon clip-path="url(#SVGID_2_)" fill="#0091B3" points="1081.443,176.093 -270.84,293.806 75.566,102.501 		"/>
		<polygon clip-path="url(#SVGID_2_)" fill="#46A8C6" points="8463.598,-11.606 3746.43,141.413 1414.691,49.978 		"/>
		<polygon clip-path="url(#SVGID_2_)" fill="#006E96" points="75.566,102.501 -86.212,21.196 1414.691,49.978 		"/>
		<polygon clip-path="url(#SVGID_2_)" fill="#72B1C8" points="5771.958,177.986 8733.875,-19.967 6495.302,259.36 		"/>
		<polygon clip-path="url(#SVGID_2_)" fill="#76C4D5" points="4474.446,220.916 9108.18,-44.676 5771.958,177.986 		"/>
		<polygon clip-path="url(#SVGID_2_)" fill="#0091B3" points="1081.443,176.093 3746.43,141.413 4494.381,220.229 		"/>
		<polygon clip-path="url(#SVGID_2_)" fill="#3BB0C9" points="8684.688,-17.452 3702.936,137.26 4487.633,221.312 		"/>
		<polygon clip-path="url(#SVGID_2_)" fill="#0091B3" points="1081.443,176.093 1414.691,49.978 75.566,102.501 		"/>
		<polygon clip-path="url(#SVGID_2_)" fill="#009ABF" points="3746.43,141.413 1414.691,49.978 1081.443,176.093 		"/>
		<polygon clip-path="url(#SVGID_2_)" fill="#4296B4" points="5771.958,177.986 4815.525,327.893 6495.302,259.36 		"/>
		<polygon clip-path="url(#SVGID_2_)" fill="#009ABF" points="-88.085,20.621 -270.84,293.806 75.566,102.501 		"/>
		<polygon clip-path="url(#SVGID_2_)" fill="#3A97B5" points="-2341.703,-20.157 -270.84,293.806 -86.212,21.196 		"/>
		<polygon clip-path="url(#SVGID_2_)" fill="#0084AD" points="1392.125,49.951 -2364.27,-20.184 -363.789,-95.104 		"/>
		<polygon clip-path="url(#SVGID_2_)" fill="#3BB0C9" points="8660.059,-11.33 1403.098,50.102 -419.639,-97.288 		"/>
		<polygon clip-path="url(#SVGID_2_)" fill="#006E96" points="7605.35,120.516 10304.898,354.342 8733.875,-19.967 		"/>
		<polygon clip-path="url(#SVGID_2_)" fill="#3BB0C9" points="10304.904,353.809 14158.68,161.408 13010.818,101.242 		"/>
		<polygon clip-path="url(#SVGID_2_)" fill="#46A8C6" points="13010.818,101.242 10749.924,217.256 10306.027,353.992 		"/>
		<polygon clip-path="url(#SVGID_2_)" fill="#0091B3" points="10749.924,217.256 11820.426,52.899 13010.818,101.242 		"/>
		<polygon clip-path="url(#SVGID_2_)" fill="#0084AD" points="10306.65,354.344 10749.924,217.256 8733.875,-19.967 		"/>
		<polygon clip-path="url(#SVGID_2_)" fill="#0084AD" points="11820.426,52.899 10749.924,217.256 10974.504,-44.204 		"/>
		<polygon clip-path="url(#SVGID_2_)" fill="#0091B3" points="10749.924,217.256 8733.875,-19.967 10974.504,-44.204 		"/>
		<polygon clip-path="url(#SVGID_2_)" fill="#009ABF" points="11820.426,52.899 14644.666,183.891 14350.676,-5.708 		"/>
		<polygon clip-path="url(#SVGID_2_)" fill="#46A8C6" points="11820.426,52.899 10974.504,-44.204 14350.676,-5.708 		"/>
		<polygon opacity="0.4" clip-path="url(#SVGID_2_)" fill="#007C99" points="15803.664,15.864 -2561.078,-10.237 -2567.18,435.572 
			15797.801,461.678 		"/>
		<polygon clip-path="url(#SVGID_2_)" fill="#3BB0C9" points="14644.666,183.891 15442.197,17.26 14378.586,15.952 		"/>
		<path opacity="0.1" clip-path="url(#SVGID_2_)" fill="#00809E" d="M-2338.73-19.707L-270.84,293.806l1352.283-117.713
			l47.799,0.616l3687.419,151.007l-1.137,0.177l1.547-0.063l0.648,0.213l1.449-0.229l1.998,0.07l-0.637-0.232l1674.773-68.365
			l1111.628-138.301l2697.951,234.027h1.752l1.914-0.922l3.02-0.369l3847.109-192.193l-9.662-0.564l495.65,22.958l797.529-166.652
			l2.973-12.96L-2338.73-19.707z M7724.654,12.361l657.947-21.34l40.299-0.344L7724.654,12.361z M1397.453,49.646l-11.738-0.228
			L971.016,15.164L1397.453,49.646z M-84.566,22.379l0.73,0.013l159.402,80.109L-84.566,22.379z"/>
	</g>
	<g>
		<defs>
			<polygon id="SVGID_3_" points="12535.186,371.982 11007.85,220.891 9840.344,399.163 8329.756,258.899 7228.033,381.877 
				3048.415,250.062 1568.619,374.916 1.242,265.077 11.562,1.85 14282.879,17.559 14277.975,177.072 			"/>
		</defs>
		<clipPath id="SVGID_4_">
			<use xlink:href="#SVGID_3_"  overflow="visible"/>
		</clipPath>
		<polygon opacity="0.4" clip-path="url(#SVGID_4_)" fill="#007C99" points="15826.893,-41.622 -2537.848,-67.958 
			-2544.285,406.997 15820.695,433.334 		"/>
		<g clip-path="url(#SVGID_4_)">
			<polygon fill="#08A7C1" points="5771.807,190.993 4819.138,205.5 4495.01,165.73 			"/>
			<polygon fill="#3BB0C9" points="4476.1,158.585 4822.585,205.344 1078.711,288.738 			"/>
			<polygon fill="#2591AF" points="1080.129,290.225 -269.328,162.393 75.463,111.033 			"/>
			<polygon fill="#2591AF" points="8479.564,-9.518 3746.307,152.2 1414.634,54.971 			"/>
			<polygon fill="#50B2CC" points="75.463,111.033 -89.074,24.124 1414.634,54.971 			"/>
			<polygon fill="#08A7C1" points="5771.807,190.993 8733.871,-20.131 6495.519,240.1 			"/>
			<polygon fill="#3BB0C9" points="4488.235,166.595 9108.197,-46.486 5771.807,190.993 			"/>
			<polygon fill="#3BB0C9" points="1080.129,290.225 3746.307,152.2 4495.01,165.73 			"/>
			<polygon fill="#3BB0C9" points="8684.682,-17.452 3738.887,151.601 4488.262,166.886 			"/>
			<polygon fill="#0084AD" points="1080.129,290.225 1414.634,54.971 75.463,111.033 			"/>
			<polygon fill="#009ABF" points="3783.104,150.093 1414.634,54.971 1080.129,290.225 			"/>
			<polygon fill="#50B2CC" points="5771.807,190.993 4816.943,205.337 6495.519,240.1 			"/>
			<polygon fill="#3BB0C9" points="-88.128,23.817 -269.328,162.393 75.463,111.033 			"/>
			<polygon fill="#0084AD" points="-2341.717,-19.449 -269.328,162.393 -86.257,24.432 			"/>
			<polygon fill="#009ABF" points="1411.492,55.682 -2364.285,-19.478 -363.746,-99.453 			"/>
			<polygon fill="#3BB0C9" points="8660.047,-10.926 1403.039,55.105 -382.355,-98.57 -419.588,-101.771 			"/>
			<polygon fill="#08A7C1" points="7603.512,279.119 10307.053,167.395 8733.871,-20.131 			"/>
			<polygon fill="#3BB0C9" points="12549.908,301.625 14312.615,109.086 12975.639,81.635 			"/>
			<polygon fill="#46A8C6" points="12027.648,85.162 10751.021,122.184 10308.184,167.02 			"/>
			<polygon fill="#02A1BC" points="10751.021,122.184 11820.373,57.246 13026.395,84.046 			"/>
			<polygon fill="#0084AD" points="10308.805,167.396 10751.021,122.184 8733.871,-20.131 			"/>
			<polygon fill="#08A7C1" points="11820.373,57.246 10751.021,122.184 10974.52,-46.132 			"/>
			<polygon fill="#009DB7" points="10751.021,122.184 8733.871,-20.131 10974.52,-46.132 			"/>
			<polygon fill="#008EAF" points="11820.373,57.246 14312.559,114.062 14421.146,-5.303 			"/>
			<polygon fill="#46A8C6" points="11820.004,57.396 10974.492,-43.783 14350.639,-3.044 			"/>
			<polygon fill="#3BB0C9" points="14312.559,114.062 15442.172,18.986 14415.371,5.997 			"/>
			<polygon fill="#0099BC" points="12549.908,301.625 11147.066,114.578 13003.879,79.326 			"/>
			<polygon fill="#50B2CC" points="7603.512,279.119 6495.519,240.1 9073.098,-101.446 			"/>
		</g>
		<path opacity="0.1" clip-path="url(#SVGID_4_)" fill="#00809E" d="M-2364.285-19.449l28.781,0.595l2066.176,181.35
			l1349.449,127.951l51.39-2.436h0.131l-51.521,2.389l107.176-3.975l3631.292-80.779l0.547,0.062l3.271-0.154l1673.111,34.646
			l1107.987,39.365l2687.156-111.937l925.455-43.625l1333.75,177.728l1725.041-188.479l37.639,0.837l1129.617-95.09
			L-2364.285-19.449z M3744.167,152.111l2.141,0.089l8.219-0.28l184.857,3.771l-193.076-3.491L1194.736,284.29l-0.635,0.026
			L3744.167,152.111z"/>
	</g>
</g>
<g>
</g>
<g>
</g>
<g>
</g>
<g>
</g>
<g>
</g>
<g>
</g>
</svg>
