<?xml version="1.0" encoding="utf-8"?>
<!-- Generator: Adobe Illustrator 16.0.0, SVG Export Plug-In . SVG Version: 6.00 Build 0)  -->
<!DOCTYPE svg PUBLIC "-//W3C//DTD SVG 1.1//EN" "http://www.w3.org/Graphics/SVG/1.1/DTD/svg11.dtd">
<svg version="1.1" id="Layer_1" xmlns="http://www.w3.org/2000/svg" xmlns:xlink="http://www.w3.org/1999/xlink" x="0px" y="0px"
	 width="14638.2px" height="409.163px" viewBox="0 0 14638.2 409.163" enable-background="new 0 0 14638.2 409.163"
	 xml:space="preserve">
<g>
	<defs>
		<polygon id="SVGID_1_" points="0,0.139 530.729,30.166 857.154,20.156 1164.788,30.723 2034.856,22.938 2266.17,28.775 
			2578.502,27.107 2821.022,31 3075.998,21.643 3226.646,30.166 3553.07,20.156 3860.705,30.722 4730.774,22.938 4962.085,28.775 
			5274.418,27.107 5516.939,31 5771.915,21.643 5922.563,30.166 6248.988,20.156 6556.623,30.722 7426.689,22.938 7658.003,28.775 
			7970.335,27.107 8212.856,31 8467.12,21.669 8617.308,30.166 8943.728,20.156 9251.364,30.722 10121.433,22.938 10352.745,28.775 
			10665.077,27.107 10907.599,31 11162.573,21.643 11313.224,30.166 11639.647,20.156 11947.282,30.722 12817.349,22.938 
			13048.663,28.775 13360.995,27.107 13603.517,31 13921.708,19.322 14283.899,20.713 14589.188,0 11891.817,0.099 11893.271,0 
			9197.075,0.099 9198.526,0 6501.159,0.099 6502.611,0 3805.242,0.099 3806.693,0 		"/>
	</defs>
	<clipPath id="SVGID_2_">
		<use xlink:href="#SVGID_1_"  overflow="visible"/>
	</clipPath>
	<polygon opacity="0.4" clip-path="url(#SVGID_2_)" fill="#007C99" points="14545.753,-1.597 29.575,-2.85 29.297,35.361 
		14545.661,36.613 	"/>
	<g clip-path="url(#SVGID_2_)">
		<g>
			<defs>
				<polygon id="SVGID_3_" points="13921.708,19.322 13603.517,31 13360.995,27.107 13048.663,28.775 12817.349,22.938 
					11947.282,30.722 11639.647,20.156 11313.224,30.166 10782.495,0.139 14589.188,0 14283.899,20.713 				"/>
			</defs>
			<clipPath id="SVGID_4_">
				<use xlink:href="#SVGID_3_"  overflow="visible"/>
			</clipPath>
			<polygon clip-path="url(#SVGID_4_)" fill="#3BB0C9" points="12513.858,13.887 12315.651,26.054 12248.104,17.411 			"/>
			<polygon clip-path="url(#SVGID_4_)" fill="#009ABF" points="12244.151,16.874 12316.368,26.041 11537.495,14.087 			"/>
			<polygon clip-path="url(#SVGID_4_)" fill="#0091B3" points="11537.792,14.199 11256.675,23.803 11328.3,8.379 			"/>
			<polygon clip-path="url(#SVGID_4_)" fill="#46A8C6" points="13073.513,-1.632 12092.271,11.146 11606.833,4.02 			"/>
			<polygon clip-path="url(#SVGID_4_)" fill="#006E96" points="11328.3,8.379 11294.438,1.854 11606.833,4.02 			"/>
			<polygon clip-path="url(#SVGID_4_)" fill="#72B1C8" points="12513.858,13.887 13129.735,-2.331 12664.577,20.362 			"/>
			<polygon clip-path="url(#SVGID_4_)" fill="#76C4D5" points="12243.958,17.47 13207.565,-4.355 12513.858,13.887 			"/>
			<polygon clip-path="url(#SVGID_4_)" fill="#0091B3" points="11537.792,14.199 12092.271,11.146 12248.104,17.411 			"/>
			<polygon clip-path="url(#SVGID_4_)" fill="#3BB0C9" points="13119.509,-2.124 12083.212,10.815 12246.704,17.5 			"/>
			<polygon clip-path="url(#SVGID_4_)" fill="#0091B3" points="11537.792,14.199 11606.833,4.02 11328.3,8.379 			"/>
			<polygon clip-path="url(#SVGID_4_)" fill="#009ABF" points="12092.271,11.146 11606.833,4.02 11537.792,14.199 			"/>
			<polygon clip-path="url(#SVGID_4_)" fill="#4296B4" points="12513.858,13.887 12315.194,26.041 12664.577,20.362 			"/>
			<polygon clip-path="url(#SVGID_4_)" fill="#009ABF" points="11294.046,1.807 11256.675,23.803 11328.3,8.379 			"/>
			<polygon clip-path="url(#SVGID_4_)" fill="#3A97B5" points="10824.985,-1.251 11256.675,23.803 11294.438,1.854 			"/>
			<polygon clip-path="url(#SVGID_4_)" fill="#0084AD" points="11602.138,4.02 10820.29,-1.251 11236.396,-7.476 			"/>
			<polygon clip-path="url(#SVGID_4_)" fill="#3BB0C9" points="13114.396,-1.629 11604.421,4.031 11224.771,-7.646 			"/>
			<polygon clip-path="url(#SVGID_4_)" fill="#006E96" points="12895.237,9.082 13457.558,27.626 13129.735,-2.331 			"/>
			<polygon clip-path="url(#SVGID_4_)" fill="#3BB0C9" points="13457.558,27.583 14259.036,11.724 14020.03,6.997 			"/>
			<polygon clip-path="url(#SVGID_4_)" fill="#46A8C6" points="14020.03,6.997 13549.835,16.554 13457.792,27.598 			"/>
			<polygon clip-path="url(#SVGID_4_)" fill="#0091B3" points="13549.835,16.554 13772.204,3.226 14020.03,6.997 			"/>
			<polygon clip-path="url(#SVGID_4_)" fill="#0084AD" points="13457.919,27.626 13549.835,16.554 13129.735,-2.331 			"/>
			<polygon clip-path="url(#SVGID_4_)" fill="#0084AD" points="13772.204,3.226 13549.835,16.554 13595.938,-4.503 			"/>
			<polygon clip-path="url(#SVGID_4_)" fill="#0091B3" points="13549.835,16.554 13129.735,-2.331 13595.938,-4.503 			"/>
			<polygon clip-path="url(#SVGID_4_)" fill="#009ABF" points="13772.204,3.226 14360.222,13.484 14298.589,-1.74 			"/>
			<polygon clip-path="url(#SVGID_4_)" fill="#46A8C6" points="13772.204,3.226 13595.938,-4.503 14298.589,-1.74 			"/>
			<polygon clip-path="url(#SVGID_4_)" fill="#3BB0C9" points="14360.222,13.495 14525.78,0.011 14304.448,0.011 			"/>
			<path opacity="0.1" clip-path="url(#SVGID_4_)" fill="#00809E" d="M10825.606-1.215l431.068,25.018l281.117-9.604l9.947,0.045
				l767.688,11.783l-0.232,0.014l0.318-0.004l0.139,0.017l0.299-0.019l0.418,0.006l-0.133-0.017l348.342-5.662l230.992-11.077
				l561.988,18.725h0.361l0.398-0.24l0.625-0.12l800.094-15.879l-2.012-0.064l103.197,1.789l165.559-13.491l0.588-1.047
				L10825.606-1.215z M12919.804,0.37l136.863-1.782l8.385-0.032L12919.804,0.37z M11603.245,3.995l-2.443-0.017l-86.377-2.715
				L11603.245,3.995z M11294.78,2.011h0.156l33.363,6.43L11294.78,2.011z"/>
		</g>
		<g>
			<defs>
				<polygon id="SVGID_5_" points="11225.79,19.322 10907.599,31 10665.077,27.107 10352.745,28.775 10121.433,22.938 
					9251.364,30.722 8943.728,20.156 8617.308,30.166 8086.579,0.139 11893.271,0 11587.983,20.713 				"/>
			</defs>
			<clipPath id="SVGID_6_">
				<use xlink:href="#SVGID_5_"  overflow="visible"/>
			</clipPath>
			<polygon clip-path="url(#SVGID_6_)" fill="#3BB0C9" points="9817.94,13.888 9619.731,26.054 9552.188,17.411 			"/>
			<polygon clip-path="url(#SVGID_6_)" fill="#009ABF" points="9548.235,16.875 9620.45,26.041 8841.577,14.087 			"/>
			<polygon clip-path="url(#SVGID_6_)" fill="#0091B3" points="8841.874,14.199 8560.757,23.803 8632.382,8.379 			"/>
			<polygon clip-path="url(#SVGID_6_)" fill="#46A8C6" points="10377.599,-1.632 9396.356,11.146 8910.917,4.02 			"/>
			<polygon clip-path="url(#SVGID_6_)" fill="#006E96" points="8632.382,8.379 8598.521,1.854 8910.917,4.02 			"/>
			<polygon clip-path="url(#SVGID_6_)" fill="#72B1C8" points="9817.94,13.888 10433.819,-2.331 9968.659,20.362 			"/>
			<polygon clip-path="url(#SVGID_6_)" fill="#76C4D5" points="9548.04,17.47 10511.651,-4.355 9817.94,13.888 			"/>
			<polygon clip-path="url(#SVGID_6_)" fill="#0091B3" points="8841.874,14.199 9396.356,11.146 9552.188,17.411 			"/>
			<polygon clip-path="url(#SVGID_6_)" fill="#3BB0C9" points="10423.589,-2.124 9387.294,10.815 9550.786,17.5 			"/>
			<polygon clip-path="url(#SVGID_6_)" fill="#0091B3" points="8841.874,14.199 8910.917,4.02 8632.382,8.379 			"/>
			<polygon clip-path="url(#SVGID_6_)" fill="#009ABF" points="9396.356,11.146 8910.917,4.02 8841.874,14.199 			"/>
			<polygon clip-path="url(#SVGID_6_)" fill="#4296B4" points="9817.94,13.888 9619.276,26.041 9968.659,20.362 			"/>
			<polygon clip-path="url(#SVGID_6_)" fill="#009ABF" points="8598.128,1.807 8560.757,23.803 8632.382,8.379 			"/>
			<polygon clip-path="url(#SVGID_6_)" fill="#3A97B5" points="8129.069,-1.251 8560.757,23.803 8598.521,1.854 			"/>
			<polygon clip-path="url(#SVGID_6_)" fill="#0084AD" points="8906.22,4.02 8124.372,-1.251 8540.479,-7.476 			"/>
			<polygon clip-path="url(#SVGID_6_)" fill="#3BB0C9" points="10418.479,-1.629 8908.505,4.031 8528.853,-7.646 			"/>
			<polygon clip-path="url(#SVGID_6_)" fill="#006E96" points="10199.319,9.082 10761.64,27.626 10433.819,-2.331 			"/>
			<polygon clip-path="url(#SVGID_6_)" fill="#3BB0C9" points="10761.64,27.583 11563.12,11.724 11324.114,6.997 			"/>
			<polygon clip-path="url(#SVGID_6_)" fill="#46A8C6" points="11324.114,6.997 10853.917,16.554 10761.874,27.598 			"/>
			<polygon clip-path="url(#SVGID_6_)" fill="#0091B3" points="10853.917,16.554 11076.286,3.226 11324.114,6.997 			"/>
			<polygon clip-path="url(#SVGID_6_)" fill="#0084AD" points="10762.005,27.626 10853.917,16.554 10433.819,-2.331 			"/>
			<polygon clip-path="url(#SVGID_6_)" fill="#0084AD" points="11076.286,3.226 10853.917,16.554 10900.022,-4.503 			"/>
			<polygon clip-path="url(#SVGID_6_)" fill="#0091B3" points="10853.917,16.554 10433.819,-2.331 10900.022,-4.503 			"/>
			<polygon clip-path="url(#SVGID_6_)" fill="#009ABF" points="11076.286,3.226 11664.306,13.484 11602.671,-1.74 			"/>
			<polygon clip-path="url(#SVGID_6_)" fill="#46A8C6" points="11076.286,3.226 10900.022,-4.503 11602.671,-1.74 			"/>
			<polygon clip-path="url(#SVGID_6_)" fill="#3BB0C9" points="11664.306,13.495 11829.864,0.011 11608.53,0.011 			"/>
			<path opacity="0.1" clip-path="url(#SVGID_6_)" fill="#00809E" d="M8129.688-1.215l431.068,25.018l281.117-9.604l9.949,0.045
				l767.688,11.783l-0.234,0.014l0.322-0.004l0.133,0.017l0.301-0.019l0.418,0.006l-0.133-0.017l348.342-5.662l230.992-11.077
				l561.988,18.725h0.365l0.393-0.24l0.629-0.12l800.094-15.879l-2.014-0.064l103.199,1.789l165.559-13.491l0.588-1.047
				L8129.688-1.215z M10223.888,0.37l136.861-1.782l8.385-0.032L10223.888,0.37z M8907.331,3.995l-2.445-0.017l-86.377-2.715
				L8907.331,3.995z M8598.866,2.011h0.15l33.365,6.43L8598.866,2.011z"/>
		</g>
		<g>
			<defs>
				<polygon id="SVGID_7_" points="8531.046,19.322 8212.856,31 7970.335,27.107 7658.003,28.775 7426.689,22.938 6556.623,30.722 
					6248.988,20.156 5922.563,30.166 5391.833,0.139 9198.526,0 8893.241,20.713 				"/>
			</defs>
			<clipPath id="SVGID_8_">
				<use xlink:href="#SVGID_7_"  overflow="visible"/>
			</clipPath>
			<polygon clip-path="url(#SVGID_8_)" fill="#3BB0C9" points="7123.199,13.888 6924.99,26.054 6857.445,17.411 			"/>
			<polygon clip-path="url(#SVGID_8_)" fill="#009ABF" points="6853.493,16.875 6925.706,26.041 6146.834,14.087 			"/>
			<polygon clip-path="url(#SVGID_8_)" fill="#0091B3" points="6147.132,14.199 5866.012,23.803 5937.638,8.379 			"/>
			<polygon clip-path="url(#SVGID_8_)" fill="#46A8C6" points="7682.854,-1.632 6701.613,11.146 6216.174,4.02 			"/>
			<polygon clip-path="url(#SVGID_8_)" fill="#006E96" points="5937.638,8.379 5903.776,1.854 6216.174,4.02 			"/>
			<polygon clip-path="url(#SVGID_8_)" fill="#72B1C8" points="7123.199,13.888 7739.077,-2.331 7273.917,20.362 			"/>
			<polygon clip-path="url(#SVGID_8_)" fill="#76C4D5" points="6853.297,17.47 7816.907,-4.355 7123.199,13.888 			"/>
			<polygon clip-path="url(#SVGID_8_)" fill="#0091B3" points="6147.132,14.199 6701.613,11.146 6857.445,17.411 			"/>
			<polygon clip-path="url(#SVGID_8_)" fill="#3BB0C9" points="7728.849,-2.124 6692.552,10.815 6856.043,17.5 			"/>
			<polygon clip-path="url(#SVGID_8_)" fill="#0091B3" points="6147.132,14.199 6216.174,4.02 5937.638,8.379 			"/>
			<polygon clip-path="url(#SVGID_8_)" fill="#009ABF" points="6701.613,11.146 6216.174,4.02 6147.132,14.199 			"/>
			<polygon clip-path="url(#SVGID_8_)" fill="#4296B4" points="7123.199,13.888 6924.532,26.041 7273.917,20.362 			"/>
			<polygon clip-path="url(#SVGID_8_)" fill="#009ABF" points="5903.386,1.807 5866.012,23.803 5937.638,8.379 			"/>
			<polygon clip-path="url(#SVGID_8_)" fill="#3A97B5" points="5434.325,-1.251 5866.012,23.803 5903.776,1.854 			"/>
			<polygon clip-path="url(#SVGID_8_)" fill="#0084AD" points="6211.478,4.021 5429.63,-1.251 5845.734,-7.476 			"/>
			<polygon clip-path="url(#SVGID_8_)" fill="#3BB0C9" points="7723.737,-1.629 6213.762,4.031 5834.11,-7.646 			"/>
			<polygon clip-path="url(#SVGID_8_)" fill="#006E96" points="7504.577,9.082 8066.896,27.626 7739.077,-2.331 			"/>
			<polygon clip-path="url(#SVGID_8_)" fill="#3BB0C9" points="8066.896,27.583 8868.376,11.724 8629.37,6.997 			"/>
			<polygon clip-path="url(#SVGID_8_)" fill="#46A8C6" points="8629.37,6.997 8159.175,16.554 8067.132,27.598 			"/>
			<polygon clip-path="url(#SVGID_8_)" fill="#0091B3" points="8159.175,16.554 8381.542,3.226 8629.37,6.997 			"/>
			<polygon clip-path="url(#SVGID_8_)" fill="#0084AD" points="8067.261,27.626 8159.175,16.554 7739.077,-2.331 			"/>
			<polygon clip-path="url(#SVGID_8_)" fill="#0084AD" points="8381.542,3.226 8159.175,16.554 8205.278,-4.503 			"/>
			<polygon clip-path="url(#SVGID_8_)" fill="#0091B3" points="8159.175,16.554 7739.077,-2.331 8205.278,-4.503 			"/>
			<polygon clip-path="url(#SVGID_8_)" fill="#009ABF" points="8381.542,3.226 8969.562,13.484 8907.929,-1.74 			"/>
			<polygon clip-path="url(#SVGID_8_)" fill="#46A8C6" points="8381.542,3.226 8205.278,-4.503 8907.929,-1.74 			"/>
			<polygon clip-path="url(#SVGID_8_)" fill="#3BB0C9" points="8969.562,13.495 9135.12,0.011 8913.788,0.011 			"/>
			<path opacity="0.1" clip-path="url(#SVGID_8_)" fill="#00809E" d="M5434.946-1.215l431.066,25.018l281.12-9.604l9.946,0.045
				l767.69,11.783l-0.237,0.014l0.322-0.004l0.136,0.017l0.3-0.019l0.416,0.006l-0.133-0.017l348.344-5.662l230.99-11.077
				l561.988,18.725h0.365l0.396-0.24l0.628-0.12l800.092-15.879l-2.012-0.064l103.197,1.789L9135.12,0.006l0.588-1.047
				L5434.946-1.215z M7529.144,0.37l136.861-1.782l8.387-0.032L7529.144,0.37z M6212.585,3.995l-2.442-0.017l-86.378-2.715
				L6212.585,3.995z M5904.123,2.011h0.151l33.364,6.43L5904.123,2.011z"/>
		</g>
		<g>
			<defs>
				<polygon id="SVGID_9_" points="5835.131,19.322 5516.939,31 5274.418,27.107 4962.085,28.775 4730.774,22.938 3860.705,30.722 
					3553.07,20.156 3226.646,30.166 2695.917,0.139 6502.611,0 6197.324,20.713 				"/>
			</defs>
			<clipPath id="SVGID_10_">
				<use xlink:href="#SVGID_9_"  overflow="visible"/>
			</clipPath>
			<polygon clip-path="url(#SVGID_10_)" fill="#3BB0C9" points="4427.282,13.888 4229.073,26.054 4161.527,17.411 			"/>
			<polygon clip-path="url(#SVGID_10_)" fill="#009ABF" points="4157.577,16.875 4229.788,26.041 3450.917,14.087 			"/>
			<polygon clip-path="url(#SVGID_10_)" fill="#0091B3" points="3451.215,14.199 3170.095,23.803 3241.72,8.379 			"/>
			<polygon clip-path="url(#SVGID_10_)" fill="#46A8C6" points="4986.937,-1.632 4005.697,11.146 3520.257,4.02 			"/>
			<polygon clip-path="url(#SVGID_10_)" fill="#006E96" points="3241.72,8.379 3207.859,1.854 3520.257,4.02 			"/>
			<polygon clip-path="url(#SVGID_10_)" fill="#72B1C8" points="4427.282,13.888 5043.16,-2.331 4578,20.362 			"/>
			<polygon clip-path="url(#SVGID_10_)" fill="#76C4D5" points="4157.381,17.47 5120.991,-4.355 4427.282,13.888 			"/>
			<polygon clip-path="url(#SVGID_10_)" fill="#0091B3" points="3451.215,14.199 4005.697,11.146 4161.527,17.411 			"/>
			<polygon clip-path="url(#SVGID_10_)" fill="#3BB0C9" points="5032.929,-2.124 3996.635,10.815 4160.126,17.5 			"/>
			<polygon clip-path="url(#SVGID_10_)" fill="#0091B3" points="3451.215,14.199 3520.257,4.02 3241.72,8.379 			"/>
			<polygon clip-path="url(#SVGID_10_)" fill="#009ABF" points="4005.697,11.146 3520.257,4.02 3451.215,14.199 			"/>
			<polygon clip-path="url(#SVGID_10_)" fill="#4296B4" points="4427.282,13.888 4228.614,26.041 4578,20.362 			"/>
			<polygon clip-path="url(#SVGID_10_)" fill="#009ABF" points="3207.469,1.807 3170.095,23.803 3241.72,8.379 			"/>
			<polygon clip-path="url(#SVGID_10_)" fill="#3A97B5" points="2738.408,-1.251 3170.095,23.803 3207.859,1.854 			"/>
			<polygon clip-path="url(#SVGID_10_)" fill="#0084AD" points="3515.561,4.021 2733.713,-1.251 3149.818,-7.476 			"/>
			<polygon clip-path="url(#SVGID_10_)" fill="#3BB0C9" points="5027.82,-1.629 3517.845,4.031 3138.193,-7.646 			"/>
			<polygon clip-path="url(#SVGID_10_)" fill="#006E96" points="4808.659,9.082 5370.979,27.626 5043.16,-2.331 			"/>
			<polygon clip-path="url(#SVGID_10_)" fill="#3BB0C9" points="5370.979,27.583 6172.459,11.724 5933.454,6.997 			"/>
			<polygon clip-path="url(#SVGID_10_)" fill="#46A8C6" points="5933.454,6.997 5463.257,16.554 5371.212,27.598 			"/>
			<polygon clip-path="url(#SVGID_10_)" fill="#0091B3" points="5463.257,16.554 5685.624,3.226 5933.454,6.997 			"/>
			<polygon clip-path="url(#SVGID_10_)" fill="#0084AD" points="5371.343,27.626 5463.257,16.554 5043.16,-2.331 			"/>
			<polygon clip-path="url(#SVGID_10_)" fill="#0084AD" points="5685.624,3.226 5463.257,16.554 5509.36,-4.503 			"/>
			<polygon clip-path="url(#SVGID_10_)" fill="#0091B3" points="5463.257,16.554 5043.16,-2.331 5509.36,-4.503 			"/>
			<polygon clip-path="url(#SVGID_10_)" fill="#009ABF" points="5685.624,3.226 6273.645,13.484 6212.01,-1.74 			"/>
			<polygon clip-path="url(#SVGID_10_)" fill="#46A8C6" points="5685.624,3.226 5509.36,-4.503 6212.01,-1.74 			"/>
			<polygon clip-path="url(#SVGID_10_)" fill="#3BB0C9" points="6273.645,13.495 6439.205,0.011 6217.872,0.011 			"/>
			<path opacity="0.1" clip-path="url(#SVGID_10_)" fill="#00809E" d="M2739.029-1.215l431.066,25.018l281.119-9.604l9.946,0.045
				l767.689,11.783l-0.236,0.014l0.324-0.004l0.135,0.017l0.301-0.019l0.415,0.006l-0.133-0.017L4578,20.362l230.99-11.077
				l561.988,18.725h0.365l0.396-0.24l0.626-0.12l800.093-15.879l-2.01-0.064l103.196,1.789l165.56-13.491l0.587-1.047
				L2739.029-1.215z M4833.226,0.37l136.862-1.782l8.387-0.032L4833.226,0.37z M3516.669,3.995l-2.442-0.017l-86.378-2.715
				L3516.669,3.995z M3208.205,2.011h0.151l33.363,6.43L3208.205,2.011z"/>
		</g>
		<g>
			<defs>
				<polygon id="SVGID_11_" points="3139.214,19.322 2821.022,31 2578.502,27.107 2266.17,28.775 2034.856,22.938 1164.788,30.723 
					857.154,20.156 530.729,30.166 0,0.139 3806.693,0 3501.406,20.713 				"/>
			</defs>
			<clipPath id="SVGID_12_">
				<use xlink:href="#SVGID_11_"  overflow="visible"/>
			</clipPath>
			<polygon clip-path="url(#SVGID_12_)" fill="#3BB0C9" points="1731.365,13.888 1533.156,26.054 1465.611,17.411 			"/>
			<polygon clip-path="url(#SVGID_12_)" fill="#009ABF" points="1461.66,16.875 1533.871,26.042 755,14.087 			"/>
			<polygon clip-path="url(#SVGID_12_)" fill="#0091B3" points="755.299,14.199 474.178,23.803 545.804,8.379 			"/>
			<polygon clip-path="url(#SVGID_12_)" fill="#46A8C6" points="2291.02,-1.632 1309.78,11.146 824.341,4.02 			"/>
			<polygon clip-path="url(#SVGID_12_)" fill="#006E96" points="545.804,8.379 511.942,1.854 824.341,4.02 			"/>
			<polygon clip-path="url(#SVGID_12_)" fill="#72B1C8" points="1731.365,13.888 2347.244,-2.331 1882.085,20.362 			"/>
			<polygon clip-path="url(#SVGID_12_)" fill="#76C4D5" points="1461.464,17.47 2425.074,-4.355 1731.365,13.888 			"/>
			<polygon clip-path="url(#SVGID_12_)" fill="#0091B3" points="755.299,14.199 1309.78,11.146 1465.611,17.411 			"/>
			<polygon clip-path="url(#SVGID_12_)" fill="#3BB0C9" points="2337.012,-2.124 1300.718,10.815 1464.209,17.5 			"/>
			<polygon clip-path="url(#SVGID_12_)" fill="#0091B3" points="755.299,14.199 824.341,4.02 545.804,8.379 			"/>
			<polygon clip-path="url(#SVGID_12_)" fill="#009ABF" points="1309.78,11.146 824.341,4.02 755.299,14.199 			"/>
			<polygon clip-path="url(#SVGID_12_)" fill="#4296B4" points="1731.365,13.888 1532.697,26.042 1882.085,20.362 			"/>
			<polygon clip-path="url(#SVGID_12_)" fill="#009ABF" points="511.553,1.807 474.178,23.803 545.804,8.379 			"/>
			<polygon clip-path="url(#SVGID_12_)" fill="#3A97B5" points="42.491,-1.251 474.178,23.803 511.942,1.854 			"/>
			<polygon clip-path="url(#SVGID_12_)" fill="#0084AD" points="819.644,4.021 37.797,-1.251 453.9,-7.476 			"/>
			<polygon clip-path="url(#SVGID_12_)" fill="#3BB0C9" points="2331.902,-1.629 821.929,4.031 442.276,-7.646 			"/>
			<polygon clip-path="url(#SVGID_12_)" fill="#006E96" points="2112.742,9.082 2675.062,27.626 2347.244,-2.331 			"/>
			<polygon clip-path="url(#SVGID_12_)" fill="#3BB0C9" points="2675.062,27.583 3476.542,11.724 3237.538,6.997 			"/>
			<polygon clip-path="url(#SVGID_12_)" fill="#46A8C6" points="3237.538,6.997 2767.34,16.554 2675.296,27.598 			"/>
			<polygon clip-path="url(#SVGID_12_)" fill="#0091B3" points="2767.34,16.554 2989.708,3.226 3237.538,6.997 			"/>
			<polygon clip-path="url(#SVGID_12_)" fill="#0084AD" points="2675.426,27.626 2767.34,16.554 2347.244,-2.331 			"/>
			<polygon clip-path="url(#SVGID_12_)" fill="#0084AD" points="2989.708,3.226 2767.34,16.554 2813.442,-4.503 			"/>
			<polygon clip-path="url(#SVGID_12_)" fill="#0091B3" points="2767.34,16.554 2347.244,-2.331 2813.442,-4.503 			"/>
			<polygon clip-path="url(#SVGID_12_)" fill="#009ABF" points="2989.708,3.226 3577.729,13.484 3516.093,-1.74 			"/>
			<polygon clip-path="url(#SVGID_12_)" fill="#46A8C6" points="2989.708,3.226 2813.442,-4.503 3516.093,-1.74 			"/>
			<polygon clip-path="url(#SVGID_12_)" fill="#3BB0C9" points="3577.729,13.495 3743.288,0.011 3521.955,0.011 			"/>
			<path opacity="0.1" clip-path="url(#SVGID_12_)" fill="#00809E" d="M43.112-1.215l431.066,25.018l281.121-9.604l9.945,0.045
				l767.69,11.783l-0.236,0.015l0.323-0.005l0.135,0.017l0.3-0.019l0.415,0.007l-0.133-0.018l348.347-5.662l230.989-11.077
				l561.987,18.725h0.365l0.396-0.24l0.626-0.12l800.094-15.879l-2.011-0.064l103.197,1.789l165.559-13.491l0.586-1.047
				L43.112-1.215z M2137.309,0.37l136.862-1.782l8.387-0.032L2137.309,0.37z M820.752,3.995l-2.443-0.017l-86.377-2.715
				L820.752,3.995z M512.289,2.011h0.15l33.364,6.43L512.289,2.011z"/>
		</g>
	</g>
</g>
<g opacity="0.2">
	<g>
		<defs>
			<polygon id="SVGID_13_" points="2101.079,244.755 3630.148,386.623 4795.586,339.333 6296.498,359.601 7408.076,288.668 
				11589.192,383.245 13067.534,254.889 14636.161,376.49 14637.499,11.688 357.499,10 360.554,261.645 			"/>
		</defs>
		<clipPath id="SVGID_14_">
			<use xlink:href="#SVGID_13_"  overflow="visible"/>
		</clipPath>
		<polygon clip-path="url(#SVGID_14_)" fill="#3BB0C9" points="8866.503,178.715 9819.001,326.528 10143.583,221.539 		"/>
		<polygon clip-path="url(#SVGID_14_)" fill="#009ABF" points="10162.577,215.004 9815.554,326.382 13558.435,181.139 		"/>
		<polygon clip-path="url(#SVGID_14_)" fill="#0091B3" points="13557.003,182.504 14907.917,299.178 14563.724,111.787 		"/>
		<polygon clip-path="url(#SVGID_14_)" fill="#46A8C6" points="6177.072,-9.825 10892.438,145.405 13225.216,58.839 		"/>
		<polygon clip-path="url(#SVGID_14_)" fill="#006E96" points="14563.724,111.787 14726.44,32.516 13225.216,58.839 		"/>
		<polygon clip-path="url(#SVGID_14_)" fill="#72B1C8" points="8866.503,178.715 5906.894,-18.318 8142.222,257.381 		"/>
		<polygon clip-path="url(#SVGID_14_)" fill="#76C4D5" points="10163.509,222.236 5532.877,-42.92 8866.503,178.715 		"/>
		<polygon clip-path="url(#SVGID_14_)" fill="#0091B3" points="13557.003,182.504 10892.438,145.405 10143.583,221.539 		"/>
		<polygon clip-path="url(#SVGID_14_)" fill="#3BB0C9" points="5956.051,-15.803 10935.979,141.397 10150.317,222.606 		"/>
		<polygon clip-path="url(#SVGID_14_)" fill="#0091B3" points="13557.003,182.504 13225.216,58.839 14563.724,111.787 		"/>
		<polygon clip-path="url(#SVGID_14_)" fill="#009ABF" points="10892.438,145.405 13225.216,58.839 13557.003,182.504 		"/>
		<polygon clip-path="url(#SVGID_14_)" fill="#4296B4" points="8866.503,178.715 9821.196,326.382 8142.222,257.381 		"/>
		<polygon clip-path="url(#SVGID_14_)" fill="#009ABF" points="14728.321,31.954 14907.917,299.178 14563.724,111.787 		"/>
		<polygon clip-path="url(#SVGID_14_)" fill="#3A97B5" points="16982.395,-5.194 14907.917,299.178 14726.44,32.516 		"/>
		<polygon clip-path="url(#SVGID_14_)" fill="#0084AD" points="13247.784,58.842 17004.961,-5.193 15005.36,-80.823 		"/>
		<polygon clip-path="url(#SVGID_14_)" fill="#3BB0C9" points="5980.611,-9.789 13236.81,58.975 15061.231,-82.891 		"/>
		<polygon clip-path="url(#SVGID_14_)" fill="#006E96" points="7033.788,120.34 4331.556,345.635 5906.894,-18.318 		"/>
		<polygon clip-path="url(#SVGID_14_)" fill="#3BB0C9" points="4331.556,345.112 480.034,152.433 1628.58,95.008 		"/>
		<polygon clip-path="url(#SVGID_14_)" fill="#46A8C6" points="1628.58,95.008 3888.12,211.113 4330.431,345.291 		"/>
		<polygon clip-path="url(#SVGID_14_)" fill="#0091B3" points="3888.12,211.113 2819.524,49.188 1628.58,95.008 		"/>
		<polygon clip-path="url(#SVGID_14_)" fill="#0084AD" points="4329.805,345.635 3888.12,211.113 5906.894,-18.318 		"/>
		<polygon clip-path="url(#SVGID_14_)" fill="#0084AD" points="2819.524,49.188 3888.12,211.113 3666.562,-44.702 		"/>
		<polygon clip-path="url(#SVGID_14_)" fill="#0091B3" points="3888.12,211.113 5906.894,-18.318 3666.562,-44.702 		"/>
		<polygon clip-path="url(#SVGID_14_)" fill="#009ABF" points="2819.524,49.188 -6.208,173.82 289.972,-11.137 		"/>
		<polygon clip-path="url(#SVGID_14_)" fill="#46A8C6" points="2819.524,49.188 3666.562,-44.702 289.972,-11.137 		"/>
		<polygon opacity="0.4" clip-path="url(#SVGID_14_)" fill="#007C99" points="-1163.257,8.201 17201.652,4.766 17202.602,440.499 
			-1162.546,443.939 		"/>
		<polygon clip-path="url(#SVGID_14_)" fill="#3BB0C9" points="-6.208,173.831 -801.807,10.011 261.812,10.011 		"/>
		<path opacity="0.1" clip-path="url(#SVGID_14_)" fill="#00809E" d="M-804.628-2.657l2.821,12.678L-6.208,173.875l495.912-21.822
			l-9.669,0.586l3844.858,192.557l3.013,0.548l1.9,1.268h1.751L7032.197,121.16l1110.025,136.149l1673.973,68.832l-0.641,0.224
			l1.998-0.065l1.449,0.226l0.648-0.206l1.547,0.062l-1.133-0.173l3689.135-143.159l47.805-0.545l1350.914,116.674L16979.414-4.757
			L-804.628-2.657z M6217.744-7.543l40.295,0.385l657.694,21.65L6217.744-7.543z M13669.29,25.348l-415.09,32.981l-11.742,0.208
			L13669.29,25.348z M14563.724,111.787l160.326-78.106l0.732-0.014L14563.724,111.787z"/>
	</g>
	<g>
		<defs>
			<polygon id="SVGID_15_" points="2101.083,360.195 3630.154,214.355 4795.589,390 6307.788,254.726 7408.081,376.244 
				11589.192,252.433 13067.534,376.244 14636.169,270.772 14628.89,13.486 357.499,11.688 360.56,167.598 			"/>
		</defs>
		<clipPath id="SVGID_16_">
			<use xlink:href="#SVGID_15_"  overflow="visible"/>
		</clipPath>
		<polygon opacity="0.4" clip-path="url(#SVGID_16_)" fill="#007C99" points="-1185.821,-48.012 17179.09,-51.675 
			17180.039,412.543 -1185.112,416.209 		"/>
		<g clip-path="url(#SVGID_16_)">
			<polygon fill="#08A7C1" points="8866.503,191.429 9818.999,206.753 10143.583,168.272 			"/>
			<polygon fill="#3BB0C9" points="10162.575,161.311 9815.552,206.597 13558.435,292.605 			"/>
			<polygon fill="#2591AF" points="13556.999,294.056 14907.921,170.736 14563.729,120.126 			"/>
			<polygon fill="#2591AF" points="6161.082,-7.801 10892.437,155.947 13225.216,63.72 			"/>
			<polygon fill="#50B2CC" points="14563.729,120.126 14729.269,35.38 13225.216,63.72 			"/>
			<polygon fill="#08A7C1" points="8866.503,191.429 5906.899,-18.481 8142.228,238.555 			"/>
			<polygon fill="#3BB0C9" points="10150.347,169.126 5532.881,-44.688 8866.503,191.429 			"/>
			<polygon fill="#3BB0C9" points="13556.999,294.056 10892.437,155.947 10143.583,168.272 			"/>
			<polygon fill="#3BB0C9" points="5956.059,-15.803 10899.864,155.369 10150.317,169.408 			"/>
			<polygon fill="#0084AD" points="13556.999,294.056 13225.216,63.72 14563.729,120.126 			"/>
			<polygon fill="#009ABF" points="10855.665,153.844 13225.216,63.72 13556.999,294.056 			"/>
			<polygon fill="#50B2CC" points="8866.503,191.429 9821.194,206.597 8142.228,238.555 			"/>
			<polygon fill="#3BB0C9" points="14728.327,35.078 14907.921,170.736 14563.729,120.126 			"/>
			<polygon fill="#0084AD" points="16982.398,-4.501 14907.921,170.736 14726.448,35.675 			"/>
			<polygon fill="#009ABF" points="13228.351,64.42 17004.969,-4.501 15005.368,-85.072 			"/>
			<polygon fill="#3BB0C9" points="5980.617,-9.395 13236.81,63.866 15023.966,-84.187 15061.235,-87.271 			"/>
			<polygon fill="#08A7C1" points="7033.793,275.359 4331.562,162.912 5906.899,-18.481 			"/>
			<polygon fill="#3BB0C9" points="2087.175,291.412 326.705,101.106 1663.987,75.887 			"/>
			<polygon fill="#46A8C6" points="2611.929,80.472 3888.122,118.189 4330.437,162.545 			"/>
			<polygon fill="#02A1BC" points="3888.122,118.189 2819.526,53.438 1613.204,78.18 			"/>
			<polygon fill="#0084AD" points="4329.811,162.912 3888.122,118.189 5906.899,-18.481 			"/>
			<polygon fill="#08A7C1" points="2819.526,53.438 3888.122,118.189 3666.568,-46.588 			"/>
			<polygon fill="#009DB7" points="3888.122,118.189 5906.899,-18.481 3666.568,-46.588 			"/>
			<polygon fill="#008EAF" points="2819.526,53.438 326.705,105.971 219.496,-10.825 			"/>
			<polygon fill="#46A8C6" points="2819.893,53.583 3666.568,-44.291 289.977,-8.533 			"/>
			<polygon fill="#3BB0C9" points="326.705,105.971 -801.801,11.688 225.141,0.227 			"/>
			<polygon fill="#0099BC" points="2087.175,291.412 3492.166,110.279 1635.773,73.596 			"/>
			<polygon fill="#50B2CC" points="7033.793,275.359 8142.228,238.555 5568.616,-98.365 			"/>
		</g>
		<path opacity="0.1" clip-path="url(#SVGID_16_)" fill="#00809E" d="M-801.795,11.701l1128.512,94.296l37.648-0.771
			l1722.848,186.288L3423.007,119.41l924.942,43.753l2685.844,112.641l1108.434-37.141l1673.5-31.834l3.271,0.182h0.545
			l3630.33,83.492l107.125,4.318l-51.5-1.811h0.131l51.369,1.854l1350.922-124.024L16976.18-3.925l28.789-0.549L-801.795,11.701z
			 M13443.095,288.144l-0.637-0.025l-2550.021-132.171l-193.115,3.18l184.9-3.464l8.215,0.284l2.143-0.085L13443.095,288.144z"/>
	</g>
</g>
<g opacity="0.3">
	<g>
		<defs>
			<polygon id="SVGID_17_" points="12891.853,263.873 11361.118,407.141 10196.245,357.325 8695.104,376.215 7584.374,302.273 
				3402.17,393.896 1925.354,260.754 355.3,383.24 358.274,10 14638.2,25.833 14632.169,283.295 			"/>
		</defs>
		<clipPath id="SVGID_18_">
			<use xlink:href="#SVGID_17_"  overflow="visible"/>
		</clipPath>
		<polygon clip-path="url(#SVGID_18_)" fill="#3BB0C9" points="6127.257,187.986 5173.02,338.045 4849.681,230.229 		"/>
		<polygon clip-path="url(#SVGID_18_)" fill="#009ABF" points="4830.761,223.519 5176.467,337.902 1435.329,184.694 		"/>
		<polygon clip-path="url(#SVGID_18_)" fill="#0091B3" points="1436.743,186.093 84.46,303.806 430.866,112.501 		"/>
		<polygon clip-path="url(#SVGID_18_)" fill="#46A8C6" points="8818.897,-1.606 4101.73,151.413 1769.991,59.978 		"/>
		<polygon clip-path="url(#SVGID_18_)" fill="#006E96" points="430.866,112.501 269.087,31.196 1769.991,59.978 		"/>
		<polygon clip-path="url(#SVGID_18_)" fill="#72B1C8" points="6127.257,187.986 9089.175,-9.967 6850.602,269.36 		"/>
		<polygon clip-path="url(#SVGID_18_)" fill="#76C4D5" points="4829.746,230.916 9463.479,-34.676 6127.257,187.986 		"/>
		<polygon clip-path="url(#SVGID_18_)" fill="#0091B3" points="1436.743,186.093 4101.73,151.413 4849.681,230.229 		"/>
		<polygon clip-path="url(#SVGID_18_)" fill="#3BB0C9" points="9039.987,-7.452 4058.236,147.26 4842.933,231.312 		"/>
		<polygon clip-path="url(#SVGID_18_)" fill="#0091B3" points="1436.743,186.093 1769.991,59.978 430.866,112.501 		"/>
		<polygon clip-path="url(#SVGID_18_)" fill="#009ABF" points="4101.73,151.413 1769.991,59.978 1436.743,186.093 		"/>
		<polygon clip-path="url(#SVGID_18_)" fill="#4296B4" points="6127.257,187.986 5170.825,337.893 6850.602,269.36 		"/>
		<polygon clip-path="url(#SVGID_18_)" fill="#009ABF" points="267.214,30.621 84.46,303.806 430.866,112.501 		"/>
		<polygon clip-path="url(#SVGID_18_)" fill="#3A97B5" points="-1986.403,-10.157 84.46,303.806 269.087,31.196 		"/>
		<polygon clip-path="url(#SVGID_18_)" fill="#0084AD" points="1747.425,59.951 -2008.97,-10.184 -8.489,-85.104 		"/>
		<polygon clip-path="url(#SVGID_18_)" fill="#3BB0C9" points="9015.358,-1.33 1758.397,60.102 -64.339,-87.288 		"/>
		<polygon clip-path="url(#SVGID_18_)" fill="#006E96" points="7960.649,130.516 10660.198,364.342 9089.175,-9.967 		"/>
		<polygon clip-path="url(#SVGID_18_)" fill="#3BB0C9" points="10660.204,363.809 14513.979,171.408 13366.118,111.242 		"/>
		<polygon clip-path="url(#SVGID_18_)" fill="#46A8C6" points="13366.118,111.242 11105.224,227.256 10661.327,363.992 		"/>
		<polygon clip-path="url(#SVGID_18_)" fill="#0091B3" points="11105.224,227.256 12175.726,62.899 13366.118,111.242 		"/>
		<polygon clip-path="url(#SVGID_18_)" fill="#0084AD" points="10661.95,364.344 11105.224,227.256 9089.175,-9.967 		"/>
		<polygon clip-path="url(#SVGID_18_)" fill="#0084AD" points="12175.726,62.899 11105.224,227.256 11329.804,-34.204 		"/>
		<polygon clip-path="url(#SVGID_18_)" fill="#0091B3" points="11105.224,227.256 9089.175,-9.967 11329.804,-34.204 		"/>
		<polygon clip-path="url(#SVGID_18_)" fill="#009ABF" points="12175.726,62.899 14999.966,193.891 14705.976,4.292 		"/>
		<polygon clip-path="url(#SVGID_18_)" fill="#46A8C6" points="12175.726,62.899 11329.804,-34.204 14705.976,4.292 		"/>
		<polygon opacity="0.4" clip-path="url(#SVGID_18_)" fill="#007C99" points="16158.964,25.864 -2205.778,-0.237 -2211.88,445.572 
			16153.101,471.678 		"/>
		<polygon clip-path="url(#SVGID_18_)" fill="#3BB0C9" points="14999.966,193.891 15797.497,27.26 14733.886,25.952 		"/>
		<path opacity="0.1" clip-path="url(#SVGID_18_)" fill="#00809E" d="M-1983.431-9.707L84.46,303.806l1352.283-117.713l47.799,0.616
			l3687.419,151.007l-1.137,0.177l1.547-0.063l0.648,0.213l1.449-0.229l1.998,0.07l-0.637-0.232l1674.773-68.365l1111.628-138.301
			l2697.951,234.027h1.752l1.914-0.922l3.02-0.369l3847.109-192.193l-9.662-0.564l495.65,22.958l797.529-166.652l2.973-12.96
			L-1983.431-9.707z M8079.954,22.361l657.947-21.34l40.299-0.344L8079.954,22.361z M1752.753,59.646l-11.738-0.228l-414.699-34.254
			L1752.753,59.646z M270.734,32.379l0.73,0.013l159.402,80.109L270.734,32.379z"/>
	</g>
	<g>
		<defs>
			<polygon id="SVGID_19_" points="12890.485,381.982 11363.149,230.891 10195.644,409.163 8685.056,268.899 7583.333,391.877 
				3403.715,260.062 1923.919,384.916 356.542,275.077 366.862,11.85 14638.179,27.559 14633.274,187.072 			"/>
		</defs>
		<clipPath id="SVGID_20_">
			<use xlink:href="#SVGID_19_"  overflow="visible"/>
		</clipPath>
		<polygon opacity="0.4" clip-path="url(#SVGID_20_)" fill="#007C99" points="16182.192,-31.622 -2182.548,-57.958 
			-2188.985,416.997 16175.995,443.334 		"/>
		<g clip-path="url(#SVGID_20_)">
			<polygon fill="#08A7C1" points="6127.107,200.993 5174.438,215.5 4850.31,175.73 			"/>
			<polygon fill="#3BB0C9" points="4831.4,168.585 5177.885,215.344 1434.011,298.738 			"/>
			<polygon fill="#2591AF" points="1435.429,300.225 85.972,172.393 430.763,121.033 			"/>
			<polygon fill="#2591AF" points="8834.864,0.482 4101.607,162.2 1769.934,64.971 			"/>
			<polygon fill="#50B2CC" points="430.763,121.033 266.226,34.124 1769.934,64.971 			"/>
			<polygon fill="#08A7C1" points="6127.107,200.993 9089.171,-10.131 6850.818,250.1 			"/>
			<polygon fill="#3BB0C9" points="4843.535,176.595 9463.497,-36.486 6127.107,200.993 			"/>
			<polygon fill="#3BB0C9" points="1435.429,300.225 4101.607,162.2 4850.31,175.73 			"/>
			<polygon fill="#3BB0C9" points="9039.981,-7.452 4094.187,161.601 4843.562,176.886 			"/>
			<polygon fill="#0084AD" points="1435.429,300.225 1769.934,64.971 430.763,121.033 			"/>
			<polygon fill="#009ABF" points="4138.404,160.093 1769.934,64.971 1435.429,300.225 			"/>
			<polygon fill="#50B2CC" points="6127.107,200.993 5172.243,215.337 6850.818,250.1 			"/>
			<polygon fill="#3BB0C9" points="267.171,33.817 85.972,172.393 430.763,121.033 			"/>
			<polygon fill="#0084AD" points="-1986.417,-9.449 85.972,172.393 269.042,34.432 			"/>
			<polygon fill="#009ABF" points="1766.792,65.682 -2008.985,-9.478 -8.446,-89.453 			"/>
			<polygon fill="#3BB0C9" points="9015.347,-0.926 1758.339,65.105 -27.056,-88.57 -64.288,-91.771 			"/>
			<polygon fill="#08A7C1" points="7958.812,289.119 10662.353,177.395 9089.171,-10.131 			"/>
			<polygon fill="#3BB0C9" points="12905.208,311.625 14667.915,119.086 13330.938,91.635 			"/>
			<polygon fill="#46A8C6" points="12382.948,95.162 11106.321,132.184 10663.483,177.02 			"/>
			<polygon fill="#02A1BC" points="11106.321,132.184 12175.673,67.246 13381.694,94.046 			"/>
			<polygon fill="#0084AD" points="10664.104,177.396 11106.321,132.184 9089.171,-10.131 			"/>
			<polygon fill="#08A7C1" points="12175.673,67.246 11106.321,132.184 11329.819,-36.132 			"/>
			<polygon fill="#009DB7" points="11106.321,132.184 9089.171,-10.131 11329.819,-36.132 			"/>
			<polygon fill="#008EAF" points="12175.673,67.246 14667.858,124.062 14776.446,4.697 			"/>
			<polygon fill="#46A8C6" points="12175.304,67.396 11329.792,-33.783 14705.938,6.956 			"/>
			<polygon fill="#3BB0C9" points="14667.858,124.062 15797.472,28.986 14770.671,15.997 			"/>
			<polygon fill="#0099BC" points="12905.208,311.625 11502.366,124.578 13359.179,89.326 			"/>
			<polygon fill="#50B2CC" points="7958.812,289.119 6850.818,250.1 9428.397,-91.446 			"/>
		</g>
		<path opacity="0.1" clip-path="url(#SVGID_20_)" fill="#00809E" d="M-2008.985-9.449l28.781,0.595L85.972,172.495
			l1349.449,127.951l51.39-2.436h0.131l-51.521,2.389l107.176-3.975l3631.292-80.779l0.547,0.062l3.271-0.154l1673.111,34.646
			l1107.987,39.365l2687.156-111.937l925.455-43.625l1333.75,177.728l1725.041-188.479l37.639,0.837l1129.617-95.09L-2008.985-9.449
			z M4099.466,162.111l2.141,0.089l8.219-0.28l184.857,3.771l-193.076-3.491L1550.036,294.29l-0.635,0.026L4099.466,162.111z"/>
	</g>
</g>
<g>
</g>
<g>
</g>
<g>
</g>
<g>
</g>
<g>
</g>
<g>
</g>
</svg>
