<?xml version="1.0" encoding="utf-8"?>
<!-- Generator: Adobe Illustrator 16.0.0, SVG Export Plug-In . SVG Version: 6.00 Build 0)  -->
<!DOCTYPE svg PUBLIC "-//W3C//DTD SVG 1.1//EN" "http://www.w3.org/Graphics/SVG/1.1/DTD/svg11.dtd">
<svg version="1.1" id="Layer_1" xmlns="http://www.w3.org/2000/svg" xmlns:xlink="http://www.w3.org/1999/xlink" x="0px" y="0px"
	 width="70.794px" height="33.536px" viewBox="0 0 70.794 33.536" enable-background="new 0 0 70.794 33.536" xml:space="preserve">
<g>
	<g>
		<polygon fill="#DBAA27" points="70.794,27.756 70.794,33.536 58.72,27.737 		"/>
		<polygon fill="#DBAA27" points="45.794,33.508 45.794,27.729 33.72,33.526 		"/>
		<polygon fill="#AE8A2F" points="34.794,33.508 34.794,27.729 22.721,33.526 		"/>
		<polygon fill="#AE8A2F" points="57.794,27.729 57.794,33.516 69.992,33.522 		"/>
		<polygon fill="#DBAA27" points="45.794,33.508 45.794,27.729 57.869,33.526 		"/>
		<polygon fill="#AE8A2F" points="57.794,33.536 57.794,27.749 45.595,27.741 		"/>
		<polygon fill="#AE8A2F" points="34.794,33.536 34.794,27.749 46.994,27.741 		"/>
		<polygon fill="#DBAA27" points="21.794,33.536 21.794,27.749 33.994,27.741 		"/>
	</g>
	<g>
		<polygon fill="#DBAA27" points="70.794,22.225 70.794,28.004 58.72,22.206 		"/>
		<polygon fill="#DBAA27" points="45.794,27.977 45.794,22.196 33.72,27.995 		"/>
		<polygon fill="#AE8A2F" points="34.794,27.977 34.794,22.196 22.721,27.995 		"/>
		<polygon fill="#AE8A2F" points="57.794,22.196 57.794,27.985 69.992,27.991 		"/>
		<polygon fill="#DBAA27" points="45.794,27.977 45.794,22.196 57.869,27.995 		"/>
		<polygon fill="#AE8A2F" points="57.794,28.004 57.794,22.217 45.595,22.209 		"/>
		<polygon fill="#AE8A2F" points="34.794,28.004 34.794,22.217 46.994,22.209 		"/>
		<polygon fill="#DBAA27" points="21.794,28.004 21.794,22.217 33.994,22.209 		"/>
	</g>
	<g>
		<polygon fill="#DBAA27" points="21.794,16.692 21.794,22.473 33.867,16.674 		"/>
		<polygon fill="#DBAA27" points="45.794,22.448 45.794,16.665 57.869,22.465 		"/>
		<polygon fill="#AE8A2F" points="57.794,22.448 57.794,16.665 69.867,22.465 		"/>
		<polygon fill="#AE8A2F" points="34.794,16.665 34.794,22.454 22.596,22.459 		"/>
		<polygon fill="#DBAA27" points="45.794,22.448 45.794,16.665 33.72,22.465 		"/>
		<polygon fill="#AE8A2F" points="34.794,22.473 34.794,16.688 46.992,16.679 		"/>
		<polygon fill="#AE8A2F" points="57.794,22.473 57.794,16.688 45.595,16.679 		"/>
		<polygon fill="#DBAA27" points="70.794,22.473 70.794,16.688 58.595,16.679 		"/>
	</g>
	<g>
		<polygon fill="#DBAA27" points="70.794,11.163 70.794,16.942 58.72,11.144 		"/>
		<polygon fill="#DBAA27" points="45.794,16.917 45.794,11.135 33.72,16.932 		"/>
		<polygon fill="#AE8A2F" points="34.794,16.917 34.794,11.135 22.721,16.932 		"/>
		<polygon fill="#AE8A2F" points="57.794,11.135 57.794,16.922 69.992,16.928 		"/>
		<polygon fill="#DBAA27" points="45.794,16.917 45.794,11.135 57.869,16.932 		"/>
		<polygon fill="#AE8A2F" points="57.794,16.942 57.794,11.156 45.595,11.147 		"/>
		<polygon fill="#AE8A2F" points="34.794,16.942 34.794,11.156 46.994,11.147 		"/>
		<polygon fill="#DBAA27" points="21.794,16.942 21.794,11.156 33.994,11.147 		"/>
	</g>
	<g>
		<polygon fill="#DBAA27" points="70.794,5.631 70.794,11.411 58.72,5.612 		"/>
		<polygon fill="#DBAA27" points="45.794,11.385 45.794,5.604 33.72,11.401 		"/>
		<polygon fill="#AE8A2F" points="34.794,11.385 34.794,5.604 22.721,11.401 		"/>
		<polygon fill="#AE8A2F" points="57.794,5.604 57.794,11.392 69.992,11.398 		"/>
		<polygon fill="#DBAA27" points="45.794,11.385 45.794,5.604 57.869,11.401 		"/>
		<polygon fill="#AE8A2F" points="57.794,11.411 57.794,5.624 45.595,5.615 		"/>
		<polygon fill="#AE8A2F" points="34.794,11.411 34.794,5.624 46.994,5.615 		"/>
		<polygon fill="#DBAA27" points="21.794,11.411 21.794,5.624 33.994,5.615 		"/>
	</g>
	<g>
		<polygon fill="#DBAA27" points="21.794,0.099 21.794,5.878 33.867,0.08 		"/>
		<polygon fill="#DBAA27" points="45.794,5.854 45.794,0.071 57.869,5.871 		"/>
		<polygon fill="#AE8A2F" points="57.794,5.854 57.794,0.071 69.867,5.871 		"/>
		<polygon fill="#AE8A2F" points="34.794,0.071 34.794,5.858 22.596,5.867 		"/>
		<polygon fill="#DBAA27" points="45.794,5.854 45.794,0.071 33.72,5.871 		"/>
		<polygon fill="#AE8A2F" points="34.794,5.878 34.794,0.095 46.992,0.085 		"/>
		<polygon fill="#AE8A2F" points="57.794,5.878 57.794,0.095 45.595,0.085 		"/>
		<polygon fill="#DBAA27" points="70.794,5.878 70.794,0.095 58.595,0.085 		"/>
	</g>
	<g>
		<polygon fill="#DBAA27" points="12.752,29.35 9.792,28.211 15.138,6.682 		"/>
		<polygon fill="#AE8A2F" points="12.737,11.659 11.944,6.08 24.39,5.604 		"/>
		<polygon fill="#DBAA27" points="12.445,28.762 11.987,23.047 0.512,32.282 		"/>
		<polygon fill="#AE8A2F" points="0.458,32.307 0,26.586 12.057,23.04 		"/>
		<polygon fill="#AE8A2F" points="15.153,6.579 12.191,5.441 9.785,28.344 		"/>
		<polygon fill="#DBAA27" points="24.443,5.584 23.65,0 11.879,6.128 		"/>
	</g>
</g>
</svg>
