<!-- Generator: Adobe Illustrator 17.0.2, SVG Export Plug-In . SVG Version: 6.00 Build 0)  -->
<!DOCTYPE svg PUBLIC "-//W3C//DTD SVG 1.1//EN" "http://www.w3.org/Graphics/SVG/1.1/DTD/svg11.dtd">
<svg version="1.1" id="monster" xmlns="http://www.w3.org/2000/svg" xmlns:xlink="http://www.w3.org/1999/xlink" x="0px" y="0px"
   width="660px" height="415px" viewBox="0 0 660 415" enable-background="new 0 0 660 415" xml:space="preserve">
<g id="body">
  
    <linearGradient id="SVGID_1_" gradientUnits="userSpaceOnUse" x1="273.7538" y1="663.4063" x2="273.7538" y2="381.1393" gradientTransform="matrix(1.1347 0 0 1.1347 12.2037 -338.6221)">
    <stop  offset="0" style="stop-color:#C34A2E"/>
    <stop  offset="0.0332" style="stop-color:#CA4B2C"/>
    <stop  offset="0.1425" style="stop-color:#DB4F28"/>
    <stop  offset="0.2786" style="stop-color:#E65125"/>
    <stop  offset="0.4696" style="stop-color:#ED5323"/>
    <stop  offset="1" style="stop-color:#EF5323"/>
  </linearGradient>
  <path fill="url(#SVGID_1_)" d="M438.449,156.011c5.839-10.264,2.569-23.392-7.548-29.676c-6.22-3.865-13.611-4.259-19.921-1.72
    c-21.919-18.284-49.868-29.672-80.607-30.685c-19.85-0.654-38.82,3.091-55.987,10.345c-7.29-7.871-19.429-9.459-28.584-3.259
    c-8.759,5.933-11.906,17.047-8.129,26.483c-4.656,4.15-9.017,8.626-13.052,13.392c-7.575-3.44-14.992-3.217-18.265,1.14
    c-3.378,4.494-1.318,12.002,4.495,18.46c-10.502,18.246-16.813,39.257-17.555,61.768l-6.406,191.886h261.409l10.402-183.139
    C459.608,203.5,452.08,177.673,438.449,156.011z"/>
  <circle fill="#C53827" cx="237.026" cy="206.764" r="6.448"/>
  <circle fill="#C53827" cx="411.704" cy="180.737" r="8.463"/>
  <circle fill="#C53827" cx="416.954" cy="217.16" r="5.288"/>
</g>
<g id="tenticle_1">
  <path fill="#EE5323" d="M97.146,279.315c-10.292-18.255-16.381-22.227-25.765-26.53c-7.927-3.634-18.459-1.205-24.127,3.433
    c-0.187-1.607,0.288-3.847,1.847-6.749c4.215-7.86,18.951-14.42,30.518-10.656c11.567,3.761,19.227,7.572,33.683,27.39
    c14.454,19.82,35.685,17.607,35.685,17.607c-2.799,20.172-21.478,22.972-21.478,22.972s-1.865-0.38-5.029-1.813
    c1.262-2.007,2.322-4.402,3.046-7.269C125.525,297.699,107.436,297.572,97.146,279.315z"/>
  <path fill="#C53827" d="M77.709,260.64c-12.981-11.363-22.365-2.869-25.749-1.589c-2.133,0.806-4.389-0.091-4.707-2.833
    c5.668-4.638,16.201-7.066,24.127-3.433c9.385,4.303,15.473,8.275,25.765,26.53c10.29,18.256,28.379,18.385,28.379,18.385
    c-0.724,2.866-1.783,5.262-3.046,7.269c-4.377-1.984-11.245-5.986-19.119-13.791C89.797,277.727,90.69,272.003,77.709,260.64z"/>
</g>
<g id="tenticle_3">
  <path fill="#EE5323" d="M527.478,276.977c7.606-40.968,16.537-52.332,31.48-66.415c12.622-11.898,34.102-14.024,47.823-8.888
    c-0.69-3.148-3.04-7.065-7.867-11.548c-13.066-12.135-45.171-15.125-64.589-0.669c-19.418,14.455-31.421,26.514-45.883,73.08
    c-14.46,46.565-56.017,55.906-56.017,55.906c18.377,36.251,55.495,29.642,55.495,29.642s3.276-1.904,8.326-6.62
    c-3.687-2.981-7.245-6.824-10.473-11.767C485.771,329.7,519.873,317.948,527.478,276.977z"/>
  <path fill="#C53827" d="M552.095,229.397c17.159-29.684,40.403-19.642,47.628-19.385c4.556,0.162,8.233-2.965,7.056-8.337
    c-13.72-5.136-35.201-3.01-47.823,8.888c-14.943,14.082-23.874,25.447-31.48,66.415c-7.605,40.97-41.707,52.723-41.707,52.723
    c3.227,4.943,6.785,8.786,10.473,11.767c6.984-6.527,17.369-18.443,27.184-38.17C540.336,269.305,534.935,259.081,552.095,229.397z
    "/>
</g>
<g id="tenticle_2">
  <path fill="#EE5323" d="M116.593,153.271c17.237,21.05,27.198,37.507,32.077,92.693c4.015,45.411,61.072,93.624,71.197,100.136
    c4.718-3.241,24.364-4.779,24.364-4.779s-80.408-55.41-85.287-110.595c-4.879-55.183-14.84-71.642-32.077-92.691
    s-51.712-26.18-68.171-16.219c-9.697,5.868-12.458,11.804-11.526,16.021c0.405-0.262,0.82-0.523,1.25-0.784
    C64.88,127.091,99.357,132.221,116.593,153.271z"/>
  <path fill="#C53827" d="M53.421,143.546c7.667,1.612,38.808-1.018,50.28,36.246c11.473,37.262,3.899,45.534,12.922,87.765
    c10.317,48.285,45.295,90.053,45.295,90.053s33.817,5.477,58.555-11.509c-10.125-6.512-67.788-54.725-71.802-100.136
    c-4.879-55.185-14.841-71.643-32.077-92.693c-17.236-21.051-51.713-26.181-68.172-16.22c-0.431,0.261-0.846,0.523-1.25,0.784
    C47.823,140.778,50.271,142.884,53.421,143.546z"/>
  
    <ellipse transform="matrix(-0.9206 0.3905 -0.3905 -0.9206 299.554 298.1275)" opacity="0.8" fill="#A21316" enable-background="new    " cx="119.469" cy="179.517" rx="3.905" ry="5.213"/>
  
    <ellipse transform="matrix(-0.9206 0.3905 -0.3905 -0.9206 275.0566 282.9246)" opacity="0.8" fill="#A21316" enable-background="new    " cx="108.766" cy="169.425" rx="2.149" ry="2.869"/>
  
    <ellipse transform="matrix(-0.9958 0.0912 -0.0912 -0.9958 265.0624 484.2661)" opacity="0.8" fill="#A21316" enable-background="new    " cx="121.467" cy="248.189" rx="3" ry="4.005"/>
  
    <ellipse transform="matrix(-0.9958 0.0913 -0.0913 -0.9958 298.0676 505.7708)" opacity="0.8" fill="#A21316" enable-background="new    " cx="137.465" cy="259.703" rx="3.905" ry="5.214"/>
  
    <ellipse transform="matrix(-0.9958 0.0914 -0.0914 -0.9958 274.9976 523.7769)" opacity="0.8" fill="#A21316" enable-background="new    " cx="125.505" cy="268.185" rx="2.722" ry="3.634"/>
</g>
<g id="eye_wrapper">
  <clipPath id="eye_clip">
    <circle cx="325.77" cy="272.715" r="63.168" id="bubba"/>
  </clipPath>
  <g id="eye" clip-path="url(#eye_clip)">
    <circle id="white" fill="#FFFFFF" cx="325.751" cy="272.715" r="61.787"/>
    
      <linearGradient id="pupil_1_" gradientUnits="userSpaceOnUse" x1="520.3024" y1="767.7791" x2="520.3024" y2="722.8021" gradientTransform="matrix(1.1342 0.0373 -0.0373 1.1342 -236.5578 -592.6148)">
      <stop  offset="0" style="stop-color:#00544C"/>
      <stop  offset="0.5324" style="stop-color:#046B7F"/>
    </linearGradient>
    <circle id="pupil" fill="url(#pupil_1_)" cx="325.77" cy="272.101" r="25.52"/>
  </g>
</g>
</svg>