<?xml version="1.0" encoding="utf-8"?>
<!-- Generator: Adobe Illustrator 16.0.4, SVG Export Plug-In . SVG Version: 6.00 Build 0)  -->
<!DOCTYPE svg PUBLIC "-//W3C//DTD SVG 1.1//EN" "http://www.w3.org/Graphics/SVG/1.1/DTD/svg11.dtd">
<svg version="1.1" id="Layer_1" xmlns="http://www.w3.org/2000/svg" xmlns:xlink="http://www.w3.org/1999/xlink" x="0px" y="0px"
	 width="650px" height="692px" viewBox="0 0 650 692" enable-background="new 0 0 650 692" xml:space="preserve">
<g>
	<path opacity="0.2" d="M487.774,611.848c2.339,0.275,4.706,0.59,7.079,0.934l1.238,0.162l0.703,0.123
		c4.973,0.752,9.908,1.613,14.516,2.48l-0.829-0.312l20.201,4.061l-1.692-0.949l8.385,2.914c1.434,0.453,2.732,0.906,3.906,1.357
		l6.587,2.289l0.951-0.172l2.765,5.842l1.231-0.418l-0.953,1.004l0.112,0.236l-0.217-0.125l-0.429,1.164
		c-0.652,1.424-1.802,2.736-3.009,3.881l-0.004,0.004l2.875-0.969c2.926-0.82,5.012-1.535,6.062-1.838l-0.25-0.387l0.863,0.051
		l6.752-3.738l0.424,0.137l18.354,0.9l-15.529-1.689l11.208-4.395l2.849,0.158l10.924-1.361l3.365,1.145
		c1.129,0.334,2.145,0.684,3.059,1.045l0.535,0.182l0.196,0.117c1.806,0.771,3.177,1.586,4.218,2.375l0.39-0.211l3.659,3.561
		l1.906-0.553l-2.932,1.986c-0.342,0.326-0.807,0.639-1.385,0.938l-2.297,1.557l1.482,0.016l-18.669,2.697l2.624-0.061l-4.496,0.332
		l-0.759,0.109l0.259-0.072l-5.037,0.369c-5.766,0.535-11.738,0.951-17.255,1.27l-1.245,0.09c1.633,0.027,2.625,0.043,2.625,0.043
		l-10.378,0.492l14.8,1.705c0,0-0.826-0.045-2.193-0.121l1.102,0.154c4.818,0.596,10.068,1.303,15.207,2.1l4.438,0.615l-0.256-0.078
		l0.7,0.139l3.957,0.547l-2.241-0.209l17.134,3.391l-1.236-0.074l2.742,1.451c0.645,0.287,1.195,0.578,1.651,0.873l3.502,1.85
		l-1.896-0.58l-1.242,2.783l-0.434-0.199c-0.472,0.604-1.207,1.207-2.33,1.75l-0.104,0.086l-0.352,0.121
		c-0.585,0.25-1.266,0.486-2.049,0.697l-2.239,0.764l-9.919-1.803l-2.318-0.033l-11.732-4.381l12.217-0.492l-15.016-0.34
		l-0.319,0.133l-7.681-3.514l-0.766-0.012l-0.103-0.354c-0.915-0.277-2.844-0.891-5.249-1.615c1.908,0.732,3.744,1.49,5.387,2.279
		l2.916,1.145l0.045-0.105l0.246,0.219l2.604,1.027l-1.992-0.49l6.092,5.381l-1.307-0.232l-3.615,1.691
		c-0.586,0.35-1.312,0.691-2.186,1.023l-4.616,2.156l0.368-0.781l-15.765,2.381l0.413-0.238c-3.689,0.488-7.752,0.945-12.026,1.295
		l-0.565,0.064l-1.074,0.062c-2.073,0.15-4.193,0.277-6.336,0.367l-6.896,0.402l-4.335-2.967l-2.969-0.34l6.25-5.57l19.075,1.172
		l-18.658-2.305l-0.867,0.041l3.085-1.732l-8.181,2.553l-0.459-0.283l-10.059,0.891c-1.941,0.199-3.993,0.381-6.161,0.543
		l-12.841,1.133l3.33-0.527l-25.148,0.312l1.328-0.135c-5.625,0.025-11.506-0.006-17.198-0.135l-0.835-0.004l-1.367-0.051
		c-2.688-0.074-5.322-0.172-7.851-0.293l-8.599-0.322l6.759-2.506l-1.763-0.506l27.415-3.432l15.15,2.488l-10.43-3.326l-1.047-0.047
		l23.911-2.355l-0.603-0.148l2.588-0.082c1.822-0.291,5.981-0.949,10.903-1.752l12.566-2.16l-3.404-0.334l-0.391,0.219l-1.357-0.627
		l-4.821,0.406l-1.535-0.512l-13.538,1.188l-3.014-0.406l-20.021,1.162l-1.443-0.518l-52.962,5.475l-32,1l-163.667,7l-29-8
		l75.544-15.236l-0.406-0.93l3.985-4.029c-10.583-5.08,49.877-3.805,49.877-3.805l129.176,9.578l0.365-0.434l23.123,1.207
		l1.297-0.469l15.086,0.676l2.65-0.383l8.402,1.955l2.025-0.41l0.372,0.076c0.069-0.059,0.173-0.115,0.293-0.168l0.216-0.133
		l-1.246-0.062l4.467,1.783l3.568,0.055l-0.41-0.137l8.135-1.545l3.704,2.113l3.567,0.053l-0.412-0.137l5.594,0.594l-0.02-0.014
		l-21.688-3.477l10.301-1.305l-13.515,0.461l-28.735-5.525l4.953-1.412l-5.094,0.15l-5.648,0.236l-13.455-2.32l4.107-1.02
		l-9.365-0.152l-26.137-4.924c-0.316-0.029-0.62-0.055-0.918-0.076l-0.119-0.119l-4.465-0.842l4.234,0.609l-0.007-0.008
		l-0.243-0.035l-2.281-2.369l17.576,1.541c4.914,0.369,10.676,0.855,16.975,1.488l7.564,0.664l-2.971-0.5l5.555,0.938l5.863,0.516
		l-3.289-0.244l7.029,0.992c3.273,0.439,6.624,0.895,9.969,1.412l0.119-0.121l4.965,0.918c4.791,0.801,9.592,1.684,14.312,2.662
		l5.045,0.938l-12.453-4.68l0.96,0.117l15.315-1.217l-17.652-0.135l-15.771-7.033l2.479-0.162l-0.514-3.156L487.774,611.848z"/>
	<g>
		<defs>
			<path id="SVGID_1_" d="M310.124,578.018c-6.629,0-12.002,5.373-12.002,11.998c0,6.629,5.373,12.002,12.002,11.998
				c6.628,0,12.001-5.369,12.001-11.998C322.125,583.391,316.752,578.018,310.124,578.018z"/>
		</defs>
		<clipPath id="SVGID_2_">
			<use xlink:href="#SVGID_1_"  overflow="visible"/>
		</clipPath>
		<polygon clip-path="url(#SVGID_2_)" fill="#4C3D2A" points="319.392,579.992 317.262,588.648 314.834,577.713 		"/>
		<polygon clip-path="url(#SVGID_2_)" fill="#5C4621" points="319.697,578.018 317.112,588.346 323.186,592.902 		"/>
		<polygon clip-path="url(#SVGID_2_)" fill="#6F561B" points="317.112,588.346 322.279,591.84 314.227,595.941 		"/>
		<polygon clip-path="url(#SVGID_2_)" fill="#5C4621" points="322.279,591.84 314.227,595.941 320.455,597.156 		"/>
		<polygon clip-path="url(#SVGID_2_)" fill="#4C3D2A" points="314.227,595.484 320.455,597.156 313.315,603.535 		"/>
		<polygon clip-path="url(#SVGID_2_)" fill="#80622D" points="314.227,594.992 313.723,601.51 304.7,594.822 		"/>
		<polygon clip-path="url(#SVGID_2_)" fill="#76531A" points="314.38,601.656 302.551,593.5 303.979,602.473 		"/>
		<polygon clip-path="url(#SVGID_2_)" fill="#4C3D2A" points="306.937,602.473 305.567,595.791 296.606,596.699 		"/>
		<polygon clip-path="url(#SVGID_2_)" fill="#6F561B" points="310.874,602.619 304.591,605.381 305.493,595.479 		"/>
		<polygon clip-path="url(#SVGID_2_)" fill="#80622D" points="306.29,596.385 301.522,592.842 311.033,589.141 		"/>
		<polygon clip-path="url(#SVGID_2_)" fill="#76531A" points="301.198,593.355 311.033,589.141 304.812,586.479 		"/>
		<polygon clip-path="url(#SVGID_2_)" fill="#4C3D2A" points="304.648,586.734 311.033,589.141 315.036,581.068 		"/>
		<polygon clip-path="url(#SVGID_2_)" fill="#6F561B" points="304.197,579.322 310.896,575.113 311.537,586.553 		"/>
		<polygon clip-path="url(#SVGID_2_)" fill="#4C3D2A" points="311.008,586.32 316.136,579.949 319.885,591.5 		"/>
		<polygon clip-path="url(#SVGID_2_)" fill="#80622D" points="310.715,584.135 318.098,588.092 305.593,595.219 		"/>
		<polygon clip-path="url(#SVGID_2_)" fill="#76531A" points="317.589,587.904 306.025,595.023 314.333,597.207 		"/>
		<polygon clip-path="url(#SVGID_2_)" fill="#5C4621" points="306.633,595.941 298.885,596.549 297.063,586.979 		"/>
		<polygon clip-path="url(#SVGID_2_)" fill="#6F561B" points="303.899,593.664 297.063,586.979 299.795,580.447 		"/>
		<polygon clip-path="url(#SVGID_2_)" fill="#987123" points="303.137,591.689 299.646,580.752 305.114,578.172 		"/>
		<polygon clip-path="url(#SVGID_2_)" fill="#A27D22" points="304.353,582.27 305.114,577.564 316.048,578.32 		"/>
		<polygon clip-path="url(#SVGID_2_)" fill="#6F561B" points="304.353,582.27 317.262,587.586 314.834,577.713 		"/>
		<polygon clip-path="url(#SVGID_2_)" fill="#4C3D2A" points="312.102,582.879 304.353,582.27 302.683,589.715 		"/>
	</g>
	<g>
		<defs>
			<path id="SVGID_3_" d="M172.892,609.088c1.38,8.697,9.541,14.648,18.226,13.299c8.683-1.35,14.608-9.49,13.223-18.191
				c-1.379-8.693-9.539-14.646-18.225-13.297C177.436,592.252,171.512,600.393,172.892,609.088z"/>
		</defs>
		<clipPath id="SVGID_4_">
			<use xlink:href="#SVGID_3_"  overflow="visible"/>
		</clipPath>
		<polygon clip-path="url(#SVGID_4_)" fill="#4C3D2A" points="173.55,596.529 185.339,597.555 171.512,602.971 		"/>
		<polygon clip-path="url(#SVGID_4_)" fill="#5C4621" points="170.901,596.529 184.971,597.816 189.68,588.92 		"/>
		<polygon clip-path="url(#SVGID_4_)" fill="#6F561B" points="184.971,597.816 188.474,590.328 195.528,600.055 		"/>
		<polygon clip-path="url(#SVGID_4_)" fill="#5C4621" points="188.474,590.328 195.528,600.055 195.823,591.635 		"/>
		<polygon clip-path="url(#SVGID_4_)" fill="#4C3D2A" points="194.927,600.145 195.823,591.635 205.67,599.703 		"/>
		<polygon clip-path="url(#SVGID_4_)" fill="#80622D" points="194.282,600.246 202.928,599.578 196.047,612.779 		"/>
		<polygon clip-path="url(#SVGID_4_)" fill="#76531A" points="202.985,598.686 194.759,615.865 206.219,612.164 		"/>
		<polygon clip-path="url(#SVGID_4_)" fill="#4C3D2A" points="205.604,608.285 197.13,611.441 200.189,623.014 		"/>
		<polygon clip-path="url(#SVGID_4_)" fill="#6F561B" points="204.978,603.09 209.905,610.77 196.74,611.605 		"/>
		<polygon clip-path="url(#SVGID_4_)" fill="#80622D" points="197.761,610.375 194.112,617.352 187.278,605.629 		"/>
		<polygon clip-path="url(#SVGID_4_)" fill="#76531A" points="194.851,617.67 187.278,605.629 185.086,614.332 		"/>
		<polygon clip-path="url(#SVGID_4_)" fill="#4C3D2A" points="185.458,614.492 187.278,605.629 175.868,602.02 		"/>
		<polygon clip-path="url(#SVGID_4_)" fill="#6F561B" points="175.836,616.594 168.926,608.666 183.785,605.494 		"/>
		<polygon clip-path="url(#SVGID_4_)" fill="#4C3D2A" points="183.591,606.234 174.171,600.807 188.527,593.535 		"/>
		<polygon clip-path="url(#SVGID_4_)" fill="#80622D" points="180.787,607.066 184.434,596.574 196.381,611.525 		"/>
		<polygon clip-path="url(#SVGID_4_)" fill="#76531A" points="184.296,597.279 196.033,610.998 197.163,599.658 		"/>
		<polygon clip-path="url(#SVGID_4_)" fill="#5C4621" points="197.108,610.016 199.518,620.053 187.359,624.395 		"/>
		<polygon clip-path="url(#SVGID_4_)" fill="#6F561B" points="194.692,614.062 187.359,624.395 178.228,622.143 		"/>
		<polygon clip-path="url(#SVGID_4_)" fill="#987123" points="192.264,615.465 178.659,622.273 174.14,615.629 		"/>
		<polygon clip-path="url(#SVGID_4_)" fill="#A27D22" points="179.667,615.791 173.341,615.752 172.055,601.252 		"/>
		<polygon clip-path="url(#SVGID_4_)" fill="#6F561B" points="179.667,615.791 183.944,597.771 171.512,602.971 		"/>
		<polygon clip-path="url(#SVGID_4_)" fill="#4C3D2A" points="178.852,605.502 179.667,615.791 189.77,616.463 		"/>
	</g>
	<g>
		<defs>
			<path id="SVGID_5_" d="M189.443,645.869l4.577-68.088l-10.856-2.412l12.062-64.531l-7.24-3.02l13.33-57.986l-6.594-1.885
				l11.876-56.738l-4.136-0.996l14.688-49.146l-5.64-1.512l18.837-45.989l-4.966-3.467l29.553-33.171l-2.411-6.029l24.725-21.714
				l-4.827-3.619L295,205.162l23.751,13.195l-7.126,19.876l-6.068,1.236l-5.276,25.069l-6.599,3.959l-3.958,27.709l-6.597,1.318
				l-4.07,42.631l-5.428-0.602l-1.059,50.334h-5.277l10.557,59.43l-7.839,1.207l7.838,46.24l-6.599,2.641l14.443,62.693
				l-6.528,0.641L295,622.117C295,622.117,240.901,673.58,189.443,645.869z"/>
		</defs>
		<clipPath id="SVGID_6_">
			<use xlink:href="#SVGID_5_"  overflow="visible"/>
		</clipPath>
		<g clip-path="url(#SVGID_6_)">
			<defs>
				<path id="SVGID_7_" d="M194.021,575.607l-4.577,70.262c0,0,50.02,29.684,105.825-24.418l-16.103-58.711
					C279.165,562.74,251.128,574.947,194.021,575.607z"/>
			</defs>
			<clipPath id="SVGID_8_">
				<use xlink:href="#SVGID_7_"  overflow="visible"/>
			</clipPath>
			<polygon clip-path="url(#SVGID_8_)" fill="#BA8148" points="193.008,576.814 186.681,654.502 223.027,663.721 			"/>
			<polygon clip-path="url(#SVGID_8_)" fill="#AC7644" points="221.369,659.371 192.483,575.291 220.403,581.84 			"/>
			<polygon clip-path="url(#SVGID_8_)" fill="#996D40" points="220.412,581.191 220.748,661.117 255.906,653.533 			"/>
			<polygon clip-path="url(#SVGID_8_)" fill="#7D5633" points="191.749,575.555 279.976,562.949 221.011,582.748 			"/>
			<polygon clip-path="url(#SVGID_8_)" fill="#92653E" points="253.506,648.656 220.403,582.186 279.976,562.949 			"/>
			<polygon clip-path="url(#SVGID_8_)" fill="#7D5633" points="279.976,562.949 302.323,624.35 250.39,654.684 			"/>
		</g>
		<g clip-path="url(#SVGID_6_)">
			<defs>
				<path id="SVGID_9_" d="M195.851,508.831l-12.017,66.199c0,0,34.048,9.507,103.474-12.357l-14.685-60.518
					C272.624,502.155,239.578,508.513,195.851,508.831z"/>
			</defs>
			<clipPath id="SVGID_10_">
				<use xlink:href="#SVGID_9_"  overflow="visible"/>
			</clipPath>
			<polygon clip-path="url(#SVGID_10_)" fill="#BA8148" points="191.936,511.694 182.141,582.277 218.174,592.149 			"/>
			<polygon clip-path="url(#SVGID_10_)" fill="#AC7644" points="216.707,588.12 191.478,510.285 219.179,517.383 			"/>
			<polygon clip-path="url(#SVGID_10_)" fill="#996D40" points="219.211,516.792 216.004,589.688 251.594,584.19 			"/>
			<polygon clip-path="url(#SVGID_10_)" fill="#7D5633" points="190.727,510.497 279.749,502.566 219.548,517.578 			"/>
			<polygon clip-path="url(#SVGID_10_)" fill="#92653E" points="249.405,579.647 219.161,517.699 279.749,502.566 			"/>
			<polygon clip-path="url(#SVGID_10_)" fill="#7D5633" points="272.955,500.886 299.427,559.455 246.012,585.013 			"/>
		</g>
		<g clip-path="url(#SVGID_6_)">
			<defs>
				<path id="SVGID_11_" d="M197.358,448.277l-12.534,59.779c0,0,33.648,16.398,99.634-9.014l-13.538-48.375
					C227.708,450.668,212.532,451.691,197.358,448.277z"/>
			</defs>
			<clipPath id="SVGID_12_">
				<use xlink:href="#SVGID_11_"  overflow="visible"/>
			</clipPath>
			<polygon clip-path="url(#SVGID_12_)" fill="#BA8148" points="196.369,449.303 184.858,515.822 218.665,525.637 			"/>
			<polygon clip-path="url(#SVGID_12_)" fill="#AC7644" points="217.331,521.982 194.721,448.277 220.517,458.586 			"/>
			<polygon clip-path="url(#SVGID_12_)" fill="#996D40" points="220.557,458.059 216.656,523.367 250.226,519.377 			"/>
			<polygon clip-path="url(#SVGID_12_)" fill="#92653E" points="248.222,515.244 220.501,458.867 277.729,446.896 			"/>
			<polygon clip-path="url(#SVGID_12_)" fill="#7D5633" points="271.581,445.203 295.569,498.455 244.961,519.973 			"/>
			<polygon clip-path="url(#SVGID_12_)" fill="#7D5633" points="187.792,447.252 281.147,448.959 220.864,458.771 			"/>
		</g>
		<g clip-path="url(#SVGID_6_)">
			<defs>
				<path id="SVGID_13_" d="M201.315,389.23l-10.224,57.066c0,0,36.617,13.525,90.056,1.98l-9.897-59.379
					C256.733,391.869,224.408,396.816,201.315,389.23z"/>
			</defs>
			<clipPath id="SVGID_14_">
				<use xlink:href="#SVGID_13_"  overflow="visible"/>
			</clipPath>
			<polygon clip-path="url(#SVGID_14_)" fill="#BA8148" points="205.94,391.469 190.529,455.012 220.097,466.902 			"/>
			<polygon clip-path="url(#SVGID_14_)" fill="#AC7644" points="219.184,463.273 204.542,390.361 226.892,402.164 			"/>
			<polygon clip-path="url(#SVGID_14_)" fill="#996D40" points="226.966,401.656 218.469,464.566 248.889,463.088 			"/>
			<polygon clip-path="url(#SVGID_14_)" fill="#92653E" points="247.407,458.945 226.856,402.438 280.156,391.209 			"/>
			<polygon clip-path="url(#SVGID_14_)" fill="#7D5633" points="273.716,392.838 291.159,446.061 244.118,463.289 			"/>
			<polygon clip-path="url(#SVGID_14_)" fill="#7D5633" points="198.409,388.879 286.755,390.879 227.188,402.369 			"/>
		</g>
		<g clip-path="url(#SVGID_6_)">
			<defs>
				<path id="SVGID_15_" d="M209.893,338.1l-9.234,51.461c0,0,27.03,9.842,78.506-1.65l-2.319-48.002
					C262.344,342.387,234.304,343.049,209.893,338.1z"/>
			</defs>
			<clipPath id="SVGID_16_">
				<use xlink:href="#SVGID_15_"  overflow="visible"/>
			</clipPath>
			<polygon clip-path="url(#SVGID_16_)" fill="#BA8148" points="213.461,341.824 200.666,397.857 229.781,407.51 			"/>
			<polygon clip-path="url(#SVGID_16_)" fill="#AC7644" points="228.77,404.354 212.064,340.887 234.162,350.646 			"/>
			<polygon clip-path="url(#SVGID_16_)" fill="#996D40" points="234.221,350.201 228.118,405.506 257.598,403.424 			"/>
			<polygon clip-path="url(#SVGID_16_)" fill="#92653E" points="256.015,399.84 234.136,350.885 285.494,339.678 			"/>
			<polygon clip-path="url(#SVGID_16_)" fill="#7D5633" points="279.297,341.27 298.046,387.424 252.974,403.727 			"/>
			<polygon clip-path="url(#SVGID_16_)" fill="#7D5633" points="206.055,339.748 291.885,339.219 234.456,350.82 			"/>
		</g>
		<g clip-path="url(#SVGID_6_)">
			<defs>
				<path id="SVGID_17_" d="M229.958,293.386l-19.698,45.899c0,0,24.433,6.74,70.888,0.795l2.968-43.213
					C271.085,297.875,244.561,299.169,229.958,293.386z"/>
			</defs>
			<clipPath id="SVGID_18_">
				<use xlink:href="#SVGID_17_"  overflow="visible"/>
			</clipPath>
			<polygon clip-path="url(#SVGID_18_)" fill="#BA8148" points="226.196,296.416 210.59,344.592 235.627,355.408 			"/>
			<polygon clip-path="url(#SVGID_18_)" fill="#AC7644" points="234.97,352.555 223.749,291.258 243.85,305.83 			"/>
			<polygon clip-path="url(#SVGID_18_)" fill="#996D40" points="243.937,305.445 234.306,353.512 260.563,354.061 			"/>
			<polygon clip-path="url(#SVGID_18_)" fill="#92653E" points="259.439,350.785 243.812,306.037 290.141,300.332 			"/>
			<polygon clip-path="url(#SVGID_18_)" fill="#7D5633" points="284.531,301.232 297.601,343.268 256.448,353.951 			"/>
			<polygon clip-path="url(#SVGID_18_)" fill="#7D5633" points="217.483,287.958 298.959,299.503 244.1,306.005 			"/>
		</g>
		<g clip-path="url(#SVGID_6_)">
			<defs>
				<path id="SVGID_19_" d="M255.417,256.952l-31.468,33.509c0,0,14.314,14.322,65.5,6.092l5.22-28.385
					C279.165,266.52,268.493,262.897,255.417,256.952z"/>
			</defs>
			<clipPath id="SVGID_20_">
				<use xlink:href="#SVGID_19_"  overflow="visible"/>
			</clipPath>
			<polygon clip-path="url(#SVGID_20_)" fill="#BA8148" points="254.278,256.431 219.788,293.238 246.223,305.863 			"/>
			<polygon clip-path="url(#SVGID_20_)" fill="#AC7644" points="245.828,303.431 252.392,251.939 257.482,265.104 			"/>
			<polygon clip-path="url(#SVGID_20_)" fill="#996D40" points="257.589,264.79 245.14,304.179 269.383,306.648 			"/>
			<polygon clip-path="url(#SVGID_20_)" fill="#92653E" points="268.582,303.824 257.43,265.277 298.98,271.265 			"/>
			<polygon clip-path="url(#SVGID_20_)" fill="#7D5633" points="293.727,271.588 304.43,300.472 265.585,306.24 			"/>
			<polygon clip-path="url(#SVGID_20_)" fill="#7D5633" points="246.908,249.179 306.546,272.785 257.773,265.744 			"/>
		</g>
		<g clip-path="url(#SVGID_6_)">
			<defs>
				<path id="SVGID_21_" d="M277.518,228.583l-27.71,22.688c0,0,8.137,15.38,48.936,18.394l10.441-29.206
					C295.662,239.138,286.755,233.862,277.518,228.583z"/>
			</defs>
			<clipPath id="SVGID_22_">
				<use xlink:href="#SVGID_21_"  overflow="visible"/>
			</clipPath>
			<polygon clip-path="url(#SVGID_22_)" fill="#BA8148" points="279.716,227.574 246.073,252.869 263.827,269.184 			"/>
			<polygon clip-path="url(#SVGID_22_)" fill="#AC7644" points="264,266.977 279.158,223.267 280.46,235.792 			"/>
			<polygon clip-path="url(#SVGID_22_)" fill="#996D40" points="280.606,235.54 263.328,267.496 281.398,274.49 			"/>
			<polygon clip-path="url(#SVGID_22_)" fill="#92653E" points="281.342,271.866 280.388,235.93 312.929,242.569 			"/>
			<polygon clip-path="url(#SVGID_22_)" fill="#7D5633" points="308.845,241.803 309.437,276.085 278.573,273.374 			"/>
			<polygon clip-path="url(#SVGID_22_)" fill="#7D5633" points="275.543,219.329 318.422,245.407 280.596,235.985 			"/>
		</g>
		<g clip-path="url(#SVGID_6_)">
			<defs>
				<path id="SVGID_23_" d="M295.522,201.273l-22.952,24.672c0,0,23.091,19.462,41.565,12.534l6.327-26.087
					C309.917,211.328,302.847,206.298,295.522,201.273z"/>
			</defs>
			<clipPath id="SVGID_24_">
				<use xlink:href="#SVGID_23_"  overflow="visible"/>
			</clipPath>
			<polygon clip-path="url(#SVGID_24_)" fill="#BA8148" points="297.203,200.245 271.787,225.646 286.05,241.356 			"/>
			<polygon clip-path="url(#SVGID_24_)" fill="#AC7644" points="286.119,239.186 296.643,196.033 298.014,208.301 			"/>
			<polygon clip-path="url(#SVGID_24_)" fill="#996D40" points="298.118,208.05 285.61,239.708 299.852,246.265 			"/>
			<polygon clip-path="url(#SVGID_24_)" fill="#92653E" points="299.729,243.69 297.964,208.439 323.432,214.4 			"/>
			<polygon clip-path="url(#SVGID_24_)" fill="#7D5633" points="320.238,213.715 321.68,247.355 297.623,245.216 			"/>
			<polygon clip-path="url(#SVGID_24_)" fill="#7D5633" points="293.727,192.225 327.779,217.092 298.127,208.486 			"/>
		</g>
	</g>
	<g>
		<defs>
			<path id="SVGID_25_" d="M309.52,212.518c-8.435,0-15.27,6.836-15.27,15.265c0,8.432,6.834,15.271,15.27,15.267
				c8.433,0,15.268-6.835,15.268-15.267C324.788,219.354,317.953,212.518,309.52,212.518z"/>
		</defs>
		<clipPath id="SVGID_26_">
			<use xlink:href="#SVGID_25_"  overflow="visible"/>
		</clipPath>
		<polygon clip-path="url(#SVGID_26_)" fill="#4C3D2A" points="321.311,215.029 318.604,226.044 315.512,212.129 		"/>
		<polygon clip-path="url(#SVGID_26_)" fill="#5C4621" points="321.701,212.518 318.411,225.656 326.139,231.457 		"/>
		<polygon clip-path="url(#SVGID_26_)" fill="#6F561B" points="318.411,225.656 324.984,230.104 314.739,235.319 		"/>
		<polygon clip-path="url(#SVGID_26_)" fill="#5C4621" points="324.984,230.104 314.739,235.319 322.666,236.869 		"/>
		<polygon clip-path="url(#SVGID_26_)" fill="#4C3D2A" points="314.739,234.741 322.666,236.869 313.579,244.984 		"/>
		<polygon clip-path="url(#SVGID_26_)" fill="#80622D" points="314.739,234.114 314.098,242.406 302.619,233.9 		"/>
		<polygon clip-path="url(#SVGID_26_)" fill="#76531A" points="314.935,242.593 299.885,232.214 301.702,243.631 		"/>
		<polygon clip-path="url(#SVGID_26_)" fill="#4C3D2A" points="305.465,243.631 303.725,235.128 292.321,236.284 		"/>
		<polygon clip-path="url(#SVGID_26_)" fill="#6F561B" points="310.473,243.818 302.479,247.333 303.629,234.734 		"/>
		<polygon clip-path="url(#SVGID_26_)" fill="#80622D" points="304.642,235.884 298.576,231.377 310.677,226.667 		"/>
		<polygon clip-path="url(#SVGID_26_)" fill="#76531A" points="298.164,232.032 310.677,226.667 302.76,223.281 		"/>
		<polygon clip-path="url(#SVGID_26_)" fill="#4C3D2A" points="302.555,223.609 310.677,226.667 315.771,216.399 		"/>
		<polygon clip-path="url(#SVGID_26_)" fill="#6F561B" points="301.98,214.177 310.502,208.822 311.319,223.377 		"/>
		<polygon clip-path="url(#SVGID_26_)" fill="#4C3D2A" points="310.645,223.081 317.169,214.974 321.939,229.67 		"/>
		<polygon clip-path="url(#SVGID_26_)" fill="#80622D" points="310.271,220.298 319.666,225.333 303.755,234.405 		"/>
		<polygon clip-path="url(#SVGID_26_)" fill="#76531A" points="319.017,225.097 304.307,234.154 314.874,236.933 		"/>
		<polygon clip-path="url(#SVGID_26_)" fill="#5C4621" points="305.078,235.319 295.221,236.094 292.902,223.92 		"/>
		<polygon clip-path="url(#SVGID_26_)" fill="#6F561B" points="301.6,232.424 292.902,223.92 296.378,215.608 		"/>
		<polygon clip-path="url(#SVGID_26_)" fill="#987123" points="300.631,229.911 296.189,215.997 303.144,212.713 		"/>
		<polygon clip-path="url(#SVGID_26_)" fill="#A27D22" points="302.177,217.927 303.144,211.939 317.058,212.902 		"/>
		<polygon clip-path="url(#SVGID_26_)" fill="#6F561B" points="302.177,217.927 318.604,224.69 315.512,212.129 		"/>
		<polygon clip-path="url(#SVGID_26_)" fill="#4C3D2A" points="312.038,218.703 302.177,217.927 300.053,227.398 		"/>
	</g>
	<g>
		<defs>
			<path id="SVGID_27_" d="M291.925,190.525c-8.432,0-15.266,6.837-15.266,15.268c0,8.432,6.834,15.269,15.266,15.268
				c8.435,0,15.269-6.837,15.269-15.268S300.36,190.525,291.925,190.525z"/>
		</defs>
		<clipPath id="SVGID_28_">
			<use xlink:href="#SVGID_27_"  overflow="visible"/>
		</clipPath>
		<polygon clip-path="url(#SVGID_28_)" fill="#4C3D2A" points="303.719,193.038 301.012,204.051 297.918,190.137 		"/>
		<polygon clip-path="url(#SVGID_28_)" fill="#5C4621" points="304.104,190.525 300.816,203.666 308.546,209.466 		"/>
		<polygon clip-path="url(#SVGID_28_)" fill="#6F561B" points="300.816,203.666 307.387,208.112 297.148,213.328 		"/>
		<polygon clip-path="url(#SVGID_28_)" fill="#5C4621" points="307.387,208.112 297.148,213.328 305.071,214.877 		"/>
		<polygon clip-path="url(#SVGID_28_)" fill="#4C3D2A" points="297.148,212.75 305.071,214.877 295.989,222.995 		"/>
		<polygon clip-path="url(#SVGID_28_)" fill="#80622D" points="297.148,212.121 296.507,220.414 285.022,211.908 		"/>
		<polygon clip-path="url(#SVGID_28_)" fill="#76531A" points="297.342,220.602 282.294,210.223 284.109,221.638 		"/>
		<polygon clip-path="url(#SVGID_28_)" fill="#4C3D2A" points="287.872,221.638 286.132,213.136 274.728,214.295 		"/>
		<polygon clip-path="url(#SVGID_28_)" fill="#6F561B" points="292.88,221.825 284.886,225.338 286.038,212.743 		"/>
		<polygon clip-path="url(#SVGID_28_)" fill="#80622D" points="287.049,213.893 280.982,209.385 293.084,204.673 		"/>
		<polygon clip-path="url(#SVGID_28_)" fill="#76531A" points="280.569,210.041 293.084,204.673 285.169,201.291 		"/>
		<polygon clip-path="url(#SVGID_28_)" fill="#4C3D2A" points="284.961,201.616 293.084,204.673 298.18,194.409 		"/>
		<polygon clip-path="url(#SVGID_28_)" fill="#6F561B" points="284.39,192.186 292.909,186.833 293.727,201.386 		"/>
		<polygon clip-path="url(#SVGID_28_)" fill="#4C3D2A" points="293.052,201.09 299.578,192.982 304.347,207.677 		"/>
		<polygon clip-path="url(#SVGID_28_)" fill="#80622D" points="292.68,198.308 302.073,203.344 286.162,212.415 		"/>
		<polygon clip-path="url(#SVGID_28_)" fill="#76531A" points="301.422,203.107 286.716,212.163 297.279,214.943 		"/>
		<polygon clip-path="url(#SVGID_28_)" fill="#5C4621" points="287.483,213.328 277.626,214.101 275.311,201.927 		"/>
		<polygon clip-path="url(#SVGID_28_)" fill="#6F561B" points="284.008,210.43 275.311,201.927 278.785,193.617 		"/>
		<polygon clip-path="url(#SVGID_28_)" fill="#987123" points="283.04,207.919 278.597,194.005 285.551,190.72 		"/>
		<polygon clip-path="url(#SVGID_28_)" fill="#A27D22" points="284.582,195.937 285.551,189.947 299.465,190.909 		"/>
		<polygon clip-path="url(#SVGID_28_)" fill="#6F561B" points="284.582,195.937 301.012,202.698 297.918,190.137 		"/>
		<polygon clip-path="url(#SVGID_28_)" fill="#4C3D2A" points="294.442,196.71 284.582,195.937 282.458,205.405 		"/>
	</g>
	<g>
		<defs>
			<path id="SVGID_29_" d="M315.678,185.247c-8.436,0-15.269,6.837-15.269,15.267c0,8.432,6.833,15.271,15.269,15.267
				c8.432,0,15.267-6.835,15.267-15.267C330.945,192.083,324.11,185.247,315.678,185.247z"/>
		</defs>
		<clipPath id="SVGID_30_">
			<use xlink:href="#SVGID_29_"  overflow="visible"/>
		</clipPath>
		<polygon clip-path="url(#SVGID_30_)" fill="#4C3D2A" points="327.467,187.762 324.764,198.775 321.672,184.86 		"/>
		<polygon clip-path="url(#SVGID_30_)" fill="#5C4621" points="327.858,185.247 324.568,198.388 332.295,204.188 		"/>
		<polygon clip-path="url(#SVGID_30_)" fill="#6F561B" points="324.568,198.388 331.139,202.833 320.898,208.05 		"/>
		<polygon clip-path="url(#SVGID_30_)" fill="#5C4621" points="331.139,202.833 320.898,208.05 328.822,209.598 		"/>
		<polygon clip-path="url(#SVGID_30_)" fill="#4C3D2A" points="320.898,207.473 328.822,209.598 319.736,217.716 		"/>
		<polygon clip-path="url(#SVGID_30_)" fill="#80622D" points="320.898,206.841 320.256,215.137 308.772,206.628 		"/>
		<polygon clip-path="url(#SVGID_30_)" fill="#76531A" points="321.093,215.324 306.041,204.946 307.859,216.361 		"/>
		<polygon clip-path="url(#SVGID_30_)" fill="#4C3D2A" points="311.624,216.361 309.882,207.858 298.479,209.017 		"/>
		<polygon clip-path="url(#SVGID_30_)" fill="#6F561B" points="316.633,216.547 308.637,220.06 309.785,207.463 		"/>
		<polygon clip-path="url(#SVGID_30_)" fill="#80622D" points="310.798,208.617 304.733,204.107 316.836,199.396 		"/>
		<polygon clip-path="url(#SVGID_30_)" fill="#76531A" points="304.32,204.764 316.836,199.396 308.919,196.011 		"/>
		<polygon clip-path="url(#SVGID_30_)" fill="#4C3D2A" points="308.712,196.338 316.836,199.396 321.931,189.132 		"/>
		<polygon clip-path="url(#SVGID_30_)" fill="#6F561B" points="308.136,186.908 316.66,181.555 317.475,196.108 		"/>
		<polygon clip-path="url(#SVGID_30_)" fill="#4C3D2A" points="316.803,195.813 323.326,187.704 328.097,202.399 		"/>
		<polygon clip-path="url(#SVGID_30_)" fill="#80622D" points="316.432,193.03 325.825,198.066 309.916,207.136 		"/>
		<polygon clip-path="url(#SVGID_30_)" fill="#76531A" points="325.176,197.829 310.468,206.884 321.028,209.666 		"/>
		<polygon clip-path="url(#SVGID_30_)" fill="#5C4621" points="311.235,208.05 301.38,208.823 299.062,196.648 		"/>
		<polygon clip-path="url(#SVGID_30_)" fill="#6F561B" points="307.756,205.154 299.062,196.648 302.536,188.337 		"/>
		<polygon clip-path="url(#SVGID_30_)" fill="#987123" points="306.79,202.642 302.35,188.728 309.303,185.443 		"/>
		<polygon clip-path="url(#SVGID_30_)" fill="#A27D22" points="308.337,190.659 309.303,184.668 323.217,185.632 		"/>
		<polygon clip-path="url(#SVGID_30_)" fill="#6F561B" points="308.337,190.659 324.764,197.42 321.672,184.86 		"/>
		<polygon clip-path="url(#SVGID_30_)" fill="#4C3D2A" points="318.192,191.432 308.337,190.659 306.213,200.127 		"/>
	</g>
	<g>
		<defs>
			<path id="SVGID_31_" d="M319.943,154.522c0,0-15.438-103.354-82.444-129.276c0,0-58.941-14.249-87.141,2.197l11.966,19.221
				l11.093-9.49l-7.772,15.617l37.716,25.366l15.326-19.515l-7.997,27.332l31.394,17.972l17.857-25.529l-13.131,28.314
				c0,0,60.567,49.574,62.887,55.277L319.943,154.522z"/>
		</defs>
		<clipPath id="SVGID_32_">
			<use xlink:href="#SVGID_31_"  overflow="visible"/>
		</clipPath>
		<path clip-path="url(#SVGID_32_)" fill="#7CA83A" d="M311.336,114.282l11.947,41.653c0,0-13.94,10.646-14.854,9.084
			C307.512,163.451,311.336,114.282,311.336,114.282z"/>
		<polygon clip-path="url(#SVGID_32_)" fill="#759F34" points="308.589,159.97 248.813,107.578 311.276,120.947 		"/>
		<polygon clip-path="url(#SVGID_32_)" fill="#85B241" points="312.282,121.37 289.978,67.871 297.881,118.642 		"/>
		<polygon clip-path="url(#SVGID_32_)" fill="#78A236" points="298.958,118.896 244.812,107.265 290.874,74.151 		"/>
		<polygon clip-path="url(#SVGID_32_)" fill="#96C24F" points="294.367,77.294 264.273,35.958 263.578,51.607 		"/>
		<polygon clip-path="url(#SVGID_32_)" fill="#85B241" points="290.874,74.151 257.265,72.859 263.578,51.607 		"/>
		<polygon clip-path="url(#SVGID_32_)" fill="#A0C959" points="263.578,51.607 264.18,38.28 221.234,16.908 		"/>
		<polygon clip-path="url(#SVGID_32_)" fill="#8EB949" points="263.578,51.607 226.075,20.133 257.478,72.357 		"/>
		<polygon clip-path="url(#SVGID_32_)" fill="#7DA83A" points="257.478,72.357 209.477,86.05 246.81,106.731 		"/>
		<polygon clip-path="url(#SVGID_32_)" fill="#85B241" points="257.478,72.357 226.47,20.593 244.21,76.502 		"/>
		<polygon clip-path="url(#SVGID_32_)" fill="#7DA83A" points="257.478,72.357 290.874,74.151 244.812,107.265 		"/>
		<polygon clip-path="url(#SVGID_32_)" fill="#82AD3D" points="244.21,76.502 211.694,86.4 227.84,22.944 		"/>
		<polygon clip-path="url(#SVGID_32_)" fill="#85B241" points="228.475,21.44 192.816,18.494 224.562,36.32 		"/>
		<polygon clip-path="url(#SVGID_32_)" fill="#82AD3D" points="224.562,36.32 195.715,20.013 171.249,20.613 		"/>
		<polygon clip-path="url(#SVGID_32_)" fill="#7DA83A" points="224.562,36.32 218.687,58.642 171.249,20.613 		"/>
		<polygon clip-path="url(#SVGID_32_)" fill="#78A236" points="218.687,58.642 203.186,79.267 171.249,20.613 		"/>
		<polygon clip-path="url(#SVGID_32_)" fill="#759F34" points="171.249,20.613 148.923,25.952 162.324,46.664 		"/>
		<polygon clip-path="url(#SVGID_32_)" fill="#6F9531" points="171.249,20.613 160.881,50.782 203.186,79.267 		"/>
	</g>
	<g>
		<defs>
			<path id="SVGID_33_" d="M325.427,185.039c0,0,28.979,47.311,28.233,52.698l23.516-15.801l-16.109,22.967l42.342,60.47
				l20.564-6.193l-11.422,17.156l15.053,28.901l15.32-5.629l-5.691,16.979c0,0,36.971,39.371,37.494,56.57l24.746,7.949
				c0,0,20.984-113.29-92.783-208.54l-20.816-20.763C385.873,191.803,338.545,183.625,325.427,185.039z"/>
		</defs>
		<clipPath id="SVGID_34_">
			<use xlink:href="#SVGID_33_"  overflow="visible"/>
		</clipPath>
		<polygon clip-path="url(#SVGID_34_)" fill="#ABD766" points="379.22,220.386 403.408,305.373 361.066,244.903 		"/>
		<polygon clip-path="url(#SVGID_34_)" fill="#9DC958" points="403.408,305.373 379.22,220.386 426.021,297.632 		"/>
		<polygon clip-path="url(#SVGID_34_)" fill="#9DC958" points="353.66,237.737 379.22,220.386 325.427,185.039 		"/>
		<polygon clip-path="url(#SVGID_34_)" fill="#ABD766" points="426.021,297.632 427.604,345.236 410.896,317.396 		"/>
		<polygon clip-path="url(#SVGID_34_)" fill="#8EB949" points="427.604,345.236 426.021,297.632 445.5,338.887 		"/>
		<polygon clip-path="url(#SVGID_34_)" fill="#8EB949" points="325.427,185.039 379.22,220.386 381.127,188.776 		"/>
		<polygon clip-path="url(#SVGID_34_)" fill="#82B13E" points="381.78,182.512 379.22,220.386 439.272,244.007 		"/>
		<polyline clip-path="url(#SVGID_34_)" fill="#8EB949" points="379.748,221.742 426.021,297.632 437.135,243.186 379.22,220.386 		
			"/>
		<polygon clip-path="url(#SVGID_34_)" fill="#7CA83A" points="437.83,238.855 431.115,270.982 477.357,297.855 		"/>
		<polygon clip-path="url(#SVGID_34_)" fill="#82AD3D" points="426.021,297.632 431.115,270.982 479,298.5 		"/>
		<polygon clip-path="url(#SVGID_34_)" fill="#7CA83A" points="460.103,297.99 475.908,297.672 499.625,348.545 		"/>
		<polygon clip-path="url(#SVGID_34_)" fill="#88B543" points="444.533,338.107 437.232,356.586 482.418,422.945 		"/>
		<polygon clip-path="url(#SVGID_34_)" fill="#89B744" points="426.021,297.632 460.115,297.943 444.533,338.107 		"/>
		<polygon clip-path="url(#SVGID_34_)" fill="#82AD3D" points="442.924,339.607 460.115,297.943 491.793,337.445 		"/>
		<polygon clip-path="url(#SVGID_34_)" fill="#82AD3D" points="444.096,338.154 491.793,337.445 478.898,414.918 		"/>
		<polygon clip-path="url(#SVGID_34_)" fill="#79A437" points="478.898,414.918 492.759,325.835 505,423.168 		"/>
	</g>
	<g>
		<defs>
			<path id="SVGID_35_" d="M314.51,169.625c0,0-143.797-31.716-217.219,44.726c0,0-53.439,71.579-48.695,117.601l32.122-6.256
				l-5.801-19.635l15.748,18.299l55.367-37.571l-16.366-30.369l30.888,24.533l41.99-32.857l-22.701-36.809l29.122,31.9
				c0,0,100.434-55.863,109.234-56.069L314.51,169.625z"/>
		</defs>
		<clipPath id="SVGID_36_">
			<use xlink:href="#SVGID_35_"  overflow="visible"/>
		</clipPath>
		<path clip-path="url(#SVGID_36_)" fill="#7CA83A" d="M256.985,160.75l61.337,5.126c0,0,5.626,24.033,3.046,24.462
			C318.78,190.767,256.985,160.75,256.985,160.75z"/>
		<polygon clip-path="url(#SVGID_36_)" fill="#739B2D" points="314.89,187.562 211.253,240.934 265.634,164.205 		"/>
		<polygon clip-path="url(#SVGID_36_)" fill="#85B241" points="266.777,163.082 183.878,165.792 254.708,180.945 		"/>
		<polygon clip-path="url(#SVGID_36_)" fill="#78A236" points="255.671,179.634 208.48,246.121 192.587,167.778 		"/>
		<polygon clip-path="url(#SVGID_36_)" fill="#96C24F" points="198.756,164.696 127.089,183.987 147.064,192.848 		"/>
		<polygon clip-path="url(#SVGID_36_)" fill="#85B241" points="192.587,167.778 171.021,212.048 147.064,192.848 		"/>
		<polygon clip-path="url(#SVGID_36_)" fill="#A0C959" points="147.064,192.848 130.063,185.286 76.799,231.874 		"/>
		<polygon clip-path="url(#SVGID_36_)" fill="#8EB949" points="147.064,192.848 83.867,227.034 170.489,211.515 		"/>
		<polygon clip-path="url(#SVGID_36_)" fill="#7DA83A" points="170.489,211.515 159.932,282.613 208.965,243.186 		"/>
		<polygon clip-path="url(#SVGID_36_)" fill="#85B241" points="170.489,211.515 84.702,226.738 168.047,231.338 		"/>
		<polygon clip-path="url(#SVGID_36_)" fill="#7DA83A" points="170.489,211.515 192.587,167.778 208.48,246.121 		"/>
		<polygon clip-path="url(#SVGID_36_)" fill="#82AD3D" points="168.047,231.338 161.7,279.83 88.573,226.098 		"/>
		<polygon clip-path="url(#SVGID_36_)" fill="#85B241" points="86.992,224.489 62.052,270.667 104.064,237.257 		"/>
		<polygon clip-path="url(#SVGID_36_)" fill="#82AD3D" points="104.064,237.257 65.75,267.554 52.055,300.568 		"/>
		<polygon clip-path="url(#SVGID_36_)" fill="#7DA83A" points="104.064,237.257 129.667,256.418 52.055,300.568 		"/>
		<polygon clip-path="url(#SVGID_36_)" fill="#78A236" points="129.667,256.418 147.372,287.583 52.055,300.568 		"/>
		<polygon clip-path="url(#SVGID_36_)" fill="#759F34" points="52.055,300.568 45.806,333.119 80.718,325.695 		"/>
		<polygon clip-path="url(#SVGID_36_)" fill="#6F9531" points="52.055,300.568 85.228,329.709 147.372,287.583 		"/>
	</g>
	<g>
		<defs>
			<path id="SVGID_37_" d="M305.118,166.898c0,0,65.972-108.199,153.06-105.56c0,0,72.57,11.878,96.322,43.545l-22.432,15.832
				l-7.918-15.832l1.32,21.11l-54.1,10.555l-7.915-29.027l-3.96,34.308l-43.543,5.276l-7.916-36.946l1.318,37.829
				c0,0-91.042,26.828-96.323,32.105L305.118,166.898z"/>
		</defs>
		<clipPath id="SVGID_38_">
			<use xlink:href="#SVGID_37_"  overflow="visible"/>
		</clipPath>
		<path clip-path="url(#SVGID_38_)" fill="#7CA83A" d="M333.707,125.995l-32.988,40.904c0,0,10.557,18.472,12.313,17.152
			C314.794,182.733,333.707,125.995,333.707,125.995z"/>
		<polygon clip-path="url(#SVGID_38_)" fill="#759F34" points="315.235,178.334 406.718,147.988 330.627,133.47 		"/>
		<polygon clip-path="url(#SVGID_38_)" fill="#85B241" points="329.307,133.469 379.449,84.211 346.683,137.209 		"/>
		<polygon clip-path="url(#SVGID_38_)" fill="#78A236" points="345.361,136.989 411.336,149.524 375.492,90.808 		"/>
		<polygon clip-path="url(#SVGID_38_)" fill="#96C24F" points="370.1,92.676 423.211,60.68 416.615,78.491 		"/>
		<polygon clip-path="url(#SVGID_38_)" fill="#85B241" points="375.492,90.808 413.645,105.211 416.615,78.491 		"/>
		<polygon clip-path="url(#SVGID_38_)" fill="#A0C959" points="416.615,78.491 422.221,63.32 480.278,59.691 		"/>
		<polygon clip-path="url(#SVGID_38_)" fill="#8EB949" points="416.615,78.491 473.35,61.009 413.645,104.551 		"/>
		<polygon clip-path="url(#SVGID_38_)" fill="#7DA83A" points="413.645,104.551 460.816,142.487 409.355,147.988 		"/>
		<polygon clip-path="url(#SVGID_38_)" fill="#85B241" points="413.645,104.551 472.691,61.338 426.509,115.437 		"/>
		<polygon clip-path="url(#SVGID_38_)" fill="#7DA83A" points="413.645,104.551 375.492,90.808 411.336,149.524 		"/>
		<polygon clip-path="url(#SVGID_38_)" fill="#82AD3D" points="426.509,115.437 458.178,141.829 470.053,63.32 		"/>
		<polygon clip-path="url(#SVGID_38_)" fill="#85B241" points="470.053,61.338 511.285,74.863 467.414,79.811 		"/>
		<polygon clip-path="url(#SVGID_38_)" fill="#82AD3D" points="467.414,79.811 507.328,75.195 534.375,87.399 		"/>
		<polygon clip-path="url(#SVGID_38_)" fill="#7DA83A" points="467.414,79.811 463.456,107.521 534.375,87.399 		"/>
		<polygon clip-path="url(#SVGID_38_)" fill="#78A236" points="463.456,107.521 471.044,137.867 534.375,87.399 		"/>
		<polygon clip-path="url(#SVGID_38_)" fill="#759F34" points="534.375,87.399 556.806,103.892 532.068,120.715 		"/>
		<polygon clip-path="url(#SVGID_38_)" fill="#6F9531" points="534.375,87.399 531.74,125.994 471.044,137.867 		"/>
	</g>
	<g>
		<defs>
			<path id="SVGID_39_" d="M320.361,167.049c0,0-99.155-105.249-195.761-81.793c0,0-78.224,30.357-97.28,71.31l28.772,12.396
				l5.111-19.544l3.5,23.885l62.888-0.964l1.998-34.277l12.503,37.372l49.856-4.367l0.134-43.112l7.439,42.542
				c0,0,107.97,8.501,115.104,13.154L320.361,167.049z"/>
		</defs>
		<clipPath id="SVGID_40_">
			<use xlink:href="#SVGID_39_"  overflow="visible"/>
		</clipPath>
		<path clip-path="url(#SVGID_40_)" fill="#7CA83A" d="M278.805,128.121l46.467,37.894c0,0-7.435,23.107-9.705,22.054
			C313.283,187.008,278.805,128.121,278.805,128.121z"/>
		<polygon clip-path="url(#SVGID_40_)" fill="#759F34" points="311.764,182.203 202.468,169.877 283.999,135.741 		"/>
		<polygon clip-path="url(#SVGID_40_)" fill="#85B241" points="285.473,135.431 217.888,92.249 266.961,143.701 		"/>
		<polygon clip-path="url(#SVGID_40_)" fill="#78A236" points="268.382,143.136 197.675,172.681 223.863,98.68 		"/>
		<polygon clip-path="url(#SVGID_40_)" fill="#96C24F" points="230.318,99.497 163.485,76.287 175.044,94.619 		"/>
		<polygon clip-path="url(#SVGID_40_)" fill="#85B241" points="223.863,98.68 184.658,123.751 175.044,94.619 		"/>
		<polygon clip-path="url(#SVGID_40_)" fill="#A0C959" points="175.044,94.619 165.212,78.999 99.535,88.626 		"/>
		<polygon clip-path="url(#SVGID_40_)" fill="#8EB949" points="175.044,94.619 107.583,88.468 184.5,123.015 		"/>
		<polygon clip-path="url(#SVGID_40_)" fill="#7DA83A" points="184.5,123.015 140.772,176.478 199.523,170.496 		"/>
		<polygon clip-path="url(#SVGID_40_)" fill="#85B241" points="184.5,123.015 108.396,88.681 172.704,138.199 		"/>
		<polygon clip-path="url(#SVGID_40_)" fill="#7DA83A" points="184.5,123.015 223.863,98.68 197.675,172.681 		"/>
		<polygon clip-path="url(#SVGID_40_)" fill="#82AD3D" points="172.704,138.199 143.568,175.127 111.808,90.27 		"/>
		<polygon clip-path="url(#SVGID_40_)" fill="#85B241" points="111.341,88.061 68.495,112.873 118.646,108.06 		"/>
		<polygon clip-path="url(#SVGID_40_)" fill="#82AD3D" points="118.646,108.06 72.992,112.304 45.667,132.312 		"/>
		<polygon clip-path="url(#SVGID_40_)" fill="#7DA83A" points="118.646,108.06 129.59,138.061 45.667,132.312 		"/>
		<polygon clip-path="url(#SVGID_40_)" fill="#78A236" points="129.59,138.061 128.27,173.736 45.667,132.312 		"/>
		<polygon clip-path="url(#SVGID_40_)" fill="#759F34" points="45.667,132.312 24.513,156.007 56.093,168.961 		"/>
		<polygon clip-path="url(#SVGID_40_)" fill="#6F9531" points="45.667,132.312 57.705,174.777 128.27,173.736 		"/>
	</g>
	<g>
		<defs>
			<path id="SVGID_41_" d="M311.596,168.751c0,0,139.605-34.812,227.824,39.327c0,0,67.124,69.766,70.738,115.536l-33.631-5.463
				l2.285-19.611l-12.584,18.52l-62.852-35.989l10.992-30.506l-26.744,25.054l-48.464-31.626l16.222-37.041l-23.619,32.317
				c0,0-111.764-53.078-120.705-53.08L311.596,168.751z"/>
		</defs>
		<clipPath id="SVGID_42_">
			<use xlink:href="#SVGID_41_"  overflow="visible"/>
		</clipPath>
		<path clip-path="url(#SVGID_42_)" fill="#7CA83A" d="M368.145,158.604l-61.095,6.515c0,0-1.292,23.973,1.391,24.337
			C311.135,189.819,368.145,158.604,368.145,158.604z"/>
		<polygon clip-path="url(#SVGID_42_)" fill="#759F34" points="314.49,186.552 429.037,237.09 360.026,162.234 		"/>
		<polygon clip-path="url(#SVGID_42_)" fill="#85B241" points="358.663,161.142 442.989,161.906 374.137,178.585 		"/>
		<polygon clip-path="url(#SVGID_42_)" fill="#78A236" points="372.921,177.313 432.793,242.179 434.875,162.812 		"/>
		<polygon clip-path="url(#SVGID_42_)" fill="#96C24F" points="427.744,161.175 503.737,178.641 485.158,187.894 		"/>
		<polygon clip-path="url(#SVGID_42_)" fill="#85B241" points="434.541,164.083 464.443,207.501 485.158,187.894 		"/>
		<polygon clip-path="url(#SVGID_42_)" fill="#A0C959" points="485.158,187.894 500.971,180 563.338,224.978 		"/>
		<polygon clip-path="url(#SVGID_42_)" fill="#8EB949" points="485.158,187.894 555.312,220.343 464.882,206.952 		"/>
		<polygon clip-path="url(#SVGID_42_)" fill="#7DA83A" points="464.882,206.952 488.551,277.251 431.764,239.269 		"/>
		<polygon clip-path="url(#SVGID_42_)" fill="#85B241" points="464.882,206.952 554.412,220.071 470.979,226.574 		"/>
		<polygon clip-path="url(#SVGID_42_)" fill="#7DA83A" points="464.882,206.952 434.541,164.083 432.793,242.179 		"/>
		<polygon clip-path="url(#SVGID_42_)" fill="#82AD3D" points="470.979,226.574 486.258,274.527 550.379,219.523 		"/>
		<polygon clip-path="url(#SVGID_42_)" fill="#85B241" points="551.688,217.892 585.35,263.127 536.76,230.957 		"/>
		<polygon clip-path="url(#SVGID_42_)" fill="#82AD3D" points="536.76,230.957 581.04,260.129 600.921,292.553 		"/>
		<polygon clip-path="url(#SVGID_42_)" fill="#7DA83A" points="536.76,230.957 514.369,250.565 600.921,292.553 		"/>
		<polygon clip-path="url(#SVGID_42_)" fill="#78A236" points="514.369,250.565 502.164,281.887 600.921,292.553 		"/>
		<polygon clip-path="url(#SVGID_42_)" fill="#759F34" points="600.921,292.553 613.197,324.707 576.527,318.152 		"/>
		<polygon clip-path="url(#SVGID_42_)" fill="#6F9531" points="600.921,292.553 572.704,322.234 502.164,281.887 		"/>
	</g>
	<g>
		<defs>
			<path id="SVGID_43_" d="M282.65,620.486c1.731,10.902,11.965,18.367,22.851,16.674c10.887-1.693,18.315-11.902,16.579-22.809
				c-1.727-10.902-11.958-18.365-22.848-16.672C288.346,599.375,280.921,609.582,282.65,620.486z"/>
		</defs>
		<clipPath id="SVGID_44_">
			<use xlink:href="#SVGID_43_"  overflow="visible"/>
		</clipPath>
		<polygon clip-path="url(#SVGID_44_)" fill="#4C3D2A" points="283.475,604.738 298.255,606.025 280.921,612.814 		"/>
		<polygon clip-path="url(#SVGID_44_)" fill="#5C4621" points="280.153,604.738 297.792,606.354 303.698,595.197 		"/>
		<polygon clip-path="url(#SVGID_44_)" fill="#6F561B" points="297.792,606.354 302.188,596.961 311.029,609.158 		"/>
		<polygon clip-path="url(#SVGID_44_)" fill="#5C4621" points="302.188,596.961 311.029,609.158 311.399,598.602 		"/>
		<polygon clip-path="url(#SVGID_44_)" fill="#4C3D2A" points="310.278,609.273 311.399,598.602 323.745,608.719 		"/>
		<polygon clip-path="url(#SVGID_44_)" fill="#80622D" points="309.47,609.4 320.31,608.562 311.681,625.113 		"/>
		<polygon clip-path="url(#SVGID_44_)" fill="#76531A" points="320.381,607.443 310.064,628.984 324.436,624.344 		"/>
		<polygon clip-path="url(#SVGID_44_)" fill="#4C3D2A" points="323.664,619.48 313.042,623.438 316.874,637.945 		"/>
		<polygon clip-path="url(#SVGID_44_)" fill="#6F561B" points="322.878,612.967 329.057,622.594 312.549,623.641 		"/>
		<polygon clip-path="url(#SVGID_44_)" fill="#80622D" points="313.829,622.098 309.256,630.846 300.687,616.146 		"/>
		<polygon clip-path="url(#SVGID_44_)" fill="#76531A" points="310.184,631.246 300.687,616.146 297.939,627.061 		"/>
		<polygon clip-path="url(#SVGID_44_)" fill="#4C3D2A" points="298.404,627.264 300.687,616.146 286.383,611.623 		"/>
		<polygon clip-path="url(#SVGID_44_)" fill="#6F561B" points="286.342,629.896 277.677,619.957 296.309,615.98 		"/>
		<polygon clip-path="url(#SVGID_44_)" fill="#4C3D2A" points="296.063,616.908 284.253,610.104 302.253,600.984 		"/>
		<polygon clip-path="url(#SVGID_44_)" fill="#80622D" points="292.547,617.951 297.121,604.795 312.102,623.541 		"/>
		<polygon clip-path="url(#SVGID_44_)" fill="#76531A" points="296.95,605.68 311.663,622.879 313.081,608.662 		"/>
		<polygon clip-path="url(#SVGID_44_)" fill="#5C4621" points="313.009,621.648 316.033,634.234 300.788,639.678 		"/>
		<polygon clip-path="url(#SVGID_44_)" fill="#6F561B" points="309.983,626.723 300.788,639.678 289.338,636.854 		"/>
		<polygon clip-path="url(#SVGID_44_)" fill="#987123" points="306.938,628.48 289.879,637.02 284.213,628.688 		"/>
		<polygon clip-path="url(#SVGID_44_)" fill="#A27D22" points="291.145,628.891 283.213,628.842 281.599,610.66 		"/>
		<polygon clip-path="url(#SVGID_44_)" fill="#6F561B" points="291.145,628.891 296.507,606.297 280.921,612.814 		"/>
		<polygon clip-path="url(#SVGID_44_)" fill="#4C3D2A" points="290.121,615.988 291.145,628.891 303.811,629.732 		"/>
	</g>
</g>
<g>
</g>
<g>
</g>
<g>
</g>
<g>
</g>
<g>
</g>
<g>
</g>
<g>
</g>
<g>
</g>
<g>
</g>
<g>
</g>
<g>
</g>
<g>
</g>
<g>
</g>
<g>
</g>
<g>
</g>
</svg>
