<?xml version="1.0" encoding="utf-8"?>
<!-- Generator: Adobe Illustrator 16.0.0, SVG Export Plug-In . SVG Version: 6.00 Build 0)  -->
<!DOCTYPE svg PUBLIC "-//W3C//DTD SVG 1.1//EN" "http://www.w3.org/Graphics/SVG/1.1/DTD/svg11.dtd">
<svg version="1.1" id="Layer_1" xmlns="http://www.w3.org/2000/svg" xmlns:xlink="http://www.w3.org/1999/xlink" x="0px" y="0px"
	 width="265.285px" height="306.314px" viewBox="0 0 265.285 306.314" enable-background="new 0 0 265.285 306.314"
	 xml:space="preserve">
<g>
	<polyline opacity="0.4" fill="#93B4B5" points="142.236,300.244 190.443,294.177 229.468,270.908 260.472,255.8 265.285,246.059 
		198.279,246.302 147.318,255.8 134.755,260.466 134.755,260.466 130.075,262.816 106.007,267.709 77.982,263.633 67.387,275.278 
		44.743,279.111 20.292,294.859 83.776,306.314 115.146,304.268 142.236,300.244 	"/>
	<g>
		<g>
			<polygon fill="#042A30" points="73.773,246.059 66.215,261.7 76.125,275.104 81.802,260.578 			"/>
			<g>
				<polygon fill="#D5D4D3" points="84.641,24.643 80.583,12.54 74.516,8.729 85.939,5.999 91.833,11.141 99.818,8.423 
					103.2,12.019 110.568,11.148 115.625,12.97 120.935,24.812 118.703,33.603 121.965,37.56 120.682,52.875 103.189,50.821 
					90.43,54.123 97.246,65.305 92.88,71.81 97.246,74.418 93.993,80.387 96.151,97.35 91.807,117.742 51.307,84.532 70.246,60.422 
					72.109,54.509 73.65,44.682 90.812,32.812 90.089,25.085 				"/>
				<g>
					<g>
						<polygon fill="#809499" points="84.726,260.679 112.908,282.856 107.297,291.679 89.652,291.679 81.281,283.252 
							74.364,260.679 						"/>
						<polygon fill="#6D818B" points="112.908,283.955 108.69,304.679 89.769,304.679 80.412,290.974 76.257,276.406 
							74.392,261.722 81.302,283.771 89.652,291.679 107.297,291.679 						"/>
						<polygon fill="#3F5964" points="89.652,291.679 89.769,304.679 108.69,304.679 112.908,283.955 107.297,291.679 						"/>
					</g>
					<polygon fill="#F3F2F3" points="9.751,189.357 23.436,261.7 23.436,261.7 46.347,264.021 52.029,266.767 61.669,261.77 
						72.433,246.506 87.375,183.586 94.292,75.238 90.43,54.123 72.109,54.509 48.464,88.634 25.306,128.851 					"/>
					<polygon fill="#467B94" points="87.375,183.586 72.433,246.506 76.257,276.124 129.323,239.421 131.114,227.141 
						131.114,227.141 132.979,211.352 159.899,273.962 132.217,123.161 125.226,96.953 94.579,75.804 					"/>
					<g>
						<polygon fill="#477D97" points="132.217,123.161 107.113,151.198 72.433,246.506 109.405,166.613 107.113,151.198 
							159.899,273.962 						"/>
						<polygon fill="#13383A" points="131.114,227.141 72.433,246.506 109.405,166.613 107.113,151.198 132.979,211.352 						"/>
						<polygon fill="#3E637E" points="131.295,97.004 94.579,75.804 87.375,183.586 72.433,246.506 107.113,151.198 
							132.217,123.161 						"/>
						<polygon fill="#042A30" points="131.114,227.141 129.323,239.421 76.257,276.124 72.433,246.506 						"/>
						<polygon fill="#13383A" points="72.433,246.506 76.257,276.124 43.091,281.35 43.091,281.35 23.436,261.7 						"/>
					</g>
					<g>
						<polygon fill="#549698" points="133.461,69.976 112.388,72.034 116.553,57.323 						"/>
						<polygon fill="#133632" points="153.009,42.386 140.227,20.949 135.484,30.833 						"/>
						<polygon fill="#436E7A" points="123.17,39.009 133.298,45.254 120.633,53.063 						"/>
						<polygon fill="#CDC9C9" points="120.633,53.063 118.562,32.701 126.871,27.666 						"/>
						<polygon fill="#225C5C" points="156.921,63.25 130.778,57.323 140.193,78.863 						"/>
						<polygon fill="#668492" points="130.778,57.323 125.203,64.886 120.633,53.063 						"/>
						<polygon fill="#5A808D" points="130.778,57.323 133.526,70.477 125.203,64.886 						"/>
						<polygon fill="#3B796C" points="116.8,3.886 115.625,12.97 127.205,7.118 						"/>
						<polygon fill="#23574E" points="127.205,7.118 128.333,16.788 140.227,20.949 						"/>
						<polygon fill="#18424D" points="153.009,42.386 156.921,63.25 136.251,41.777 						"/>
						<polygon fill="#1A3A45" points="136.251,41.777 130.778,57.323 156.921,63.25 						"/>
						<polygon fill="#1E4C4C" points="156.921,63.25 140.193,78.863 145.835,93.629 						"/>
						<polygon fill="#DBDBD9" points="91.497,32.812 91.807,11.148 83.29,23.808 						"/>
						<polygon fill="#E3E1E0" points="91.497,32.812 72.109,54.509 71.62,43.752 						"/>
						<polygon fill="#E3E1E0" points="90.648,44.988 92.88,54.037 72.109,54.509 						"/>
						<polygon fill="#D5D4D3" points="126.871,27.666 115.614,12.999 118.703,33.603 						"/>
						<polygon fill="#456D79" points="120.633,53.063 98.734,53.831 125.203,64.886 						"/>
						<polygon fill="#A3C9C3" points="91.807,11.148 68.915,8.018 84.198,24.812 						"/>
						<polygon fill="#CDC9C9" points="120.633,53.063 105.801,42.958 90.43,54.123 						"/>
						<polygon fill="#DBDBD9" points="118.703,33.603 120.633,53.063 110.828,47.239 						"/>
						<polygon fill="#4E7784" points="130.778,57.323 133.461,69.976 140.193,78.863 						"/>
						<polygon fill="#4E7A80" points="120.374,53.063 133.298,45.254 130.778,57.323 						"/>
						<polygon fill="#365E68" points="123.855,39.943 133.298,45.254 126.871,27.666 						"/>
						<polygon fill="#204A59" points="126.871,27.669 133.14,44.842 133.298,45.254 130.778,57.323 136.251,41.777 						"/>
						<polygon fill="#21473E" points="135.484,30.833 128.002,16.66 140.227,20.949 						"/>
						<polygon fill="#2F6E63" points="131.57,18.121 127.205,7.118 115.625,12.97 						"/>
						<polygon fill="#4A827B" points="104.333,0 115.625,12.97 116.805,3.886 						"/>
						<polygon fill="#23574E" points="115.625,12.97 135.484,30.833 131.57,18.121 						"/>
						<polygon fill="#5A9285" points="104.333,0 103.495,12.047 115.625,12.97 						"/>
						<polygon fill="#77A79B" points="104.333,0 91.807,11.148 103.495,12.047 						"/>
						<polygon fill="#8DBDB3" points="91.807,11.148 88.32,3.622 104.333,0 						"/>
						<polygon fill="#C5D9D4" points="91.807,11.148 88.32,3.622 68.915,8.018 						"/>
						<polygon fill="#E3E1E0" points="112.73,48.365 118.703,33.603 104.823,43.67 						"/>
						<polygon fill="#CDC9C9" points="118.703,33.603 115.625,12.97 102.609,45.283 						"/>
						<polygon fill="#E3E1E0" points="98.734,26.214 112.123,22.921 115.625,12.97 						"/>
						<polygon fill="#D9D4D1" points="104.823,43.67 90.855,45.672 90.43,54.123 						"/>
						<polygon fill="#B8B6B7" points="100.811,25.085 91.666,21.062 91.497,32.812 						"/>
						<polygon fill="#DBDBD9" points="90.855,45.672 72.109,54.509 91.497,32.812 						"/>
						<polygon fill="#DBDBD9" points="115.625,12.97 96.311,18.125 100.811,25.085 						"/>
						<polygon fill="#B8B6B7" points="96.311,18.125 91.807,11.148 115.625,12.97 						"/>
						<polygon fill="#5FB7BA" points="98.734,53.831 112.388,72.034 125.203,64.886 						"/>
						<polygon fill="#6CC4C7" points="90.43,54.123 98.734,53.831 112.388,72.034 						"/>
						<polygon fill="#4E898C" points="140.193,78.863 112.388,72.034 133.461,69.976 						"/>
						<polygon fill="#417D7F" points="140.193,78.863 145.835,93.629 112.388,72.034 						"/>
						<polygon fill="#386A6C" points="112.388,72.034 145.835,93.629 131.812,111.532 						"/>
						<polygon fill="#7BCED7" points="112.388,72.034 90.43,54.123 92.825,71.81 						"/>
						<polygon fill="#346063" points="112.388,72.034 131.812,111.532 136.251,145.121 						"/>
						<polygon fill="#41787D" points="112.388,72.034 105.628,82.557 136.251,145.121 						"/>
						<polygon fill="#62AEB5" points="112.388,72.034 93.993,80.387 92.825,71.81 						"/>
						<polygon fill="#559398" points="112.388,72.034 107.809,84.532 93.993,80.387 						"/>
						<polygon fill="#273B42" points="91.497,32.812 63.332,37.56 71.62,43.752 91.497,32.812 						"/>
						<polygon fill="#3F5964" points="91.497,32.812 83.29,23.808 38.125,22.658 63.332,37.56 						"/>
						<polygon fill="#54889D" points="68.915,8.018 22.605,3.932 91.497,32.812 						"/>
						<g>
							<g>
								<g>
									<polygon points="112.123,22.921 100.811,25.085 104.823,43.67 118.703,33.603 									"/>
								</g>
								<polygon fill="#FFFFFF" points="111.833,24.588 116.753,31.893 105.086,26.34 								"/>
							</g>
						</g>
						<polygon fill="#3B796C" points="82.125,26.181 82.125,26.19 82.136,26.188 						"/>
						<polygon fill="#3B796C" points="56.951,67.355 56.972,67.355 56.958,67.349 						"/>
						<polygon fill="#3B796C" points="82.136,26.188 82.158,26.211 82.158,26.181 						"/>
						<polygon fill="#3B796C" points="82.125,26.181 82.125,26.19 82.136,26.188 						"/>
						<path fill="#3B796C" d="M56.951,67.355h0.021l-0.014-0.007L56.951,67.355z"/>
						<path fill="#3B796C" d="M56.951,67.355h0.021l-0.014-0.007L56.951,67.355z"/>
						<path fill="#3B796C" d="M56.951,67.355h0.021l-0.014-0.007L56.951,67.355z"/>
						<polygon fill="#3B796C" points="82.125,26.181 82.125,26.19 82.136,26.188 						"/>
						<polygon fill="#3B796C" points="56.951,67.355 56.972,67.355 56.958,67.349 						"/>
						<polygon fill="#CDC9C9" points="100.811,25.085 91.666,21.062 91.807,11.148 						"/>
						<polygon fill="#CDC9C9" points="104.823,43.67 100.811,25.085 91.497,32.812 						"/>
						<polygon fill="#143849" points="135.484,30.833 153.009,42.386 136.251,41.777 						"/>
						<polygon fill="#B8B6B7" points="91.497,32.812 97.736,44.682 104.823,43.67 						"/>
						<polygon fill="#CDC9C9" points="97.736,44.682 90.855,45.672 91.497,32.812 						"/>
					</g>
					<polygon fill="#2A3C42" points="38.125,22.658 91.497,32.812 68.805,23.304 					"/>
					<polygon fill="none" points="94.691,80.387 91.807,117.172 107.809,84.532 					"/>
					<polygon fill="#75A8A6" points="136.251,145.121 107.809,84.532 91.807,117.172 					"/>
					<polygon fill="#549698" points="159.899,273.962 136.251,145.121 126.871,197.157 					"/>
					<polygon fill="#92B7B4" points="107.113,151.198 136.251,145.121 126.871,197.157 					"/>
					<polygon fill="#9EC8C5" points="91.807,117.172 136.251,145.121 107.113,151.198 					"/>
					<polygon fill="#9EC8C5" points="107.809,84.532 93.993,80.387 91.807,117.172 					"/>
					<polygon fill="#3E7579" points="107.113,151.198 91.807,117.172 87.375,183.586 					"/>
					<polygon fill="#2F6E63" points="107.113,151.198 87.375,183.586 72.433,246.506 					"/>
					<polygon fill="#23574E" points="107.113,151.198 72.433,246.506 117.761,175.963 					"/>
					<polygon fill="#809499" points="39.695,277.961 14.016,285.112 0,277.961 9.057,272.706 34.086,272.301 					"/>
					<polygon fill="#3F5964" points="0,277.961 2.641,286.788 14.171,294.403 43.091,281.35 39.695,277.961 14.016,285.112 					"/>
					<polygon fill="#3F5964" points="14.016,285.112 14.171,294.403 43.091,281.35 39.695,277.961 					"/>
					<polygon fill="#6D818B" points="14.016,285.112 14.171,294.403 2.641,286.788 0,277.961 					"/>
					<polygon fill="#EBEAEB" points="87.375,183.586 49.841,227.141 72.433,246.506 					"/>
					<polygon fill="#CDD0CE" points="72.433,246.506 23.436,261.7 9.751,189.357 49.841,227.141 					"/>
					<polygon fill="#EBEAEB" points="49.841,227.141 23.436,261.7 9.751,189.357 					"/>
					<polygon fill="none" points="91.807,117.742 76.257,84.532 52.486,83.389 72.109,54.509 90.43,54.123 93.806,71.81 
						95.054,79.346 					"/>
					<polygon fill="#EDF2F1" points="52.486,83.389 90.43,54.123 72.109,54.509 					"/>
					<polygon fill="#D9DAD7" points="76.257,84.532 93.993,80.387 91.807,117.742 					"/>
					<polygon fill="#EDF2F1" points="76.257,84.532 90.43,54.123 52.486,83.389 					"/>
					<polygon fill="#E7E5E5" points="93.993,80.387 76.257,84.532 90.43,54.123 					"/>
					<polygon fill="#41787D" points="136.251,41.777 135.484,30.833 115.625,12.97 					"/>
				</g>
			</g>
		</g>
		<path fill="none" d="M92.88,107.048"/>
	</g>
</g>
<g>
</g>
<g>
</g>
<g>
</g>
<g>
</g>
<g>
</g>
<g>
</g>
</svg>
