<?xml version="1.0" encoding="utf-8"?>
<!-- Generator: Adobe Illustrator 16.0.0, SVG Export Plug-In . SVG Version: 6.00 Build 0)  -->
<!DOCTYPE svg PUBLIC "-//W3C//DTD SVG 1.1//EN" "http://www.w3.org/Graphics/SVG/1.1/DTD/svg11.dtd">
<svg version="1.1" id="Layer_1" xmlns="http://www.w3.org/2000/svg" xmlns:xlink="http://www.w3.org/1999/xlink" x="0px" y="0px"
	 width="126.237px" height="147.996px" viewBox="0 0 126.237 147.996" enable-background="new 0 0 126.237 147.996"
	 xml:space="preserve">
<g>
	<polyline opacity="0.4" fill="#93B4B5" points="57.019,142.8 34.091,138.004 16.244,125.303 1.934,116.831 0,111.965 
		32.189,114.693 56.311,121.243 62.164,123.976 62.164,123.976 64.323,125.289 75.696,128.578 89.321,127.711 93.959,133.721 
		104.692,136.446 115.827,144.967 84.874,147.996 69.879,145.789 57.019,142.8 	"/>
	<g>
		<g>
			<polygon fill="#042A30" points="92.03,119.43 95.051,127.242 89.768,133.297 87.606,126.095 			"/>
			<g>
				<polygon fill="#D5D4D3" points="95.44,12.146 97.862,6.72 100.924,5.242 95.543,3.542 92.51,5.811 88.778,4.209 87.014,5.811 
					83.506,5.11 81.004,5.79 77.993,11.274 78.723,15.588 77,17.362 77.02,24.77 85.506,24.467 91.508,26.55 87.797,31.656 
					89.643,34.953 87.44,36.036 88.772,39.031 87.075,47.099 88.366,57.066 109.124,42.688 100.961,30.364 100.295,27.449 
					99.938,22.668 92.155,16.063 92.803,12.146 				"/>
				<g>
					<g>
						<polygon fill="#809499" points="86.149,126.6 71.739,136.219 74.084,140.736 82.565,141.424 86.92,137.642 91.127,127.004 
													"/>
						<polygon fill="#6D818B" points="71.723,136.411 72.973,146.143 82.065,146.879 87.092,140.707 89.655,133.893 91.124,126.921 
							86.915,137.599 82.565,141.424 74.084,140.736 						"/>
						<polygon fill="#3F5964" points="82.565,141.424 82.065,146.879 72.973,146.143 71.723,136.411 74.084,140.736 						"/>
					</g>
					<polygon fill="#F3F2F3" points="125.004,94.681 115.608,128.91 115.608,128.91 104.508,129.133 101.67,130.229 97.233,127.452 
						92.657,119.697 87.928,88.881 88.829,36.546 91.508,26.55 100.295,27.449 110.329,44.77 119.889,64.998 					"/>
					<polygon fill="#467B94" points="87.928,88.881 92.657,119.697 89.665,133.782 65.596,114.075 65.213,108.104 65.213,108.104 
						64.932,100.445 49.556,129.482 68.735,58.096 73.118,45.775 88.668,36.807 					"/>
					<g>
						<polygon fill="#477D97" points="68.735,58.096 79.708,72.547 92.657,119.697 78.004,79.866 79.708,72.547 49.556,129.482 
													"/>
						<polygon fill="#13383A" points="65.213,108.104 92.657,119.697 78.004,79.866 79.708,72.547 64.932,100.445 						"/>
						<polygon fill="#3E637E" points="70.198,45.562 88.668,36.807 87.928,88.881 92.657,119.697 79.708,72.547 68.735,58.096 
													"/>
						<polygon fill="#042A30" points="65.213,108.104 65.596,114.075 89.665,133.782 92.657,119.697 						"/>
						<polygon fill="#13383A" points="92.657,119.697 89.665,133.782 105.397,137.584 105.397,137.584 115.608,128.91 						"/>
					</g>
					<g>
						<polygon fill="#549698" points="70.211,32.489 80.258,34.301 78.831,27.069 						"/>
						<polygon fill="#133632" points="61.893,18.471 68.872,8.668 70.766,13.603 						"/>
						<polygon fill="#436E7A" points="76.364,18.011 71.254,20.617 77.038,24.862 						"/>
						<polygon fill="#CDC9C9" points="77.038,24.862 78.825,15.159 75.028,12.416 						"/>
						<polygon fill="#225C5C" points="59.202,28.342 71.997,26.516 66.631,36.498 						"/>
						<polygon fill="#668492" points="71.997,26.516 74.377,30.366 77.038,24.862 						"/>
						<polygon fill="#5A808D" points="71.997,26.516 70.161,32.728 74.377,30.366 						"/>
						<polygon fill="#3B796C" points="80.795,1.381 81.004,5.792 75.67,2.529 						"/>
						<polygon fill="#23574E" points="75.67,2.529 74.749,7.132 68.872,8.668 						"/>
						<polygon fill="#18424D" points="61.893,18.471 59.202,28.342 69.969,18.83 						"/>
						<polygon fill="#1A3A45" points="69.969,18.83 71.997,26.516 59.202,28.342 						"/>
						<polygon fill="#1E4C4C" points="59.202,28.342 66.631,36.498 63.344,43.375 						"/>
						<polygon fill="#DBDBD9" points="91.825,16.268 92.52,5.846 96.122,12.26 						"/>
						<polygon fill="#E3E1E0" points="91.825,16.268 100.295,27.449 100.952,22.3 						"/>
						<polygon fill="#E3E1E0" points="91.76,22.151 90.334,26.412 100.295,27.449 						"/>
						<polygon fill="#D5D4D3" points="75.028,12.416 81.01,5.807 78.723,15.589 						"/>
						<polygon fill="#456D79" points="77.038,24.862 87.53,26.086 74.377,30.366 						"/>
						<polygon fill="#A3C9C3" points="92.52,5.846 103.645,5.233 95.645,12.708 						"/>
						<polygon fill="#CDC9C9" points="77.038,24.862 84.557,20.585 91.508,26.55 						"/>
						<polygon fill="#DBDBD9" points="78.723,15.589 77.038,24.862 81.975,22.447 						"/>
						<polygon fill="#4E7784" points="71.997,26.516 70.211,32.489 66.631,36.498 						"/>
						<polygon fill="#4E7A80" points="77.161,24.873 71.254,20.617 71.997,26.516 						"/>
						<polygon fill="#365E68" points="75.999,18.432 71.254,20.617 75.028,12.416 						"/>
						<polygon fill="#204A59" points="75.028,12.416 71.346,20.425 71.254,20.617 71.997,26.516 69.969,18.83 						"/>
						<polygon fill="#21473E" points="70.766,13.603 74.915,7.083 68.872,8.668 						"/>
						<polygon fill="#2F6E63" points="73.143,7.646 75.67,2.529 81.004,5.792 						"/>
						<polygon fill="#4A827B" points="86.936,0 81.004,5.792 80.793,1.381 						"/>
						<polygon fill="#23574E" points="81.004,5.792 70.766,13.603 73.143,7.646 						"/>
						<polygon fill="#5A9285" points="86.936,0 86.872,5.821 81.004,5.792 						"/>
						<polygon fill="#77A79B" points="86.936,0 92.52,5.846 86.872,5.821 						"/>
						<polygon fill="#8DBDB3" points="92.52,5.846 94.491,2.364 86.936,0 						"/>
						<polygon fill="#C5D9D4" points="92.52,5.846 94.491,2.364 103.645,5.233 						"/>
						<polygon fill="#E3E1E0" points="81.018,22.914 78.723,15.589 85,20.967 						"/>
						<polygon fill="#CDC9C9" points="78.723,15.589 81.004,5.792 86,21.828 						"/>
						<polygon fill="#E3E1E0" points="88.606,12.814 82.299,10.711 81.004,5.792 						"/>
						<polygon fill="#D9D4D1" points="85,20.967 91.633,22.473 91.508,26.55 						"/>
						<polygon fill="#B8B6B7" points="87.653,12.19 92.202,10.613 91.825,16.268 						"/>
						<polygon fill="#DBDBD9" points="91.633,22.473 100.295,27.449 91.825,16.268 						"/>
						<polygon fill="#DBDBD9" points="81.004,5.792 90.086,9.021 87.653,12.19 						"/>
						<polygon fill="#B8B6B7" points="90.086,9.021 92.52,5.846 81.004,5.792 						"/>
						<polygon fill="#5FB7BA" points="87.53,26.086 80.258,34.301 74.377,30.366 						"/>
						<polygon fill="#6CC4C7" points="91.508,26.55 87.53,26.086 80.258,34.301 						"/>
						<polygon fill="#4E898C" points="66.631,36.498 80.258,34.301 70.211,32.489 						"/>
						<polygon fill="#417D7F" points="66.631,36.498 63.344,43.375 80.258,34.301 						"/>
						<polygon fill="#386A6C" points="80.258,34.301 63.344,43.375 69.385,52.522 						"/>
						<polygon fill="#7BCED7" points="80.258,34.301 91.508,26.55 89.667,34.956 						"/>
						<polygon fill="#346063" points="80.258,34.301 69.385,52.522 65.942,68.49 						"/>
						<polygon fill="#41787D" points="80.258,34.301 83.096,39.621 65.942,68.49 						"/>
						<polygon fill="#62AEB5" points="80.258,34.301 88.772,39.031 89.667,34.956 						"/>
						<polygon fill="#559398" points="80.258,34.301 81.971,40.484 88.772,39.031 						"/>
						<polygon fill="#273B42" points="91.825,16.268 105.174,19.647 100.952,22.3 91.825,16.268 						"/>
						<polygon fill="#3F5964" points="91.825,16.268 96.122,12.26 117.868,13.469 105.174,19.647 						"/>
						<polygon fill="#54889D" points="103.645,5.233 126.057,5.076 91.825,16.268 						"/>
						<g>
							<g>
								<g>
									<polygon points="82.299,10.711 87.653,12.19 85,20.967 78.723,15.589 									"/>
								</g>
								<polygon fill="#FFFFFF" points="82.375,11.523 79.725,14.841 85.549,12.628 								"/>
							</g>
						</g>
						<polygon fill="#3B796C" points="96.588,13.446 96.588,13.451 96.583,13.45 						"/>
						<polygon fill="#3B796C" points="107.081,34.214 107.071,34.212 107.077,34.211 						"/>
						<polygon fill="#3B796C" points="96.583,13.45 96.571,13.459 96.573,13.446 						"/>
						<polygon fill="#3B796C" points="96.588,13.446 96.588,13.451 96.583,13.45 						"/>
						<path fill="#3B796C" d="M107.077,34.211l-0.006,0.001l0.01,0.002L107.077,34.211z"/>
						<path fill="#3B796C" d="M107.077,34.211l-0.006,0.001l0.01,0.002L107.077,34.211z"/>
						<path fill="#3B796C" d="M107.077,34.211l-0.006,0.001l0.01,0.002L107.077,34.211z"/>
						<polygon fill="#3B796C" points="96.588,13.446 96.588,13.451 96.583,13.45 						"/>
						<polygon fill="#3B796C" points="107.081,34.214 107.071,34.212 107.077,34.211 						"/>
						<polygon fill="#CDC9C9" points="87.653,12.19 92.202,10.613 92.52,5.846 						"/>
						<polygon fill="#CDC9C9" points="85,20.967 87.653,12.19 91.825,16.268 						"/>
						<polygon fill="#143849" points="70.766,13.603 61.893,18.471 69.969,18.83 						"/>
						<polygon fill="#B8B6B7" points="91.825,16.268 88.366,21.729 85,20.967 						"/>
						<polygon fill="#CDC9C9" points="88.366,21.729 91.633,22.473 91.825,16.268 						"/>
					</g>
					<polygon fill="#2A3C42" points="117.868,13.469 91.825,16.268 103.102,12.582 					"/>
					<polygon fill="none" points="88.436,39.004 88.387,56.793 81.971,40.484 					"/>
					<polygon fill="#75A8A6" points="65.942,68.49 81.971,40.484 88.387,56.793 					"/>
					<polygon fill="#549698" points="49.556,129.482 65.942,68.49 68.422,93.861 					"/>
					<polygon fill="#92B7B4" points="79.708,72.547 65.942,68.49 68.422,93.861 					"/>
					<polygon fill="#9EC8C5" points="88.387,56.793 65.942,68.49 79.708,72.547 					"/>
					<polygon fill="#9EC8C5" points="81.971,40.484 88.772,39.031 88.387,56.793 					"/>
					<polygon fill="#3E7579" points="79.708,72.547 88.387,56.793 87.928,88.881 					"/>
					<polygon fill="#2F6E63" points="79.708,72.547 87.928,88.881 92.657,119.697 					"/>
					<polygon fill="#23574E" points="79.708,72.547 92.657,119.697 73.625,84.032 					"/>
					<polygon fill="#809499" points="107.163,136.089 119.223,140.526 126.237,137.637 122.088,134.758 110.077,133.588 					"/>
					<polygon fill="#3F5964" points="126.237,137.637 124.624,141.775 118.786,144.985 105.397,137.584 107.163,136.089 
						119.223,140.526 					"/>
					<polygon fill="#3F5964" points="119.223,140.526 118.786,144.985 105.397,137.584 107.163,136.089 					"/>
					<polygon fill="#6D818B" points="119.223,140.526 118.786,144.985 124.624,141.775 126.237,137.637 					"/>
					<polygon fill="#EBEAEB" points="87.928,88.881 104.266,111.271 92.657,119.697 					"/>
					<polygon fill="#CDD0CE" points="92.657,119.697 115.608,128.91 125.004,94.681 104.266,111.271 					"/>
					<polygon fill="#EBEAEB" points="104.266,111.271 115.608,128.91 125.004,94.681 					"/>
					<polygon fill="none" points="88.366,57.066 97.133,41.715 108.6,42.092 100.295,27.449 91.508,26.55 89.196,34.917 
						88.301,38.49 					"/>
					<polygon fill="#EDF2F1" points="108.6,42.092 91.508,26.55 100.295,27.449 					"/>
					<polygon fill="#D9DAD7" points="97.133,41.715 88.772,39.031 88.366,57.066 					"/>
					<polygon fill="#EDF2F1" points="97.133,41.715 91.508,26.55 108.6,42.092 					"/>
					<polygon fill="#E7E5E5" points="88.772,39.031 97.133,41.715 91.508,26.55 					"/>
					<polygon fill="#41787D" points="69.969,18.83 70.766,13.603 81.004,5.792 					"/>
				</g>
			</g>
		</g>
		<path fill="none" d="M88.268,51.887"/>
	</g>
</g>
<g>
</g>
<g>
</g>
<g>
</g>
<g>
</g>
<g>
</g>
<g>
</g>
</svg>
