<?xml version="1.0" encoding="utf-8"?>
<!-- Generator: Adobe Illustrator 16.0.0, SVG Export Plug-In . SVG Version: 6.00 Build 0)  -->
<!DOCTYPE svg PUBLIC "-//W3C//DTD SVG 1.1//EN" "http://www.w3.org/Graphics/SVG/1.1/DTD/svg11.dtd">
<svg version="1.1" id="Layer_1" xmlns="http://www.w3.org/2000/svg" xmlns:xlink="http://www.w3.org/1999/xlink" x="0px" y="0px"
	 width="39.931px" height="39.959px" viewBox="0 0 39.931 39.959" enable-background="new 0 0 39.931 39.959" xml:space="preserve">
<g>
	<defs>
		<path id="SVGID_1_" d="M0.25,23.046C1.981,33.949,12.215,41.414,23.101,39.72c10.888-1.693,18.315-11.902,16.579-22.809
			C37.953,6.01,27.721-1.453,16.832,0.239C5.946,1.936-1.479,12.143,0.25,23.046z"/>
	</defs>
	<clipPath id="SVGID_2_">
		<use xlink:href="#SVGID_1_"  overflow="visible"/>
	</clipPath>
	<polygon clip-path="url(#SVGID_2_)" fill="#4C3D2A" points="1.075,7.298 15.855,8.586 -1.479,15.375 	"/>
	<polygon clip-path="url(#SVGID_2_)" fill="#5C4621" points="-2.247,7.298 15.393,8.914 21.298,-2.243 	"/>
	<polygon clip-path="url(#SVGID_2_)" fill="#6F561B" points="15.393,8.914 19.788,-0.479 28.629,11.719 	"/>
	<polygon clip-path="url(#SVGID_2_)" fill="#5C4621" points="19.788,-0.479 28.629,11.719 28.999,1.161 	"/>
	<polygon clip-path="url(#SVGID_2_)" fill="#4C3D2A" points="27.878,11.833 28.999,1.161 41.346,11.278 	"/>
	<polygon clip-path="url(#SVGID_2_)" fill="#80622D" points="27.07,11.961 37.91,11.123 29.281,27.673 	"/>
	<polygon clip-path="url(#SVGID_2_)" fill="#76531A" points="37.98,10.003 27.664,31.544 42.036,26.904 	"/>
	<polygon clip-path="url(#SVGID_2_)" fill="#4C3D2A" points="41.264,22.041 30.642,25.998 34.474,40.505 	"/>
	<polygon clip-path="url(#SVGID_2_)" fill="#6F561B" points="40.479,15.526 46.656,25.154 30.149,26.201 	"/>
	<polygon clip-path="url(#SVGID_2_)" fill="#80622D" points="31.43,24.658 26.855,33.406 18.287,18.706 	"/>
	<polygon clip-path="url(#SVGID_2_)" fill="#76531A" points="27.783,33.806 18.287,18.706 15.539,29.621 	"/>
	<polygon clip-path="url(#SVGID_2_)" fill="#4C3D2A" points="16.004,29.824 18.287,18.706 3.983,14.184 	"/>
	<polygon clip-path="url(#SVGID_2_)" fill="#6F561B" points="3.942,32.457 -4.723,22.517 13.909,18.54 	"/>
	<polygon clip-path="url(#SVGID_2_)" fill="#4C3D2A" points="13.664,19.468 1.854,12.663 19.853,3.544 	"/>
	<polygon clip-path="url(#SVGID_2_)" fill="#80622D" points="10.147,20.511 14.721,7.354 29.701,26.101 	"/>
	<polygon clip-path="url(#SVGID_2_)" fill="#76531A" points="14.55,8.24 29.264,25.439 30.682,11.222 	"/>
	<polygon clip-path="url(#SVGID_2_)" fill="#5C4621" points="30.609,24.208 33.633,36.794 18.388,42.238 	"/>
	<polygon clip-path="url(#SVGID_2_)" fill="#6F561B" points="27.583,29.283 18.388,42.238 6.938,39.414 	"/>
	<polygon clip-path="url(#SVGID_2_)" fill="#987123" points="24.539,31.041 7.479,39.58 1.813,31.248 	"/>
	<polygon clip-path="url(#SVGID_2_)" fill="#A27D22" points="8.745,31.451 0.813,31.402 -0.801,13.221 	"/>
	<polygon clip-path="url(#SVGID_2_)" fill="#6F561B" points="8.745,31.451 14.107,8.857 -1.479,15.375 	"/>
	<polygon clip-path="url(#SVGID_2_)" fill="#4C3D2A" points="7.721,18.549 8.745,31.451 21.411,32.292 	"/>
</g>
<g>
</g>
<g>
</g>
<g>
</g>
<g>
</g>
<g>
</g>
<g>
</g>
</svg>
