<?xml version="1.0" encoding="utf-8"?>
<!-- Generator: Adobe Illustrator 16.0.0, SVG Export Plug-In . SVG Version: 6.00 Build 0)  -->
<!DOCTYPE svg PUBLIC "-//W3C//DTD SVG 1.1//EN" "http://www.w3.org/Graphics/SVG/1.1/DTD/svg11.dtd">
<svg version="1.1" id="Layer_1" xmlns="http://www.w3.org/2000/svg" xmlns:xlink="http://www.w3.org/1999/xlink" x="0px" y="0px"
	 width="3108px" height="1793.555px" viewBox="0 0 3108 1793.555" enable-background="new 0 0 3108 1793.555" xml:space="preserve">
<g>
	<defs>
		<polygon id="SVGID_1_" points="2829.698,0 2912.112,228.113 2946.569,425.729 2982.545,735.71 2990.036,979.819 3005.03,1074.752 
			3044.026,1134.8 3108,1650.153 1780.831,1793.555 0,1650.151 194.166,371.485 219.664,309.487 236.163,230.056 246.663,162.249 
			243.663,28.57 265.522,0.09 		"/>
	</defs>
	<clipPath id="SVGID_2_">
		<use xlink:href="#SVGID_1_"  overflow="visible"/>
	</clipPath>
	<polygon clip-path="url(#SVGID_2_)" fill="#DDCC9F" points="3005.124,-12.198 2609.53,-409.794 2708,584.543 	"/>
	<polygon clip-path="url(#SVGID_2_)" fill="#D1BC84" points="2716.635,609.849 2580.706,-36.992 2606.366,-437.581 	"/>
	<polygon clip-path="url(#SVGID_2_)" fill="#DDC68B" points="2708,571.627 2998.989,-1.004 2814.706,834.818 	"/>
	<polygon clip-path="url(#SVGID_2_)" fill="#DDCC9F" points="2717.645,602.984 2348,-26.408 2580.706,-36.992 	"/>
	<polygon clip-path="url(#SVGID_2_)" fill="#D1BC84" points="2719.858,581.098 1756.704,1275.144 2195.338,-314.445 	"/>
	<polygon clip-path="url(#SVGID_2_)" fill="#DDCC9F" points="2814.706,834.818 1688,1329.822 2710.655,569.903 	"/>
	<polygon clip-path="url(#SVGID_2_)" fill="#D1BC84" points="2814,835.122 2990,34.3 3102.764,1005.202 	"/>
	<polygon clip-path="url(#SVGID_2_)" fill="#DDCC9F" points="3099.743,993.756 2128,1195.492 3104,1665.652 	"/>
	<polygon clip-path="url(#SVGID_2_)" fill="#D1BC84" points="2814.706,834.818 1785.932,1279.276 3105.786,1005.202 	"/>
	<polygon clip-path="url(#SVGID_2_)" fill="#D1C297" points="322.026,1200.337 2204.54,-336.834 1775.395,1234.182 	"/>
	<polygon clip-path="url(#SVGID_2_)" fill="#95D600" points="1778.418,1211.258 571.994,1016.637 320,1203.758 	"/>
	<polygon clip-path="url(#SVGID_2_)" fill="#DDCC9F" points="1653.124,-279.57 1257.529,-788.916 1358,478.627 	"/>
	<polygon clip-path="url(#SVGID_2_)" fill="#D1BC84" points="1362,488.961 1162,0.717 1322,-40.615 	"/>
	<polygon clip-path="url(#SVGID_2_)" fill="#D1BC84" points="1358,468.295 1578,-118.114 1464,822.205 	"/>
	<polygon clip-path="url(#SVGID_2_)" fill="#DDCC9F" points="1360,476.044 730,-9.617 1154,-26.408 	"/>
	<polygon clip-path="url(#SVGID_2_)" fill="#B7E862" points="1228.705,-311.333 1254.365,-838.854 954.372,-223.748 	"/>
	<polygon clip-path="url(#SVGID_2_)" fill="#DDC68B" points="1367.857,480.482 156,1753.483 742,-1.866 	"/>
	<polygon clip-path="url(#SVGID_2_)" fill="#D1BC84" points="1462.705,805.513 456,1350.489 1358.655,466.14 	"/>
	<polygon clip-path="url(#SVGID_2_)" fill="#D1BC84" points="160,1701.818 3228,1670.818 484,1324.656 	"/>
	<polygon clip-path="url(#SVGID_2_)" fill="#DDCC9F" points="133.664,1696.671 3228,1670.818 1042.755,1967.944 	"/>
	<polygon clip-path="url(#SVGID_2_)" fill="#DDCC9F" points="1462.705,805.513 1568,-58.699 1750.764,1023.787 	"/>
	<polygon clip-path="url(#SVGID_2_)" fill="#DDCC9F" points="1747.743,1009.124 468,1329.822 3100,1660.486 	"/>
	<polygon clip-path="url(#SVGID_2_)" fill="#D1C297" points="1462.705,805.513 444,1345.323 1760,1009.494 	"/>
	<polygon clip-path="url(#SVGID_2_)" fill="#DDC68B" points="208,49.8 900,-645.108 423.395,1317.125 	"/>
	<polygon clip-path="url(#SVGID_2_)" fill="#DDC68B" points="1751.28,1025.02 1852,-7.435 1576,-7.435 	"/>
	<polygon clip-path="url(#SVGID_2_)" fill="#DDCC9F" points="484,1329.822 240,209.964 -184,2115.146 	"/>
	<polygon opacity="0.3" clip-path="url(#SVGID_2_)" fill="#00263F" points="2873.54,-28.597 2959.049,208.081 2994.799,413.117 
		3032.127,734.738 3039.899,988.013 3055.456,1086.513 3095.917,1148.813 3162.293,1683.518 997.709,1977.055 -62.41,1683.515 
		139.046,356.838 165.502,292.512 182.621,210.097 193.516,139.745 190.403,1.044 213.083,-28.506 	"/>
</g>
<g>
</g>
<g>
</g>
<g>
</g>
<g>
</g>
<g>
</g>
<g>
</g>
</svg>
