<?xml version="1.0" encoding="utf-8"?>
<!-- Generator: Adobe Illustrator 16.0.0, SVG Export Plug-In . SVG Version: 6.00 Build 0)  -->
<!DOCTYPE svg PUBLIC "-//W3C//DTD SVG 1.1//EN" "http://www.w3.org/Graphics/SVG/1.1/DTD/svg11.dtd">
<svg version="1.1" id="Layer_1" xmlns="http://www.w3.org/2000/svg" xmlns:xlink="http://www.w3.org/1999/xlink" x="0px" y="0px"
	 width="48.18px" height="50.816px" viewBox="0 0 48.18 50.816" enable-background="new 0 0 48.18 50.816" xml:space="preserve">
<g>
	<defs>
		<polygon id="SVGID_1_" points="34.408,20.359 45.93,11.429 41.176,11.429 35.799,12.429 27.666,12.429 24.315,13.704 
			19.588,5.468 13.509,0 16.211,16.854 10.131,21.565 0,26.961 16.886,29.658 21.162,50.816 27.957,29.262 41.864,34.383 
			48.18,39.332 46.153,30.551 42.101,25.308 		"/>
	</defs>
	<clipPath id="SVGID_2_">
		<use xlink:href="#SVGID_1_"  overflow="visible"/>
	</clipPath>
	<rect x="82.418" y="58.429" clip-path="url(#SVGID_2_)" fill="#B7A58B" width="11" height="8"/>
	<polygon clip-path="url(#SVGID_2_)" fill="#B17F83" points="16.211,16.835 21.162,21.094 0,26.957 	"/>
	<polygon clip-path="url(#SVGID_2_)" fill="#864146" points="21.162,21.094 16.886,29.656 0,26.957 	"/>
	<polygon clip-path="url(#SVGID_2_)" fill="#864146" points="16.211,16.835 23.863,21.77 13.509,-0.037 	"/>
	<polygon clip-path="url(#SVGID_2_)" fill="#B17F83" points="24.539,10.963 13.057,-1.87 23.863,21.77 	"/>
	<polygon clip-path="url(#SVGID_2_)" fill="#864146" points="23.863,21.094 45.93,10.784 25.215,10.963 	"/>
	<polygon clip-path="url(#SVGID_2_)" fill="#B17F83" points="23.863,21.094 45.93,10.784 34.408,20.037 	"/>
	<polygon clip-path="url(#SVGID_2_)" fill="#B17F83" points="29.467,34.604 23.863,21.094 52.233,40.007 	"/>
	<polygon clip-path="url(#SVGID_2_)" fill="#864146" points="42.101,20.419 25.215,21.094 54.258,41.358 	"/>
	<polygon clip-path="url(#SVGID_2_)" fill="#B17F83" points="22.513,21.094 21.162,50.815 16.886,29.656 	"/>
	<polygon clip-path="url(#SVGID_2_)" fill="#864146" points="21.162,50.815 22.513,21.094 27.916,29.2 	"/>
	<rect x="-1.582" y="-1.571" opacity="0.6" clip-path="url(#SVGID_2_)" fill="#FFC255" width="52" height="54"/>
</g>
<g>
</g>
<g>
</g>
<g>
</g>
<g>
</g>
<g>
</g>
<g>
</g>
</svg>
